/* XPM */
static char * software_xpm[] = {
"32 32 25 1",
" 	c None",
".	c #808080",
"+	c #000000",
"@	c #000080",
"#	c #FFFFFF",
"$	c #C0C0C0",
"%	c #EFEFEF",
"&	c #FFFF00",
"*	c #E0E0D0",
"=	c #CF0030",
"-	c #FFFFF0",
";	c #B0B0B0",
">	c #CF0000",
",	c #707070",
"'	c #A00020",
")	c #00FF00",
"!	c #008000",
"~	c #008080",
"{	c #0000FF",
"]	c #00FFFF",
"^	c #FF00FF",
"/	c #808000",
"(	c #FF0000",
"_	c #800000",
":	c #800080",
"                                ",
".......................+        ",
".@@@@@@@@@@@@@@@@@@@@@@+        ",
".@@@@@@@@@@@@@@@@#+#+#++        ",
".@@@@@@@@@@@@@@@@+++++++        ",
".$$$$$$$$$$$$$$$$$$$$$$+        ",
".$%&****=***&*********$+        ",
".$*--=--$##=---------*$+        ",
".$*--;=-=#=$---------*$+        ",
".$%---$=-=.....................+",
".$&-&=>$&;=>@@@@@@@@@@@@@@@@@@@+",
".$*----=,=@@@@@@@@@@@@@@@#+#+#++",
".$*---'$=@=@@@@@@@@@@@@@@+++++++",
".$*--=$-.$$=$$$$$$$$$$$$$$$$$$$+",
".$*-&---=$**&*****************$+",
".$*-----.$*-))!----~~~----{{@*$+",
".$*-----.$*-)&!----~]~----{]@*$+",
".$*-----.$*!!!!---~~~@---@@@@*$+",
".$%-----.$*-+++----@@@----+++*$+",
".$*-----.$*------------------*$+",
".$******.$*....---....---....*$+",
".;$$$$$$.$%------------------*$+",
"++++++++.$*--^^-----//----((_*$+",
"        .$*-^&^----/&/----(&_*$+",
"        .$*::^:---///+---____*$+",
"        .$%-+++----+++----+++*$+",
"        .$*------------------*$+",
"        .$*....---....---....*$+",
"        .$***%******%******%**$+",
"        .$$$$$$$$$$$$$$$$$$$$$$+",
"        ++++++++++++++++++++++++",
"                                "};
