/* XPM */
static char * anjuta_xpm[] = {
"32 32 673 2",
"  	c None",
". 	c #1F415B",
"+ 	c #34495D",
"@ 	c #657078",
"# 	c #7B8085",
"$ 	c #6F7A89",
"% 	c #4F6375",
"& 	c #274359",
"* 	c #234861",
"= 	c #24465F",
"- 	c #597182",
"; 	c #90979E",
"> 	c #BFC2C2",
", 	c #CDCECF",
"' 	c #CED1D6",
") 	c #CCD2D7",
"! 	c #CFD3D7",
"~ 	c #D2D3D5",
"{ 	c #C7C8C7",
"] 	c #B0B3B6",
"^ 	c #728493",
"/ 	c #41627A",
"( 	c #214662",
"_ 	c #465E73",
": 	c #A8B2BA",
"< 	c #C8C9C9",
"[ 	c #AEB4BA",
"} 	c #7C92A8",
"| 	c #809EBC",
"1 	c #83A3C7",
"2 	c #80A4CA",
"3 	c #84A2C3",
"4 	c #88A5C6",
"5 	c #839BB2",
"6 	c #8F9DAA",
"7 	c #C5C8C8",
"8 	c #C7C8CB",
"9 	c #7A8B99",
"0 	c #2A4D68",
"a 	c #2F4C63",
"b 	c #7F8F9C",
"c 	c #D0D1D1",
"d 	c #9BA7B4",
"e 	c #7091B4",
"f 	c #7AA1CC",
"g 	c #8AB4E2",
"h 	c #91B8E3",
"i 	c #8EB6E4",
"j 	c #8AAED8",
"k 	c #89AED6",
"l 	c #8EB9E6",
"m 	c #90B8E3",
"n 	c #85AEDB",
"o 	c #7698C1",
"p 	c #7B92A9",
"q 	c #BDC2C7",
"r 	c #C2C3C7",
"s 	c #506C81",
"t 	c #234A65",
"u 	c #214660",
"v 	c #A3ACB1",
"w 	c #C4C8CA",
"x 	c #788FA4",
"y 	c #7499C1",
"z 	c #5A7797",
"A 	c #88ADD7",
"B 	c #8CB3DE",
"C 	c #8CB2DA",
"D 	c #8AAFD8",
"E 	c #40546A",
"F 	c #2E3B4B",
"G 	c #7694B6",
"H 	c #90B6E0",
"I 	c #8CB3DC",
"J 	c #8DB2DB",
"K 	c #84AED9",
"L 	c #7592B4",
"M 	c #97A1AB",
"N 	c #CCCDCD",
"O 	c #5B7080",
"P 	c #244E6E",
"Q 	c #2F4B63",
"R 	c #A2ABB1",
"S 	c #B7BBC2",
"T 	c #6F8BAA",
"U 	c #86B1E2",
"V 	c #7A9BC0",
"W 	c #0C0C10",
"X 	c #566C85",
"Y 	c #92B6E2",
"Z 	c #92B4E1",
"` 	c #7A99BD",
" .	c #1C222B",
"..	c #232A33",
"+.	c #2C3642",
"@.	c #8BAED6",
"#.	c #8FB3DD",
"$.	c #8CB1D8",
"%.	c #88AFDB",
"&.	c #88B1DE",
"*.	c #769FCE",
"=.	c #8495A7",
"-.	c #D2D3D3",
";.	c #566B7C",
">.	c #214865",
",.	c #818E9B",
"'.	c #C2C6C8",
").	c #6D89A8",
"!.	c #7DA6D4",
"~.	c #8AB0DD",
"{.	c #6B8AAE",
"].	c #38414B",
"^.	c #80A2CB",
"/.	c #94B8E0",
"(.	c #708AA9",
"_.	c #313D49",
":.	c #88A8C9",
"<.	c #3D4C5D",
"[.	c #809EC2",
"}.	c #8CAFD6",
"|.	c #88ABD8",
"1.	c #84ABD4",
"2.	c #7499C3",
"3.	c #8996A2",
"4.	c #C0C5C9",
"5.	c #436078",
"6.	c #465E72",
"7.	c #D0CFCF",
"8.	c #6F87A0",
"9.	c #80A7D2",
"0.	c #84A7D0",
"a.	c #87AFDC",
"b.	c #708CAC",
"c.	c #161B22",
"d.	c #718FAD",
"e.	c #7490AA",
"f.	c #92B0D2",
"g.	c #7690AB",
"h.	c #667C94",
"i.	c #96B7DB",
"j.	c #6D849D",
"k.	c #89AACF",
"l.	c #92B2D4",
"m.	c #8CAED5",
"n.	c #8AAED7",
"o.	c #87ACD5",
"p.	c #85AAD3",
"q.	c #82A8D4",
"r.	c #6D96C2",
"s.	c #A3A5A9",
"t.	c #ABAEAE",
"u.	c #244863",
"v.	c #29445A",
"w.	c #A1AAB3",
"x.	c #959DA9",
"y.	c #6D94BF",
"z.	c #80A6D0",
"A.	c #84A6CD",
"B.	c #87ADD6",
"C.	c #85A6CC",
"D.	c #28343D",
"E.	c #6E879F",
"F.	c #90B0D6",
"G.	c #92B1D5",
"H.	c #8EAACE",
"I.	c #4F5F70",
"J.	c #667B92",
"K.	c #96B5D8",
"L.	c #98B7DC",
"M.	c #8AAACC",
"N.	c #86A8CE",
"O.	c #84A5CB",
"P.	c #7FA6D2",
"Q.	c #7088A3",
"R.	c #C9CACC",
"S.	c #465E71",
"T.	c #1F405A",
"U.	c #53697A",
"V.	c #C0C0C1",
"W.	c #63809F",
"X.	c #789FC9",
"Y.	c #7DA3CE",
"Z.	c #83A7CC",
"`.	c #87A9CC",
" +	c #8FB0D1",
".+	c #4E6176",
"++	c #505D6D",
"@+	c #92B1D2",
"#+	c #94B0D0",
"$+	c #94B2D3",
"%+	c #99B7D9",
"&+	c #6E859C",
"*+	c #20252C",
"=+	c #2F353E",
"-+	c #5F7389",
";+	c #90ACCE",
">+	c #8FADD0",
",+	c #8AAACD",
"'+	c #85A9D1",
")+	c #83A5CC",
"!+	c #7CA4D0",
"~+	c #6E96BF",
"{+	c #8694A1",
"]+	c #A6ABAF",
"^+	c #2A4E69",
"/+	c #858E97",
"(+	c #9CA4AA",
"_+	c #688FB8",
":+	c #7AA0CB",
"<+	c #7DA0CA",
"[+	c #88ABCF",
"}+	c #52667C",
"|+	c #516277",
"1+	c #859EBF",
"2+	c #92ADCB",
"3+	c #94AFCD",
"4+	c #96B2D1",
"5+	c #98AFCA",
"6+	c #97B4D6",
"7+	c #7E94AD",
"8+	c #20262E",
"9+	c #0D0E12",
"0+	c #526274",
"a+	c #8DABCB",
"b+	c #8CAACB",
"c+	c #88A7CA",
"d+	c #7EA1C8",
"e+	c #759BC7",
"f+	c #637D99",
"g+	c #B9B8B7",
"h+	c #415D6F",
"i+	c #213C51",
"j+	c #ABADAF",
"k+	c #708294",
"l+	c #759CC9",
"m+	c #7395BE",
"n+	c #7A9DC2",
"o+	c #86A9CA",
"p+	c #556879",
"q+	c #90AAC8",
"r+	c #96B2D2",
"s+	c #94AECB",
"t+	c #98B1CE",
"u+	c #99B4D3",
"v+	c #90A6BF",
"w+	c #485868",
"x+	c #13151A",
"y+	c #566B80",
"z+	c #84AAD4",
"A+	c #7CA2CD",
"B+	c #7FA2CA",
"C+	c #7EA0C8",
"D+	c #789DC9",
"E+	c #6587AC",
"F+	c #646F78",
"G+	c #254765",
"H+	c #31434F",
"I+	c #B8B9BA",
"J+	c #6F87A3",
"K+	c #4F6B86",
"L+	c #627B97",
"M+	c #84A2C2",
"N+	c #1D2229",
"O+	c #4F5F71",
"P+	c #94B2D2",
"Q+	c #92ACCA",
"R+	c #96AFCB",
"S+	c #98B0CB",
"T+	c #9BB0C8",
"U+	c #96AFCC",
"V+	c #98B1CC",
"W+	c #98AFCC",
"X+	c #445462",
"Y+	c #17212B",
"Z+	c #5286BE",
"`+	c #5090D8",
" @	c #578ECE",
".@	c #709ACA",
"+@	c #799BC2",
"@@	c #648CBA",
"#@	c #949BA1",
"$@	c #80888E",
"%@	c #254D6E",
"&@	c #5C666F",
"*@	c #BBBFC2",
"=@	c #6886A4",
"-@	c #6C92BA",
";@	c #25303D",
">@	c #445366",
",@	c #4F657C",
"'@	c #191C21",
")@	c #798FA7",
"!@	c #92ABC6",
"~@	c #96ADC9",
"{@	c #8FA3B9",
"]@	c #98ACC3",
"^@	c #98B0CC",
"/@	c #9AB0C9",
"(@	c #97AEC9",
"_@	c #88AAD0",
":@	c #70A3DA",
"<@	c #385474",
"[@	c #101A25",
"}@	c #366596",
"|@	c #4889D0",
"1@	c #4083CF",
"2@	c #5E8FC6",
"3@	c #6A91BC",
"4@	c #7D8A98",
"5@	c #9B9D9E",
"6@	c #676F75",
"7@	c #A8ADB3",
"8@	c #6180A3",
"9@	c #1A2029",
"0@	c #34404E",
"a@	c #28303C",
"b@	c #323C49",
"c@	c #8BA4C1",
"d@	c #8FA6BF",
"e@	c #99AEC7",
"f@	c #596A78",
"g@	c #90A3B9",
"h@	c #9CAFC6",
"i@	c #9AAFC7",
"j@	c #9CB0C8",
"k@	c #9CAEC5",
"l@	c #7DAADD",
"m@	c #75A8E0",
"n@	c #6E9ED5",
"o@	c #1B2A3C",
"p@	c #0B1118",
"q@	c #234E7B",
"r@	c #3A7FC7",
"s@	c #367CCC",
"t@	c #5186C1",
"u@	c #707E8A",
"v@	c #999CA0",
"w@	c #264A67",
"x@	c #212C38",
"y@	c #4B4F54",
"z@	c #557495",
"A@	c #6789AE",
"B@	c #1C242D",
"C@	c #10151B",
"D@	c #09090D",
"E@	c #586675",
"F@	c #91AAC5",
"G@	c #91A5BA",
"H@	c #2B3036",
"I@	c #8696A8",
"J@	c #9CADC0",
"K@	c #9DAFC2",
"L@	c #92B3D6",
"M@	c #87B3DF",
"N@	c #87B1E0",
"O@	c #7DAEE2",
"P@	c #79A9DF",
"Q@	c #6392C4",
"R@	c #25384D",
"S@	c #06080B",
"T@	c #142436",
"U@	c #2973C2",
"V@	c #2275D2",
"W@	c #2F4A60",
"X@	c #45494C",
"Y@	c #1F3040",
"Z@	c #54575A",
"`@	c #406891",
" #	c #648AB3",
".#	c #212E3B",
"+#	c #040204",
"@#	c #050609",
"##	c #70879F",
"$#	c #93A7BE",
"%#	c #90A5BB",
"&#	c #18191E",
"*#	c #59636E",
"=#	c #A3B5CE",
"-#	c #9CAFC4",
";#	c #9BBADF",
">#	c #94BBE5",
",#	c #91B9E6",
"'#	c #8EB6E5",
")#	c #87B0DD",
"!#	c #7BAADF",
"~#	c #74A6DE",
"{#	c #5E92CB",
"]#	c #2B4663",
"^#	c #090D14",
"/#	c #15385F",
"(#	c #1A6BC7",
"_#	c #34485D",
":#	c #3F4144",
"<#	c #213648",
"[#	c #606162",
"}#	c #225389",
"|#	c #4A81BE",
"1#	c #2C3946",
"2#	c #88A1BA",
"3#	c #8CA3BA",
"4#	c #92A5B9",
"5#	c #99ABC1",
"6#	c #49515C",
"7#	c #0D1014",
"8#	c #525B63",
"9#	c #7B92AA",
"0#	c #96B4D2",
"a#	c #9DBEE1",
"b#	c #9FC1E5",
"c#	c #9ABEE6",
"d#	c #88B2E2",
"e#	c #78A8DE",
"f#	c #6FA3DC",
"g#	c #5F9BDC",
"h#	c #305E8C",
"i#	c #08111F",
"j#	c #125098",
"k#	c #51606E",
"l#	c #43474C",
"m#	c #1C435D",
"n#	c #1C3951",
"o#	c #5F6469",
"p#	c #395670",
"q#	c #2172CC",
"r#	c #274A6D",
"s#	c #394554",
"t#	c #8AA0B8",
"u#	c #8AA2BA",
"v#	c #8FA4BA",
"w#	c #96A7BC",
"x#	c #8F9DAE",
"y#	c #606F7B",
"z#	c #383F46",
"A#	c #242A32",
"B#	c #323A42",
"C#	c #44505D",
"D#	c #62758B",
"E#	c #8EABCA",
"F#	c #97BCE7",
"G#	c #7EAADE",
"H#	c #70A3DC",
"I#	c #609CDC",
"J#	c #4076B0",
"K#	c #050B18",
"L#	c #103D70",
"M#	c #6A6F74",
"N#	c #35414C",
"O#	c #1C3E57",
"P#	c #4B565F",
"Q#	c #74787A",
"R#	c #1661B1",
"S#	c #2667B1",
"T#	c #111923",
"U#	c #567392",
"V#	c #829BB7",
"W#	c #899CAE",
"X#	c #90A4B9",
"Y#	c #98AAC1",
"Z#	c #A5BBD1",
"`#	c #B0CFED",
" $	c #B9D8F5",
".$	c #8FA8BF",
"+$	c #98ACC0",
"@$	c #9EB7D1",
"#$	c #8CA1B6",
"$$	c #8EA7C3",
"%$	c #9BBDE5",
"&$	c #82A2C6",
"*$	c #80AAD8",
"=$	c #77ACE6",
"-$	c #5891CD",
";$	c #254462",
">$	c #040F1D",
",$	c #29445F",
"'$	c #7A7A7B",
")$	c #293E51",
"!$	c #354C5E",
"~$	c #8C8E8E",
"{$	c #2C5A8A",
"]$	c #2372C9",
"^$	c #336090",
"/$	c #5C91CB",
"($	c #79A2CF",
"_$	c #87A8CD",
":$	c #97B3D5",
"<$	c #A2C1E3",
"[$	c #B0CDEC",
"}$	c #B8D2EC",
"|$	c #BFD6ED",
"1$	c #8496A6",
"2$	c #B0C4DA",
"3$	c #C2DCF5",
"4$	c #BDD7F0",
"5$	c #B0CEF0",
"6$	c #A3C5EB",
"7$	c #546B81",
"8$	c #2E3B4D",
"9$	c #3E5A77",
"0$	c #233548",
"a$	c #080A0F",
"b$	c #0D2F54",
"c$	c #6F8093",
"d$	c #61686F",
"e$	c #1D374E",
"f$	c #1A3950",
"g$	c #67727C",
"h$	c #949BA5",
"i$	c #205EA7",
"j$	c #3E87D8",
"k$	c #5692D4",
"l$	c #71A5DE",
"m$	c #86B4E3",
"n$	c #9ABFE9",
"o$	c #A9C9EC",
"p$	c #B8D3ED",
"q$	c #BFD8EF",
"r$	c #C8DDF2",
"s$	c #717E8B",
"t$	c #A4B3BC",
"u$	c #CCE2F7",
"v$	c #B7D3EE",
"w$	c #ACCAEC",
"x$	c #9BBBDF",
"y$	c #3C5065",
"z$	c #1C2736",
"A$	c #18293D",
"B$	c #174980",
"C$	c #4D7098",
"D$	c #ABA8A7",
"E$	c #213646",
"F$	c #173246",
"G$	c #234056",
"H$	c #B6B5B9",
"I$	c #69819E",
"J$	c #206EC2",
"K$	c #4D8CD2",
"L$	c #6EA1DB",
"M$	c #83AEDC",
"N$	c #9EC0E9",
"O$	c #C7DCF4",
"P$	c #D4E5F7",
"Q$	c #747D88",
"R$	c #68737E",
"S$	c #D6E6F4",
"T$	c #C4DBF2",
"U$	c #BAD6EF",
"V$	c #ACCAEB",
"W$	c #9CC0E9",
"X$	c #81ADDC",
"Y$	c #6194CC",
"Z$	c #3F80C9",
"`$	c #2866AC",
" %	c #B2B4B7",
".%	c #75787C",
"+%	c #183449",
"@%	c #4C606F",
"#%	c #D1D1D1",
"$%	c #5D7EA4",
"%%	c #2B70BC",
"&%	c #5B97D8",
"*%	c #79A8DE",
"=%	c #99BDE7",
"-%	c #AECBEB",
";%	c #C0D8EE",
">%	c #CBDEF4",
",%	c #DFEBF8",
"'%	c #B9C5CE",
")%	c #24262A",
"!%	c #717980",
"~%	c #CEDFF3",
"{%	c #C1D9F0",
"]%	c #97BDE7",
"^%	c #78A9DF",
"/%	c #5191D8",
"(%	c #3A72AE",
"_%	c #A8B2BC",
":%	c #94999C",
"<%	c #223A4F",
"[%	c #1F3C52",
"}%	c #626E77",
"|%	c #D5D9DD",
"1%	c #6482A2",
"2%	c #3477C1",
"3%	c #649CDC",
"4%	c #90B7E5",
"5%	c #A9C8E9",
"6%	c #D4E2F0",
"7%	c #DDE9F7",
"8%	c #E2EFFA",
"9%	c #ADB2B6",
"0%	c #9EA4A9",
"a%	c #8EB7E5",
"b%	c #5A95D8",
"c%	c #386DA9",
"d%	c #A9B3BA",
"e%	c #B8B9B8",
"f%	c #293D4C",
"g%	c #182F43",
"h%	c #1D3F56",
"i%	c #596672",
"j%	c #8B9DAD",
"k%	c #4874A5",
"l%	c #5F95CF",
"m%	c #8CB9E7",
"n%	c #BDD2EE",
"o%	c #D0E2F7",
"p%	c #E3EFF6",
"q%	c #EDF2F4",
"r%	c #EFF3F6",
"s%	c #E6F3FB",
"t%	c #D5E4F6",
"u%	c #BBD6F1",
"v%	c #8CB3DD",
"w%	c #5C8DC5",
"x%	c #6883A0",
"y%	c #BFC3C7",
"z%	c #989EA0",
"A%	c #283948",
"B%	c #18374E",
"C%	c #1E394E",
"D%	c #415667",
"E%	c #ABACAA",
"F%	c #C8CBCE",
"G%	c #7691AD",
"H%	c #5A7EA9",
"I%	c #85A8D2",
"J%	c #B4CEEB",
"K%	c #DFEAF6",
"L%	c #F1F8F9",
"M%	c #F2F8F8",
"N%	c #DFECF8",
"O%	c #B0C9E7",
"P%	c #7C9BBF",
"Q%	c #718BA7",
"R%	c #9EACBA",
"S%	c #CCCBCD",
"T%	c #777D82",
"U%	c #213A4D",
"V%	c #182F42",
"W%	c #1C374E",
"X%	c #485865",
"Y%	c #A8AAA9",
"Z%	c #BABBBA",
"`%	c #A3A8AE",
" &	c #A1ABB5",
".&	c #A6AEB5",
"+&	c #AEB2B5",
"@&	c #B3B4B7",
"#&	c #B0B5B8",
"$&	c #A9ACB0",
"%&	c #AFB0B2",
"&&	c #B7B8B7",
"*&	c #84898D",
"=&	c #243544",
"-&	c #183146",
";&	c #1A3347",
">&	c #253D50",
",&	c #455767",
"'&	c #60696F",
")&	c #7D8286",
"!&	c #999A9C",
"~&	c #9DA0A3",
"{&	c #9C9DA0",
"]&	c #8E9295",
"^&	c #6E7275",
"/&	c #525C65",
"(&	c #344655",
"_&	c #183245",
":&	c #162B3D",
"<&	c #19354B",
"[&	c #193951",
"}&	c #1C3B54",
"|&	c #14344A",
"                                                                ",
"                        . + @ # $ % & *                         ",
"                  = - ; > , ' ) ! ~ { ] ^ / (                   ",
"                _ : < [ } | 1 2 3 4 5 6 7 8 9 0                 ",
"            a b c d e f g h i j k l m n o p q r s t             ",
"          u v w x y z A B C D E F G H I J K L M N O P           ",
"        Q R S T U V W X Y Z `  ...+.@.#.$.%.&.*.=.-.;.>.        ",
"        ,.'.).!.~.{.W ].^./.(._.:.<.[.#.$.}.|.1.2.3.4.5.        ",
"      6.7.8.9.0.a.b.c.d.e.f.g.h.i.j.k.l.m.n.o.p.q.r.s.t.u.      ",
"    v.w.x.y.z.A.B.C.D.E.F.G.H.4 I.J.K.L.m.n.M.N.O.P.Q.R.S.T.    ",
"    U.V.W.X.Y.Z.`. +.+++@+#+$+%+&+*+=+-+;+>+,+'+)+!+~+{+]+^+    ",
"    /+(+_+:+<+O.[+}+|+1+2+3+4+5+6+7+8+9+0+a+b+c+2 d+e+f+g+h+    ",
"  i+j+k+l+m+n+o+p+..q+r+s+#+5+5+t+u+v+w+x+y+z+A+B+C+D+E+] F+G+  ",
"  H+I+J+l+K+L+M+N+O+P+Q+R+R+S+S+T+U+V+W+X+Y+Z+`+ @.@+@@@#@$@%@  ",
"  &@*@=@-@;@>@,@'@)@!@~@{@]@^@/@/@/@(@_@:@<@[@}@|@1@2@3@4@5@%@  ",
"  6@7@8@E+9@0@a@b@c@d@e@f@g@h@i@j@k@m.l@m@n@o@p@q@r@s@t@u@v@w@  ",
"  x@y@z@A@B@C@D@E@d@F@G@H@I@j@J@K@L@M@N@O@P@Q@R@S@T@U@V@W@X@*   ",
"  Y@Z@`@ #.#+#@###d@$#%#&#*#=#-#;#>#,#'#)#!#~#{#]#^#/#(#_#:#*   ",
"  <#[#}#|#1#+#*+2#3#4#5#6#7#8#9#0#a#b#c#'#d#e#f#g#h#i#j#k#l#m#  ",
"  n#o#p#q#r#+#s#t#u#v#w#x#y#z#A#B#C#D#E#F#l G#H#I#J#K#L#M#N#O#  ",
"    P#Q#R#S#T#U#V#W#X#Y#Z#`# $.$+$@$#$$$%$&$*$=$-$;$>$,$'$)$    ",
"    !$~${$]$^$/$($_$:$<$[$}$|$1$2$3$4$5$6$7$8$9$0$a$b$c$d$e$    ",
"    f$g$h$i$j$k$l$m$n$o$p$q$r$s$t$u$q$v$w$x$y$z$A$B$C$D$E$F$    ",
"      G$H$I$J$K$L$M$N$o$q$O$P$Q$R$S$T$U$V$W$X$Y$Z$`$ %.%+%      ",
"        @%#%$%%%&%*%=%-%;%>%,%'%)%!%~%{%-%]%^%/%(%_%:%<%        ",
"        [%}%|%1%2%3%4%5%;%6%7%8%9%0%~%{%5%a%b%c%d%e%f%g%        ",
"          h%i%, j%k%l%m%n%o%p%q%r%s%t%u%v%w%x%y%z%A%B%          ",
"            C%D%E%F%G%H%I%J%K%L%M%N%O%P%Q%R%S%T%U%V%            ",
"                W%X%Y%Z%`% &.&+&@&#&$&%&&&*&=&-&                ",
"                  ;&>&,&'&)&!&~&{&]&^&/&(&_&:&                  ",
"                        <&[&}&}&}&W%[&|&                        ",
"                                                                "};
