/* XPM */
static char*zip[]={
"32 32 29 1",
"f c #60cfff",
"r c #909090",
"j c #003060",
"y c #ff6000",
"g c #9fcfff",
"A c #c0dfc0",
"z c #00309f",
"q c #9f3000",
"d c #30cfcf",
"p c #ff9f00",
"s c #000000",
"k c #a0cff0",
"e c #60cfcf",
"t c #101010",
"o c #300000",
"# c #003030",
"u c #202020",
"i c #9fcfcf",
"n c #cfefff",
"m c #60ffff",
"v c #ffff00",
"w c #404040",
"b c #009fcf",
". c None",
"c c #309fcf",
"x c #606060",
"a c #00609f",
"l c #ffffff",
"h c #609fcf",
"......##############............",
".....#abbcdeefgggeeh#...........",
"....#abbbcdeefggggegi#######....",
"....jjjjjjjjjjjjjj#kllmngdbb#...",
"...................onlmngdbb#...",
"..oooooooooooooooo..#lllgebb#...",
".oppppppppppppppoo...#######....",
"oppppppppppppppoqo....rssss.....",
"oooooooooooooooqqo...tttttu.....",
"ovvvvvvvvvvvvvoqqo...wwwxx......",
"ovyyyyyyyyyyovoqqo....#ne#......",
"ovyvvvvvvvvvovoqqo....rssso.....",
"ovyvvsssssvvovoqqo...tttttu.....",
"ovyvvvvvvvvvovoqqo...wwwxx......",
"ovooooooooooovoqqo....#ne#......",
"ovvvvvvvvvvvvvoqqo....rssss.....",
"ovyyyyyyyyyyovoqqo...tttttu.....",
"ovyvvvvvvvvvovoqqo...wwwxx......",
"ovyvvsssssvvovoqqo....#ne#......",
"ovyvvvvvvvvvovoqqo....#ssss.....",
"ovooooooooooovoqo.....tttju.....",
"ovvvvvvvvvvvvvoo....########....",
"ooooooooooooooo....#llmnecbb#...",
"..................#knnknecbb#...",
"....##############eegkgnecbb#...",
"....#zbbbcdeegknkedc########....",
".....#abbcddefknkec#..#ec#......",
"......#############...####......",
"...............#....##nAdb##..#.",
"..............og#####llgdbb###g#",
"..............#l#...#llkecb#.#l#",
"...............#....j######j..#."};
