/* XPM */
static char * delphi16_xpm[] = {
"16 16 30 1",
" 	c None",
".	c #404040",
"+	c #808080",
"@	c #E0E0E0",
"#	c #BFBFBF",
"$	c #A0A0A0",
"%	c #B0B0B0",
"&	c #707070",
"*	c #A0A040",
"=	c #808040",
"-	c #707030",
";	c #808000",
">	c #202000",
",	c #000000",
"'	c #404000",
")	c #606000",
"!	c #404020",
"~	c #606020",
"{	c #303030",
"]	c #BFBF40",
"^	c #BFBF80",
"/	c #2B2B00",
"(	c #204020",
"_	c #606040",
":	c #60A0A0",
"<	c #EFEFEF",
"[	c #FFFFFF",
"}	c #A0C0C0",
"|	c #305050",
"1	c #2B2B2B",
"   .++++++++.   ",
"   +@@@@@@@@+#  ",
"   +@@@@@@@@.+. ",
"   +@@$%@@@@@@& ",
"   +$+*=-%@@@@&+",
"   .*;>,';-%@@&+",
" ,.)!~~~~)''{%&+",
",]=+]^==*]=+*&&+",
" /;;({;;{(;;_@&+",
"  ))::))::))@@&+",
"  =)<:))::))@@&+",
"  =)[<=)::))@@&+",
"  =)[[=)}:=)@@&+",
"  '>++'>+|'>%@&+",
" ,;;'';;'';;,..+",
",+++++++++++.1++"};
