/* XPM */
static char * ethereal16_xpm[] = {
"16 16 197 2",
"  	c None",
". 	c #C5C9C5",
"+ 	c #949994",
"@ 	c #7D817C",
"# 	c #787C77",
"$ 	c #858885",
"% 	c #AAACAA",
"& 	c #D5D9D5",
"* 	c #9A9E99",
"= 	c #ADABA9",
"- 	c #CEC8C7",
"; 	c #D7CFCD",
"> 	c #D0C8C3",
", 	c #BDB5AD",
"' 	c #98958C",
") 	c #6F726C",
"! 	c #A0A2A0",
"~ 	c #C5CAC5",
"{ 	c #A9A9A7",
"] 	c #E2DEDE",
"^ 	c #DED9DA",
"/ 	c #9C9699",
"( 	c #726A6F",
"_ 	c #6F6669",
": 	c #8E8583",
"< 	c #BFB6AD",
"[ 	c #B7B0A3",
"} 	c #82837A",
"| 	c #828482",
"1 	c #CDD1CD",
"2 	c #A6A7A4",
"3 	c #E7E3E3",
"4 	c #A9A5A9",
"5 	c #231D29",
"6 	c #373039",
"7 	c #675F64",
"8 	c #635A5D",
"9 	c #352C2E",
"0 	c #807772",
"a 	c #BEB6AA",
"b 	c #B1AC9D",
"c 	c #7F8178",
"d 	c #999A99",
"e 	c #8E918C",
"f 	c #DFDADB",
"g 	c #A8A3A7",
"h 	c #1B1521",
"i 	c #A8A2A4",
"j 	c #EDE6E3",
"k 	c #E2DAD6",
"l 	c #D7CEC9",
"m 	c #CDC4BD",
"n 	c #C5BCB3",
"o 	c #B5AEA0",
"p 	c #A4A294",
"q 	c #656964",
"r 	c #BEC1BE",
"s 	c #A9A6A4",
"t 	c #DAD4D4",
"u 	c #231D27",
"v 	c #A6A0A2",
"w 	c #F1E9E6",
"x 	c #EAE2DE",
"y 	c #DFD6D1",
"z 	c #9C9390",
"A 	c #3B3233",
"B 	c #786F69",
"C 	c #BCB5A8",
"D 	c #B4AEA0",
"E 	c #A8A597",
"F 	c #868980",
"G 	c #979897",
"H 	c #8E928E",
"I 	c #C9C2C0",
"J 	c #999194",
"K 	c #362E37",
"L 	c #E8E0DD",
"M 	c #E7DEDB",
"N 	c #A69D9B",
"O 	c #3B3235",
"P 	c #180F12",
"Q 	c #645B58",
"R 	c #B3ABA0",
"S 	c #BAB2A5",
"T 	c #B2AD9E",
"U 	c #A8A596",
"V 	c #93948A",
"W 	c #707370",
"X 	c #787B77",
"Y 	c #D1C8C4",
"Z 	c #6F676A",
"` 	c #645C60",
" .	c #C3BBB8",
"..	c #3D3438",
"+.	c #191014",
"@.	c #685F5E",
"#.	c #BAB1A8",
"$.	c #C2BAAF",
"%.	c #BDB5A8",
"&.	c #B7B0A2",
"*.	c #AFAA9C",
"=.	c #A6A395",
"-.	c #94958A",
";.	c #616461",
">.	c #737772",
",.	c #CAC1B9",
"'.	c #6C6364",
").	c #615859",
"!.	c #B9B0AC",
"~.	c #716766",
"{.	c #BDB4AD",
"].	c #C8BFB5",
"^.	c #C3BAAF",
"/.	c #BEB6A9",
"(.	c #B8B1A4",
"_.	c #B3AD9E",
":.	c #ACA899",
"<.	c #A2A092",
"[.	c #909188",
"}.	c #626561",
"|.	c #808480",
"1.	c #B7B0A5",
"2.	c #8B827D",
"3.	c #32292A",
"4.	c #C9C0B7",
"5.	c #C7BEB5",
"6.	c #C5BCB2",
"7.	c #C1B9AD",
"8.	c #BDB5A9",
"9.	c #B9B2A4",
"0.	c #B4AE9F",
"a.	c #AEA99B",
"b.	c #A7A496",
"c.	c #9D9C8F",
"d.	c #8D8F87",
"e.	c #707270",
"f.	c #A5A8A5",
"g.	c #949288",
"h.	c #B8B0A5",
"i.	c #211817",
"j.	c #887F78",
"k.	c #C0B8AC",
"l.	c #BBB3A6",
"m.	c #B7B1A3",
"n.	c #B3AD9F",
"o.	c #AFAA9B",
"p.	c #A9A597",
"q.	c #A19F92",
"r.	c #95968B",
"s.	c #868982",
"t.	c #929492",
"u.	c #6C6F69",
"v.	c #B1AB9D",
"w.	c #867F74",
"x.	c #1A120F",
"y.	c #827B71",
"z.	c #ADA99A",
"A.	c #99998D",
"B.	c #8C8D85",
"C.	c #6B6E6A",
"D.	c #9C9E9C",
"E.	c #808179",
"F.	c #ABA799",
"G.	c #7F7A6E",
"H.	c #1E1913",
"I.	c #2D2821",
"J.	c #524E44",
"K.	c #504D43",
"L.	c #2C2922",
"M.	c #68665C",
"N.	c #98988D",
"O.	c #868983",
"P.	c #919291",
"Q.	c #7F817F",
"R.	c #7D8078",
"S.	c #9E9D91",
"T.	c #9E9C8E",
"U.	c #716F64",
"V.	c #545249",
"W.	c #525149",
"X.	c #6A6A61",
"Y.	c #8F9086",
"Z.	c #8B8D85",
"`.	c #868984",
" +	c #777977",
".+	c #646863",
"++	c #85877F",
"@+	c #909288",
"#+	c #919288",
"$+	c #8E8F86",
"%+	c #898C85",
"&+	c #6C706B",
"*+	c #909290",
"=+	c #959795",
"-+	c #616561",
";+	c #636763",
">+	c #929392",
"          . + @ # $ %           ",
"      & * = - ; > , ' ) !       ",
"    ~ { ] ^ / ( _ : < [ } |     ",
"  1 2 3 4 5 6 7 8 9 0 a b c d   ",
"  e f g h i j k l m n a o p q   ",
"r s t u v w x y z A B C D E F G ",
"H I J K L M N O P Q R S T U V W ",
"X Y Z `  ...+.@.#.$.%.&.*.=.-.;.",
">.,.'.).!.~.{.].^./.(._.:.<.[.}.",
"|.1.2.3.4.5.6.7.8.9.0.a.b.c.d.e.",
"f.g.h.i.j.k.a l.m.n.o.p.q.r.s.t.",
"  u.v.w.x.y.&.o b z.U <.A.B.C.  ",
"  D.E.F.G.H.I.J.K.L.M.N.B.O.P.  ",
"    Q.R.S.T.U.V.W.X.Y.Z.`. +    ",
"      G .+++@+#+$+d.%+&+*+      ",
"          =+e.-+;+W >+          "};
