/* XPM */
static char * find_xpm[] = {
"27 26 29 1",
" 	c None",
".	c #D5CEC5",
"+	c #949194",
"@	c #838183",
"#	c #525052",
"$	c #FFF2EE",
"%	c #BDBEBD",
"&	c #E6E2D5",
"*	c #E6E2E6",
"=	c #737173",
"-	c #94CEFF",
";	c #292C29",
">	c #4A4C4A",
",	c #6261FF",
"'	c #CDFFFF",
")	c #94FFFF",
"!	c #29FFFF",
"~	c #CDFFCD",
"{	c #181C18",
"]	c #CDCECD",
"^	c #CDEEFF",
"/	c #626162",
"(	c #000062",
"_	c #ACAEAC",
":	c #0061FF",
"<	c #000000",
"[	c #0091FF",
"}	c #00FFFF",
"|	c #002C94",
"...........................",
".......+@@@@@@@@@@@@.......",
"......#+$$$$$$$$$$$@.......",
".....#%+$$$$$$$$$&&@.......",
"....#%&+$$$$$$$*&=====@....",
"...#%&$+$$$$$*&==-----==...",
"..;;;;>>$$*&&&==,++'&%)-=..",
"..#==+%&$$++++=-''''&%$'-@.",
"..#=+%&$$$*&+=@!!!!~&%$*'=.",
"..#+%&&&&&&&+=-++++'&%$$'=.",
"..#%&$+++++++{-!!!!'&%$''=.",
"..#%$$&&&&&&+{]++++~&%*''=.",
"..#]$$+++++++{--!!!'&%^*-=.",
"..#]$$&&&&&&+{=-,++'&%~)=..",
"..#]$$++++++@/{=-]~'&%)-=..",
"..#]$$&&&&]@(/_{=-----==...",
"..#]$$++++@(:<_$/{{{{=.....",
"..#]$$$&]@(:[}</]]+=.......",
"..#]$$&]=(:[}[|&&&&=.......",
"..#]$&]@(:[}[|$$$$$=.......",
"..#]&]@(:[}[|$$$$$$=.......",
"..#++@(:[}[|]]]]]]]=.......",
"..>##(:[}[|########=.......",
".....(:[[|.................",
"......|||..................",
"..........................."};
