/* XPM */
static char * gtksozluk2_xpm[] = {
"32 32 394 2",
"  	c None",
". 	c #000000",
"+ 	c #302022",
"@ 	c #483032",
"# 	c #4C2E2F",
"$ 	c #52302F",
"% 	c #623334",
"& 	c #7C3A3E",
"* 	c #8A383D",
"= 	c #9E3F41",
"- 	c #4F1011",
"; 	c #120102",
"> 	c #523B3C",
", 	c #4A3234",
"' 	c #513A3A",
") 	c #6F484E",
"! 	c #804B4E",
"~ 	c #8C404A",
"{ 	c #873A3C",
"] 	c #904045",
"^ 	c #9A3A3E",
"/ 	c #9E3B3E",
"( 	c #9A2F34",
"_ 	c #922128",
": 	c #88171E",
"< 	c #821418",
"[ 	c #761714",
"} 	c #610C0E",
"| 	c #1B0003",
"1 	c #928181",
"2 	c #B68081",
"3 	c #C16E71",
"4 	c #B35A57",
"5 	c #AC444C",
"6 	c #A83C47",
"7 	c #A13C48",
"8 	c #9F3437",
"9 	c #9B3133",
"0 	c #982D2E",
"a 	c #97262B",
"b 	c #932328",
"c 	c #911D24",
"d 	c #881E23",
"e 	c #831C21",
"f 	c #7F161C",
"g 	c #7A1419",
"h 	c #730D11",
"i 	c #45050A",
"j 	c #0E0000",
"k 	c #A97D81",
"l 	c #D49DA9",
"m 	c #D095A2",
"n 	c #CA6472",
"o 	c #BE5B5E",
"p 	c #AF3941",
"q 	c #A43D43",
"r 	c #A03941",
"s 	c #9A3032",
"t 	c #96252D",
"u 	c #93232D",
"v 	c #872229",
"w 	c #832027",
"x 	c #831A21",
"y 	c #791318",
"z 	c #780E12",
"A 	c #550509",
"B 	c #1A0101",
"C 	c #AE6971",
"D 	c #D17B7E",
"E 	c #D49A9E",
"F 	c #D99197",
"G 	c #D26A7D",
"H 	c #C35760",
"I 	c #AF4146",
"J 	c #A33D43",
"K 	c #A03A43",
"L 	c #9F3438",
"M 	c #9B3137",
"N 	c #982C39",
"O 	c #932933",
"P 	c #8C262E",
"Q 	c #88232A",
"R 	c #851E25",
"S 	c #851A20",
"T 	c #831016",
"U 	c #7D0E13",
"V 	c #760D0A",
"W 	c #6D0A0A",
"X 	c #340304",
"Y 	c #0C0001",
"Z 	c #D08387",
"` 	c #D1838A",
" .	c #D9959C",
"..	c #D89A9F",
"+.	c #CB7479",
"@.	c #BF5F62",
"#.	c #AE3D43",
"$.	c #A33D46",
"%.	c #A03946",
"&.	c #9F3441",
"*.	c #963239",
"=.	c #942D34",
"-.	c #93252C",
";.	c #8E2228",
">.	c #8F1A21",
",.	c #8B181F",
"'.	c #83161A",
").	c #7B1815",
"!.	c #780F11",
"~.	c #760B0F",
"{.	c #6B090D",
"].	c #490207",
"^.	c #040000",
"/.	c #A6676D",
"(.	c #D5848B",
"_.	c #D68785",
":.	c #D37F84",
"<.	c #D38F94",
"[.	c #D4A9A0",
"}.	c #D37E83",
"|.	c #C06167",
"1.	c #B24752",
"2.	c #A43C49",
"3.	c #9E3A44",
"4.	c #9C3233",
"5.	c #992F30",
"6.	c #97282C",
"7.	c #95242A",
"8.	c #911F25",
"9.	c #8F1B22",
"0.	c #821D1F",
"a.	c #82181C",
"b.	c #7A151B",
"c.	c #781014",
"d.	c #760A10",
"e.	c #70090E",
"f.	c #58070C",
"g.	c #210203",
"h.	c #503232",
"i.	c #C08088",
"j.	c #D3898E",
"k.	c #D48A8C",
"l.	c #CF838A",
"m.	c #D1929A",
"n.	c #D6A0A8",
"o.	c #CD818A",
"p.	c #C85C65",
"q.	c #B3434F",
"r.	c #A13B43",
"s.	c #A0353A",
"t.	c #982E30",
"u.	c #94232B",
"v.	c #8E2029",
"w.	c #842128",
"x.	c #821D24",
"y.	c #81171D",
"z.	c #780F12",
"A.	c #6C0A0A",
"B.	c #5E0806",
"C.	c #320103",
"D.	c #412428",
"E.	c #B37077",
"F.	c #D18B90",
"G.	c #D18B8C",
"H.	c #CF868C",
"I.	c #D18386",
"J.	c #D59A9C",
"K.	c #D08D8F",
"L.	c #C36D6A",
"M.	c #B45052",
"N.	c #A03C43",
"O.	c #A0363B",
"P.	c #9C3237",
"Q.	c #992F3A",
"R.	c #952933",
"S.	c #8F2830",
"T.	c #89242B",
"U.	c #852229",
"V.	c #851A21",
"W.	c #82161C",
"X.	c #7F0D14",
"Y.	c #790C0C",
"Z.	c #700B0A",
"`.	c #71110F",
" +	c #731818",
".+	c #58181D",
"++	c #240D0E",
"@+	c #3D2426",
"#+	c #C6757C",
"$+	c #D58688",
"%+	c #D48788",
"&+	c #D0838A",
"*+	c #CF7F7C",
"=+	c #D19F9A",
"-+	c #C99B94",
";+	c #C46D6E",
">+	c #B44851",
",+	c #A23C47",
"'+	c #A03542",
")+	c #9A333C",
"!+	c #942F36",
"~+	c #932A32",
"{+	c #902329",
"]+	c #8B1F25",
"^+	c #8A171E",
"/+	c #841418",
"(+	c #811415",
"_+	c #852622",
":+	c #852F31",
"<+	c #8E3A40",
"[+	c #894043",
"}+	c #512224",
"|+	c #1F0C0D",
"1+	c #3D2024",
"2+	c #B36768",
"3+	c #D28E8B",
"4+	c #D28C88",
"5+	c #CE888B",
"6+	c #CA807D",
"7+	c #D09598",
"8+	c #D19E9B",
"9+	c #C86D79",
"0+	c #BE535F",
"a+	c #A33C46",
"b+	c #9A3439",
"c+	c #96282C",
"d+	c #942529",
"e+	c #91282D",
"f+	c #95262C",
"g+	c #952E31",
"h+	c #974144",
"i+	c #7F3D3A",
"j+	c #793334",
"k+	c #64323B",
"l+	c #403235",
"m+	c #584F50",
"n+	c #686767",
"o+	c #3B2021",
"p+	c #BF727C",
"q+	c #D88585",
"r+	c #D29087",
"s+	c #CF8487",
"t+	c #CE7A7C",
"u+	c #CE868C",
"v+	c #D29A9E",
"w+	c #CC7F86",
"x+	c #B95B63",
"y+	c #A13D43",
"z+	c #9A3739",
"A+	c #A43F42",
"B+	c #A64A4E",
"C+	c #8C3D3F",
"D+	c #581B1D",
"E+	c #491E20",
"F+	c #543F3F",
"G+	c #605656",
"H+	c #777071",
"I+	c #8D8C8C",
"J+	c #9E9E9E",
"K+	c #555555",
"L+	c #27191B",
"M+	c #A16664",
"N+	c #D38690",
"O+	c #D2888D",
"P+	c #D08087",
"Q+	c #D0757E",
"R+	c #CD767C",
"S+	c #D19A96",
"T+	c #CA8180",
"U+	c #AC5D65",
"V+	c #763C41",
"W+	c #4C262C",
"X+	c #2A1818",
"Y+	c #312C2C",
"Z+	c #5B5B5B",
"`+	c #696969",
" @	c #767676",
".@	c #818181",
"+@	c #919191",
"@@	c #999999",
"#@	c #ACACAC",
"$@	c #757575",
"%@	c #28191B",
"&@	c #B06B74",
"*@	c #D7818C",
"=@	c #D5828A",
"-@	c #D57C87",
";@	c #CB7777",
">@	c #C57273",
",@	c #BF7E81",
"'@	c #634445",
")@	c #322D2D",
"!@	c #383838",
"~@	c #4A4A4A",
"{@	c #585858",
"]@	c #656565",
"^@	c #858585",
"/@	c #8F8F8F",
"(@	c #A5A5A5",
"_@	c #AEAEAE",
":@	c #B7B7B7",
"<@	c #B6B6B6",
"[@	c #262526",
"}@	c #271717",
"|@	c #9D5D5B",
"1@	c #D2858E",
"2@	c #D1888C",
"3@	c #CC848F",
"4@	c #CA777A",
"5@	c #A56C6D",
"6@	c #504143",
"7@	c #414241",
"8@	c #4C4D4C",
"9@	c #575A58",
"0@	c #5B635E",
"a@	c #808181",
"b@	c #A0A0A0",
"c@	c #A6A6A6",
"d@	c #B0B0B0",
"e@	c #BCBCBC",
"f@	c #B6ACAC",
"g@	c #A98585",
"h@	c #723534",
"i@	c #100404",
"j@	c #231415",
"k@	c #AC6670",
"l@	c #D58183",
"m@	c #D28593",
"n@	c #CC8186",
"o@	c #A05C62",
"p@	c #4D403F",
"q@	c #515553",
"r@	c #5D625F",
"s@	c #6B6D6B",
"t@	c #7C7D7C",
"u@	c #8E908F",
"v@	c #969897",
"w@	c #A1A3A2",
"x@	c #B2B2B2",
"y@	c #A39695",
"z@	c #7A5859",
"A@	c #602B2B",
"B@	c #5A0D0F",
"C@	c #3F0304",
"D@	c #0E0101",
"E@	c #1C1213",
"F@	c #8B5257",
"G@	c #D57E8E",
"H@	c #CF879E",
"I@	c #A65D62",
"J@	c #564547",
"K@	c #646464",
"L@	c #727272",
"M@	c #767877",
"N@	c #808381",
"O@	c #898F8C",
"P@	c #868883",
"Q@	c #706969",
"R@	c #58574B",
"S@	c #1A0000",
"T@	c #210100",
"U@	c #1E0001",
"V@	c #030000",
"W@	c #180D0D",
"X@	c #995661",
"Y@	c #CF8498",
"Z@	c #AA5E6A",
"`@	c #5E4E4F",
" #	c #6E6E6E",
".#	c #7F7F7F",
"+#	c #8E8E8E",
"@#	c #7A7878",
"##	c #41423B",
"$#	c #413528",
"%#	c #150000",
"&#	c #270703",
"*#	c #080000",
"=#	c #010000",
"-#	c #1B0C0D",
";#	c #874C51",
">#	c #A7565F",
",#	c #5F5352",
"'#	c #616060",
")#	c #434343",
"!#	c #050202",
"~#	c #090503",
"{#	c #1E0C07",
"]#	c #270200",
"^#	c #190E0E",
"/#	c #6E3737",
"(#	c #2F1F1D",
"_#	c #070606",
":#	c #0D0201",
"<#	c #020000",
"                                                                ",
"                                                                ",
"                                                                ",
"                                                                ",
"                                                                ",
"                            .                                   ",
"                + @ # $ % & * = - ;                             ",
"    > , ' ) ! ~ { ] ^ / ( _ : < [ } |                           ",
"  1 2 3 4 5 6 7 8 9 0 a b c d e f g h i j                       ",
"  k l m n o p q r 8 s 0 t u v w x f y z A B                     ",
"  C D E F G H I J K L M N O P Q R S T U V W X Y                 ",
"  C Z `  ...+.@.#.$.%.&.*.=.-.;.>.,.'.).!.~.{.].^.              ",
"  /.(._.:.<.[.}.|.1.2.3.4.5.6.7.8.9.0.a.b.c.d.e.f.g.            ",
"  h.i.j.k.l.m.n.o.p.q.r.s.4.t.6.u.v.w.x.y.b.z.d.A.B.C.^.        ",
"    D.E.F.G.H.I.J.K.L.M.N.O.P.Q.R.S.T.U.V.W.X.Y.Z.`. +.+++      ",
"      @+#+$+%+&+*+=+-+;+>+,+'+)+!+~+{+]+^+/+(+_+:+<+[+}+|+.     ",
"        1+2+3+4+5+6+7+8+9+0+a+b+c+d+e+f+g+h+i+j+k+l+m+n+.       ",
"          o+p+q+r+s+t+u+v+w+x+y+z+A+B+C+D+E+F+G+H+I+J+K+.       ",
"            L+M+N+O+P+Q+R+S+T+U+V+W+X+Y+Z+`+ @.@+@@@#@$@.       ",
"              %@&@*@=@-@;@>@,@'@)@!@~@{@]@$@^@/@(@_@:@<@[@      ",
"                }@|@1@2@3@4@5@6@7@8@9@0@a@+@b@c@d@e@f@g@h@i@    ",
"                  j@k@l@m@n@o@p@q@r@s@t@u@v@w@x@y@z@A@B@C@D@    ",
"                    E@F@G@H@I@J@K@L@M@N@O@P@Q@R@S@T@U@V@        ",
"                      W@X@Y@Z@`@ #.#+#@###$#%#&#*#=#            ",
"                        -#;#>#,#'#)#!#~#{#]#                    ",
"                          ^#/#(#_#. . :#%#                      ",
"                            <#<#.                               ",
"                                                                ",
"                                                                ",
"                                                                ",
"                                                                ",
"                                                                "};
