/* XPM */
static char * gtksozluk216_xpm[] = {
"16 16 111 2",
"  	c None",
". 	c #4E3638",
"+ 	c #604144",
"@ 	c #86464C",
"# 	c #643235",
"$ 	c #763536",
"% 	c #822F34",
"& 	c #8C282D",
"* 	c #4E0D0D",
"= 	c #9E7F81",
"- 	c #C7888F",
"; 	c #BA575D",
"> 	c #A73C45",
", 	c #9E3438",
"' 	c #982C2E",
") 	c #93222A",
"! 	c #851F25",
"~ 	c #7F161C",
"{ 	c #6A0D11",
"] 	c #2A0203",
"^ 	c #AE6971",
"/ 	c #D2878B",
"( 	c #D78A94",
"_ 	c #BF5B60",
": 	c #A53C44",
"< 	c #9E343E",
"[ 	c #952D36",
"} 	c #8D242B",
"| 	c #891A21",
"1 	c #801316",
"2 	c #740C0D",
"3 	c #3D0406",
"4 	c #7B4C50",
"5 	c #D0858A",
"6 	c #D2878C",
"7 	c #D49699",
"8 	c #C2616A",
"9 	c #A63D48",
"0 	c #9C3234",
"a 	c #97282C",
"b 	c #901F27",
"c 	c #821D22",
"d 	c #7B141A",
"e 	c #750B10",
"f 	c #510708",
"g 	c #1B0002",
"h 	c #663D42",
"i 	c #CF8488",
"j 	c #D18589",
"k 	c #D19190",
"l 	c #C17170",
"m 	c #A63E46",
"n 	c #9C323C",
"o 	c #932A33",
"p 	c #8A2228",
"q 	c #85171D",
"r 	c #801516",
"s 	c #7D2122",
"t 	c #692427",
"u 	c #160809",
"v 	c #64383A",
"w 	c #CF8485",
"x 	c #CE8786",
"y 	c #CF8D8F",
"z 	c #C9767F",
"A 	c #A64249",
"B 	c #9A3134",
"C 	c #96353A",
"D 	c #732A2C",
"E 	c #6B4141",
"F 	c #6A585B",
"G 	c #6D6A6A",
"H 	c #000000",
"I 	c #503333",
"J 	c #CB7E87",
"K 	c #D27D86",
"L 	c #CC7E7F",
"M 	c #A6686B",
"N 	c #4B3234",
"O 	c #3F3A3A",
"P 	c #686868",
"Q 	c #838383",
"R 	c #9F9F9F",
"S 	c #A4A4A4",
"T 	c #131213",
"U 	c #4D2D2D",
"V 	c #C97D83",
"W 	c #CD8088",
"X 	c #785254",
"Y 	c #4F5250",
"Z 	c #666A67",
"` 	c #8D8E8E",
" .	c #A6A7A6",
"..	c #A29696",
"+.	c #865A5B",
"@.	c #340F0F",
"#.	c #402628",
"$.	c #C37889",
"%.	c #815458",
"&.	c #717171",
"*.	c #808080",
"=.	c #64645C",
"-.	c #41322E",
";.	c #110000",
">.	c #100000",
",.	c #3E2224",
"'.	c #694041",
").	c #2B2A2A",
"!.	c #070202",
"~.	c #1E0502",
"{.	c #020000",
"                                ",
"                                ",
"                                ",
"  . + @ # $ % & *               ",
"= - ; > , ' ) ! ~ { ]           ",
"^ / ( _ : < [ } | 1 2 3         ",
"4 5 6 7 8 9 0 a b c d e f g     ",
"  h i j k l m n o p q r s t u   ",
"    v w x y z A B C D E F G H   ",
"      I J K L M N O P Q R S T   ",
"        U V W X Y Z `  ...+.@.  ",
"          #.$.%.&.*.=.-.;.>.    ",
"            ,.'.).!.~.          ",
"              {.                ",
"                                ",
"                                "};
