/* XPM */
static char *help_xpm[] = {
/* width height num_colors chars_per_pixel */
"    32    32       28            1",
/* colors */
". c #000000",
"# c None",
"a c #2f002f",
"b c #5f5f5f",
"c c #60002f",
"d c #600060",
"e c #606060",
"f c #707070",
"g c #7f007f",
"h c #808080",
"i c #900090",
"j c #902f60",
"k c #90602f",
"l c #906060",
"m c #90902f",
"n c #909090",
"o c #afa08f",
"p c #afafaf",
"q c #bfbfbf",
"r c #cf0090",
"s c #cf00cf",
"t c #cf6060",
"u c #cf902f",
"v c #d0008f",
"w c #e0e0d0",
"x c #ff90ff",
"y c #ffcf00",
"z c #ffff00",
/* pixels */
"################################",
"################################",
"################################",
"################################",
"################################",
"###############ag###############",
"#############adsxg##############",
"###########adiissxg#############",
"#########adgiisissxg############",
"#######.ddgiijlutjsxg###########",
"#####.ddgggdmyzzzytsxg##########",
"#####.dgggdkzydddtsssxg#########",
"######.dggdkzjiiirssssxg########",
"######g.dggduzzzykissssxg#######",
"######gb.gggddkkuzysssssxg######",
"#####.gbb.ggigddddsssisssxg#####",
"#####.gbfe.ggigigiuzusissggg####",
"######.ghhe.ggigidddiisggncg####",
"#######.gnhe.ggigigiiggnqndg####",
"########.gnhe.ggigiggnoqqndg####",
"#########.gonf.ggddnqwwwwncg####",
"##########.goon.dhpwwwwqvgg#####",
"###########.goonqwwwwqvgg#######",
"############.gqqwwwqvgg#########",
"#############.gqwqrgg###########",
"##############.gvgd#############",
"###############.d###############",
"################################",
"################################",
"################################",
"################################",
"################################"
};
