/* XPM */
static char * minimize_xpm[] = {
"16 16 20 1",
" 	c None",
".	c #FFFFFF",
"+	c #FF5152",
"@	c #CE3000",
"#	c #CE9E00",
"$	c #FF9ECE",
"%	c #9C0000",
"&	c #009ECE",
"*	c #00619C",
"=	c #ADAE94",
"-	c #FFCF00",
";	c #9C6100",
">	c #000000",
",	c #63CFFF",
"'	c #CECF9C",
")	c #FFFFCE",
"!	c #FFFF9C",
"~	c #31619C",
"{	c #949694",
"]	c #9C9E63",
"............+@..",
"...........#$%..",
"&&&&*=====#-;>=>",
"&,&*'..).#!;>&*>",
"&&*'..))#-;>~,*>",
"&*'.{{{#!;>=)~*>",
"*'..{.#-;>=)''~>",
"=..){.];>>)')={>",
"=.)){.>.)>')='{>",
"=))){...)>)''={>",
"=))){...)>''='{>",
"&))){))))>'='=~>",
"&&))>>>>>>='=~~>",
"&,&))')''='=~,~>",
"***&{{{{{{{~~~~>",
">>>>>>>>>>>>>>>>"};
