/* XPM */
static char * mozilla_xpm[] = {
"32 32 229 2",
"  	c None",
". 	c #201A1A",
"+ 	c #020000",
"@ 	c #000000",
"# 	c #0D0D0D",
"$ 	c #070404",
"% 	c #240B08",
"& 	c #300B07",
"* 	c #360D08",
"= 	c #2A0B07",
"- 	c #190806",
"; 	c #080808",
"> 	c #1C1B1A",
", 	c #1C1414",
"' 	c #040101",
") 	c #0E0302",
"! 	c #69190F",
"~ 	c #BD2D1C",
"{ 	c #D7331F",
"] 	c #E23621",
"^ 	c #CA301E",
"/ 	c #AA2919",
"( 	c #47110A",
"_ 	c #150503",
": 	c #51140C",
"< 	c #811F13",
"[ 	c #8D2215",
"} 	c #40120C",
"| 	c #161616",
"1 	c #080201",
"2 	c #2E0B07",
"3 	c #B92C1B",
"4 	c #DC3520",
"5 	c #A02617",
"6 	c #4A120B",
"7 	c #3D0F09",
"8 	c #932315",
"9 	c #A22718",
"0 	c #A72818",
"a 	c #6E1A10",
"b 	c #1A0604",
"c 	c #230805",
"d 	c #040201",
"e 	c #050505",
"f 	c #210805",
"g 	c #B02A1A",
"h 	c #BE2D1C",
"i 	c #1B0704",
"j 	c #842013",
"k 	c #DA3420",
"l 	c #B42B1B",
"m 	c #60170E",
"n 	c #310C07",
"o 	c #59150D",
"p 	c #751E13",
"q 	c #180705",
"r 	c #010000",
"s 	c #090909",
"t 	c #2B0A06",
"u 	c #982416",
"v 	c #DD3520",
"w 	c #872014",
"x 	c #320C07",
"y 	c #C52F1D",
"z 	c #AF2A1A",
"A 	c #4D120B",
"B 	c #A42718",
"C 	c #9A2517",
"D 	c #6E312A",
"E 	c #272727",
"F 	c #3E221F",
"G 	c #49110B",
"H 	c #0F0A0A",
"I 	c #161111",
"J 	c #040404",
"K 	c #180603",
"L 	c #E03621",
"M 	c #A72819",
"N 	c #350C08",
"O 	c #0B0302",
"P 	c #67190F",
"Q 	c #C7301D",
"R 	c #BC2D1B",
"S 	c #731C11",
"T 	c #5F1A11",
"U 	c #4B1E18",
"V 	c #791D12",
"W 	c #8A2114",
"X 	c #2D0B07",
"Y 	c #0C0302",
"Z 	c #1E1D1D",
"` 	c #121212",
" .	c #14100F",
"..	c #41100A",
"+.	c #DB3420",
"@.	c #DC3420",
"#.	c #9B2517",
"$.	c #50130C",
"%.	c #1E0704",
"&.	c #801E13",
"*.	c #C9301D",
"=.	c #9F2617",
"-.	c #A12718",
";.	c #6D1A10",
">.	c #D6331F",
",.	c #962416",
"'.	c #5B160D",
").	c #1C0604",
"!.	c #030303",
"~.	c #1B0604",
"{.	c #53140C",
"].	c #821F13",
"^.	c #BF2E1C",
"/.	c #CC311E",
"(.	c #7B1D12",
"_.	c #6A190F",
":.	c #CB301E",
"<.	c #C62F1D",
"[.	c #0A0302",
"}.	c #080404",
"|.	c #120403",
"1.	c #832013",
"2.	c #8E2215",
"3.	c #B42B1A",
"4.	c #63180E",
"5.	c #DE3520",
"6.	c #A92819",
"7.	c #C42F1D",
"8.	c #220805",
"9.	c #3A0E08",
"0.	c #D5331F",
"a.	c #4B120B",
"b.	c #0F0E0E",
"c.	c #010101",
"d.	c #A32718",
"e.	c #370D08",
"f.	c #CE311E",
"g.	c #701B10",
"h.	c #140503",
"i.	c #6F1A10",
"j.	c #CD311E",
"k.	c #BB2D1B",
"l.	c #140D0D",
"m.	c #070101",
"n.	c #050101",
"o.	c #972416",
"p.	c #030100",
"q.	c #090707",
"r.	c #4B1C17",
"s.	c #31100B",
"t.	c #D93420",
"u.	c #731B11",
"v.	c #180604",
"w.	c #3C0E09",
"x.	c #E13621",
"y.	c #D83420",
"z.	c #45110A",
"A.	c #270A06",
"B.	c #66190F",
"C.	c #3A3A3A",
"D.	c #262525",
"E.	c #4A2925",
"F.	c #701B11",
"G.	c #A92919",
"H.	c #C22E1C",
"I.	c #260D0A",
"J.	c #0C0C0C",
"K.	c #020202",
"L.	c #020100",
"M.	c #892114",
"N.	c #E03521",
"O.	c #49110A",
"P.	c #BF2D1C",
"Q.	c #9D2517",
"R.	c #922315",
"S.	c #AD291A",
"T.	c #5E160E",
"U.	c #210E0C",
"V.	c #1D1615",
"W.	c #51504F",
"X.	c #413B3A",
"Y.	c #3E302E",
"Z.	c #3A1D19",
"`.	c #0B0808",
" +	c #B52B1A",
".+	c #8F2215",
"++	c #8C2215",
"@+	c #C02E1C",
"#+	c #DF3521",
"$+	c #6F1B10",
"%+	c #42120D",
"&+	c #1A1717",
"*+	c #151515",
"=+	c #212121",
"-+	c #B32B1A",
";+	c #65180F",
">+	c #2A0A06",
",+	c #400F09",
"'+	c #170503",
")+	c #070201",
"!+	c #350F0A",
"~+	c #A52718",
"{+	c #761C11",
"]+	c #171717",
"^+	c #141212",
"/+	c #44100A",
"(+	c #141414",
"_+	c #7E1E13",
":+	c #C12E1C",
"<+	c #7D1E12",
"[+	c #0E0E0E",
"}+	c #A82819",
"|+	c #B52B1B",
"1+	c #64180F",
"2+	c #160807",
"3+	c #51130C",
"4+	c #CB311E",
"5+	c #390E08",
"6+	c #5C160D",
"7+	c #290906",
"8+	c #992516",
"9+	c #0E0C0C",
"0+	c #200805",
"a+	c #B12A1A",
"b+	c #0B0202",
"c+	c #1D0704",
"d+	c #340F0B",
"e+	c #46110A",
"f+	c #060101",
"                                                                ",
"                                                                ",
"                                                                ",
"                                                                ",
"                      . + @ #                                   ",
"                    $ % & * = - ;     > ,                       ",
"                ' ) ! ~ { ] ^ / ( _ : < [ } |                   ",
"            1 + 2 3 4 5 6 7 8 ] 9 0 a 7 b c d                   ",
"          e @ f g ] h i ) j k l m n o p q + r                   ",
"        s @ @ t u v 5 w x y z A 0 B C D E F G H I               ",
"      J r @ @ K 0 ] L 4 u M N O P Q R S T U V W X Y Z           ",
"    @ `  .r @ ..+.] ] @.#.$.%.i &.*.=.-.;.[ >.] +.,.'.).'       ",
"      !.J r ~.{.] ] >.].^.Q Q Q /.{ (._.:.+.] ] ] ] +.<.j % [.  ",
"    J }.J |.1.2.] ] 3.4.5.] ] ] ] 6.7.8.9.z ] ] ] ] ] ] 0.a.b.  ",
"        c._ / 5.] ] d.e.f.] ] ] ] g.P ) r h.i.j.] ] ] ] k.9.l.  ",
"      m.@ n.W ] ] ] o.n.].] ] ] ] w p.r ' @ q.r.o.] ] ] 0.<.s.  ",
"        e @ 2 t.] ] u.v.w./ x.] ] y.z.A.B._ ` C.D.E.F.C G.H.I.  ",
"      ; J.K.L.M.N.] k.O.0 P.Q.v ] ] j.R.S.G.T.U.V.W.E X.Y.Z.`.  ",
"          @ @ i  +] ] R .+] ++P @+L #+*./ M.R.:.B $+%+&+*+=+    ",
"        *+J @ b -+] ] ] t.] >.;+>+,+* 8.'+)+Y !+i.~+{+1 ]+      ",
"          ^+p./+5.] ] ] ] ] ] t.a.+ @ +                         ",
"          (+r 8._+:+] ] ] ] t.<+2 '                             ",
"          [+_ B.}+] ] ] ] -+|+h 1+p.                            ",
"          =+2+3+@+] ] ] ] 4+5+6+7+                              ",
"              h.! >.L ] +.g 8+b 9+                              ",
"                n.0+g.a+0.5 ,+* @                               ",
"                    b+c+d+e+Y @ @                               ",
"                          f+@ @                                 ",
"                                                                ",
"                                                                ",
"                                                                ",
"                                                                "};
