/* XPM */
static char*explorer[]={
"34 34 50 1",
"I c #9c6331",
"t c #319cff",
"H c #848400",
"B c #639cff",
"V c #5a5a5a",
"m c #000031",
"k c #3131ce",
"S c #cece9c",
"d c #ffffce",
"y c #009cce",
"M c #212121",
"l c #31009c",
"v c #31319c",
"F c #319cce",
"f c #efd6c6",
"b c #393939",
"p c #b5b5b5",
"j c #63319c",
"O c #633131",
"q c #639cce",
". c None",
"o c #000000",
"a c #9c9cce",
"u c #31ceff",
"P c #9c9c63",
"K c #080808",
"C c #848484",
"g c #101010",
"N c #181818",
"L c #949494",
"r c #63ceff",
"G c #313100",
"s c #63ffff",
"n c #3163ce",
"J c #633100",
"h c #9cceff",
"w c #9cffff",
"i c #6363ce",
"R c #636363",
"c c #ceceff",
"e c #e7e7d6",
"A c #ceffff",
"T c #737373",
"Q c #efefef",
"U c #9c6363",
"D c #63639c",
"x c #adad94",
"# c #636331",
"E c #63cece",
"z c #9c9c00",
"..................................",
"..................................",
"...#aaaaaaaaaaaaaaaaaaaaaaa#......",
"..bcdccccccececececececececa#.....",
"..bcfdfdddddddddededededededcg....",
"..bhcfdccijklmmmmmmmmmmmmmncco....",
"..bphccdiqrhhshshsrrrtuttnvrco....",
"..bpphcdirssswwwwshruututtnsco....",
"..bxppcdirswwwwwssshuuutttnsco....",
"..bxppcdqrswwwwwsshhuuquttnwco....",
"..baxpcdirswwwwwssshuuutttnwco....",
"..bxaxcdqhswwwwssshhuuquyynwco....",
"..baxacdqrssswssshsruuutttnwco....",
"..bzaxcdqhhssssshshruutuyynAco....",
"..bazacdBrshshshshrrututttnAco....",
"..bzazcdBrrhhrhrhrrututtyynAco....",
"..bazacdBurrrrururututtyttnAco....",
"..bCazxdtBuuuuquqututtyttynAco....",
"..bDCaxdEtnnnnnnnnnnnnnnnnFAxo....",
"...GDCxdcwdwdAdAdAdAdAdAdAdcao....",
"....GDHxccccccccpppppaaaI###Jo....",
".bcIGooooooooooooKKKKKooKKGK......",
".bLc#DMGoDIGbMoooooKNGO#IJNDb.....",
".bDLcIDOMoGIDPPcfQdQcPIDoKIMID....",
".bHDLQQccxDbogNGGMMGMNgoGDPcfQG...",
".bDHDQcfcfcfcfcffQdQQfffcccfcQG...",
".bRDHcIGMgMgMg#b#bDbDbD#ID#IDSo...",
"..MRDfMPcDxI#a#acaacTcbP#DITbGG...",
"...MRcMDcD#fIQaISQcac#cbcbPUxbG...",
"....MKMGxxDIDa#acxScacIxbxIDPcG...",
"......MDbc#QIQaQScQScacbcbTbIPfG..",
".......MVPcP#a#PaPaPaPaPIxIxTxcxD.",
"........MbccfcffffccfcaPTPD#DDDbD.",
"..........DDDDDDDDDDDDDDDDDDDDDDD."};
