/* XPM */
static char * kppp_xpm[] = {
"32 32 12 1",
" 	c None",
".	c #808080",
"+	c #C0C0C0",
"@	c #000000",
"#	c #00FFFF",
"$	c #008080",
"%	c #FFFF00",
"&	c #808000",
"*	c #FFFFFF",
"=	c #0000FF",
"-	c #00FF00",
";	c #FF0000",
"  ..........                    ",
" .+++++++++.@                   ",
" .+@@@@@@@+.@                   ",
" .+@#$$$$$+.@                   ",
" .+@#$$$$$+.@       .....       ",
" .+@$$$$$$+.@      ..%%%%..     ",
" .+@$$$$$$+.@     .%%.@.%%%..   ",
" .+@......+.@     .%%@%@&%%%%.  ",
" .+++++++++.@     .@@%%@@&@.%%@ ",
" .@@@@@@@@@@.@    .%+&+%.@%@%%%@",
".***********.@===.%+&+&+%%+@&%%@",
".*+--+++@@@+.@  .%+&+&+%%+&@&&&@",
".............@ .%**%&+%%+&&&@@@@",
" @@@@@@@@@@@@  .%%%**%%+&&&&&&@ ",
"               .@%%%%*+&&&&&@@+@",
"              .**@@%%%&&&&@@++.@",
"              .++**@@%&&@@++...@",
"              .+;++**@@@++.....@",
"  ..........  @+++;++*++......@@",
" .+++++++++.@  @@+++;+......@@  ",
" .+@@@@@@@+.@    @@+++....@@ =  ",
" .+@#$$$$$+.@      @@+..@@   =  ",
" .+@#$$$$$+.@        @@@     =  ",
" .+@$$$$$$+.@                =  ",
" .+@$$$$$$+.@                =  ",
" .+@......+.@                =  ",
" .+++++++++.@    =   =   =   =  ",
" .@@@@@@@@@@.@  = = = = = =  =  ",
".***********.@= = = = = = = =   ",
".*+--+++@@@+.@ =   =   =   =    ",
".............@                  ",
" @@@@@@@@@@@@                   "};
