/* XPM */
static char * pgadmin316_xpm[] = {
"14 15 109 2",
"  	c None",
". 	c #404346",
"+ 	c #5A5D61",
"@ 	c #535659",
"# 	c #5E6165",
"$ 	c #3D4042",
"% 	c #5C656E",
"& 	c #6C7D8E",
"* 	c #707579",
"= 	c #717F8D",
"- 	c #64778A",
"; 	c #677788",
"> 	c #414448",
", 	c #1A1B1C",
"' 	c #6385A7",
") 	c #336699",
"! 	c #4B78A5",
"~ 	c #6E92B6",
"{ 	c #6B90B5",
"] 	c #4D7AA6",
"^ 	c #51779E",
"/ 	c #373A3C",
"( 	c #5C6671",
"_ 	c #35689A",
": 	c #6A8FB4",
"< 	c #3B6C9D",
"[ 	c #688EB4",
"} 	c #3E6F9F",
"| 	c #606F7D",
"1 	c #647689",
"2 	c #3F6F9F",
"3 	c #6B91B5",
"4 	c #4473A2",
"5 	c #396B9C",
"6 	c #36689B",
"7 	c #547FAA",
"8 	c #799BBC",
"9 	c #34679A",
"0 	c #87A5C3",
"a 	c #ADC2D6",
"b 	c #98B2CC",
"c 	c #36689A",
"d 	c #5D86AE",
"e 	c #B5C8DA",
"f 	c #8BA8C4",
"g 	c #386A9C",
"h 	c #59626A",
"i 	c #5C646C",
"j 	c #688EB3",
"k 	c #5982AC",
"l 	c #7597BA",
"m 	c #4976A4",
"n 	c #668CB2",
"o 	c #527DA9",
"p 	c #7295B8",
"q 	c #4E7AA6",
"r 	c #4B4D50",
"s 	c #777A7E",
"t 	c #5B84AD",
"u 	c #4C78A5",
"v 	c #5680AB",
"w 	c #517DA8",
"x 	c #7396B9",
"y 	c #667E97",
"z 	c #6289B0",
"A 	c #37699B",
"B 	c #7698BA",
"C 	c #386A9B",
"D 	c #346799",
"E 	c #84A3C2",
"F 	c #5E6770",
"G 	c #637A90",
"H 	c #35679A",
"I 	c #7A9BBB",
"J 	c #5C83AA",
"K 	c #648BB1",
"L 	c #93A6B9",
"M 	c #313233",
"N 	c #626971",
"O 	c #3D6E9E",
"P 	c #707E8C",
"Q 	c #788087",
"R 	c #91ACC8",
"S 	c #5A83AC",
"T 	c #7497BA",
"U 	c #8EA8C2",
"V 	c #7690AB",
"W 	c #7F8082",
"X 	c #576C82",
"Y 	c #637B92",
"Z 	c #989DA3",
"` 	c #8295A8",
" .	c #718191",
"..	c #5F81A4",
"+.	c #6D87A2",
"@.	c #4C5258",
"#.	c #5A636B",
"$.	c #282828",
"%.	c #323232",
"&.	c #55789B",
"*.	c #5F758C",
"=.	c #303030",
"-.	c #5B656F",
";.	c #383838",
">.	c #6785A4",
",.	c #3E6E9E",
"'.	c #4F5760",
").	c #637689",
"!.	c #535F6B",
"  . + @ # $ % & * = - ; >   ",
", ' ) ) ! ~ ) ) ) { ] ) ^ / ",
"( ) ) _ : < ) ) ) ) [ } ) | ",
"1 ) ) 2 3 4 5 ) ) 6 7 8 9 1 ",
"1 ) ) 2 0 a b c ) d e f g h ",
"i ) ) 2 j k l m ) n o p q r ",
"s ) ) 2 j ) t u ) v w x y   ",
"  z ) 2 j A B C ) D B E F   ",
"  G ) H I J p H ) ) K L M   ",
"  N g O P Q R S ) ) T U V W ",
"    X Y Z `  ...) ) +.@.#.  ",
"          $.%.&.) ) *.      ",
"            =.&.) ) -.      ",
"            ;.>.) ,.F       ",
"              '.).!.        "};
