/* XPM */
static char * pgadmin3_xpm[] = {
"29 32 132 2",
"  	c None",
". 	c #000000",
"+ 	c #0E0E0E",
"@ 	c #555555",
"# 	c #0C0C0C",
"$ 	c #2E2E2E",
"% 	c #383838",
"& 	c #787878",
"* 	c #AAAAAA",
"= 	c #5D5D5D",
"- 	c #171717",
"; 	c #A2A7AD",
"> 	c #7799BB",
", 	c #BECEDF",
"' 	c #B6B6B6",
") 	c #D8D8D8",
"! 	c #86A5C3",
"~ 	c #96A3B1",
"{ 	c #020202",
"] 	c #7A8086",
"^ 	c #5B84AD",
"/ 	c #336699",
"( 	c #90ACC7",
"_ 	c #B6C9DB",
": 	c #ACC0D5",
"< 	c #94AFCA",
"[ 	c #396B9C",
"} 	c #060606",
"| 	c #B5C7DA",
"1 	c #4272A1",
"2 	c #9CB5CE",
"3 	c #4170A0",
"4 	c #A7BDD3",
"5 	c #4674A2",
"6 	c #5E86AF",
"7 	c #737474",
"8 	c #A9AAAC",
"9 	c #6F93B7",
"0 	c #7D9EBE",
"a 	c #9EB6CE",
"b 	c #4F7BA7",
"c 	c #97A4B0",
"d 	c #1D1D1D",
"e 	c #3A3A3A",
"f 	c #869DB5",
"g 	c #B9CBDC",
"h 	c #668CB2",
"i 	c #7497B9",
"j 	c #575757",
"k 	c #8BA8C5",
"l 	c #6189B0",
"m 	c #83A2C1",
"n 	c #698FB4",
"o 	c #3F6F9F",
"p 	c #5A83AC",
"q 	c #88A6C4",
"r 	c #BBCCDD",
"s 	c #CEDAE6",
"t 	c #82A1C0",
"u 	c #C3D2E1",
"v 	c #E3EAF1",
"w 	c #FFFFFF",
"x 	c #B2C5D8",
"y 	c #527DA8",
"z 	c #E2E9F0",
"A 	c #D5E0EA",
"B 	c #BDCDDE",
"C 	c #5580AA",
"D 	c #AFC3D7",
"E 	c #6088AF",
"F 	c #99B2CC",
"G 	c #6B90B5",
"H 	c #537EA9",
"I 	c #85A3C2",
"J 	c #688DB3",
"K 	c #030303",
"L 	c #80A0C0",
"M 	c #6C91B6",
"N 	c #4C4D4D",
"O 	c #8AA7C4",
"P 	c #97B1CB",
"Q 	c #97A4B2",
"R 	c #1F1F1F",
"S 	c #080808",
"T 	c #C6D4E2",
"U 	c #5D85AE",
"V 	c #828486",
"W 	c #507CA8",
"X 	c #4473A2",
"Y 	c #C7D5E3",
"Z 	c #6E92B6",
"` 	c #B0C4D8",
" .	c #101010",
"..	c #C1D1E0",
"+.	c #5882AC",
"@.	c #A1B8D0",
"#.	c #636363",
"$.	c #BDC9D4",
"%.	c #A6B4C1",
"&.	c #DBE4ED",
"*.	c #FAFCFD",
"=.	c #CBCBCB",
"-.	c #4A4A4A",
";.	c #AAADAF",
">.	c #5B5B5B",
",.	c #3E6E9E",
"'.	c #DFE0E2",
").	c #414142",
"!.	c #D8E2EC",
"~.	c #BDBDBD",
"{.	c #DBE0E4",
"].	c #5781AB",
"^.	c #D7E1EB",
"/.	c #424242",
"(.	c #859EB6",
"_.	c #8E969F",
":.	c #494949",
"<.	c #DCE0E4",
"[.	c #868C92",
"}.	c #808080",
"|.	c #686868",
"1.	c #3E3E3E",
"2.	c #2A2A2A",
"3.	c #4D4D4D",
"4.	c #0F0F0F",
"5.	c #95A5B5",
"6.	c #232323",
"7.	c #ADB1B6",
"8.	c #ADC2D6",
"9.	c #494B4C",
"0.	c #839DB7",
"a.	c #111111",
"        . . . . .       . + @ @ @ # $ @ @ @ @ @ %         ",
"    . & * * * * * * = - * ; > > , ' ) ! > > > > ~ & .     ",
"  { ] ^ / / / / / / ( _ / / / / / / / : < [ / / / ^ ] {   ",
"  } | / / / / / / 1 2 3 / / / / / / / / 4 5 / / / / 6 7 . ",
". 8 / / / / / / / 9 0 / / / / / / / / / / a b / / / / c d ",
"e f / / / / / / / g / / / / / / / / / / / h ! / / / / i j ",
"j i / / / / / / k l / / / / / / / / / / / / m n / / / i j ",
"j i / / / / / / k l / / / / / / / / / / / / / g / / / i j ",
"j i / / / / / / k n > > > o / / / / / / p q r s t / / i j ",
"j i / / / / / / k u > v w x / / / / / y < z r i t / / c d ",
"j i / / / / / / k l / A w B C / / / / l k D r i t / / 8 . ",
"d c / / / / / / k l / n > E F / / / / l k / / G t / / 8 . ",
". 8 / / / / / / k l / / / H F / / / / y < [ / I J / | }   ",
"  8 / / / / / / k l / / / H F / / / / / 4 5 / g / ^ ] K   ",
"  8 / / / / / / k l / / / H F / / / / / L M / g / 9 =     ",
"  N O / / / / / k l / / / P C / / / / / / g / g / Q R     ",
"  S | / / / / / k l / / H T / / / / / / / h D , U V       ",
"    ] ^ / / / / W 2 / / < I / / / / / / / X Y Z `  .      ",
"    = 9 / / / / / ..> 3 < +./ / / / / / / / m @.#..       ",
"    R Q / / / / / $.@ %.&.Y > / / / / / / C r *.=.* * * -.",
"      ;./ / / / k e . >.a ,.r H / / / / / h ! / / / / '.e ",
"      ).! / / o !.~.* {.].H w H / / / / / h ^.r r r r N   ",
"        /.(.> _.:.<.> > > [.}.H / / / / / h |.. . . .     ",
"        . 1.@ 2.  3.@ @ @ 4.}.H / / / / / h |.            ",
"                    . .   . }.H / / / / / h |.            ",
"                          . }.H / / / / / 5.6.            ",
"                          . }.H / / / / / 7..             ",
"                          . }.H / / / / / 7..             ",
"                          . }.H / / / / / 7.              ",
"                            }.8./ / / / L 9.              ",
"                            . [.> > > 0.:..               ",
"                              a.@ @ @ /..                 "};
