/* XPM */
static char * programs_xpm[] = {
"30 26 23 1",
" 	c None",
".	c #D5CEC5",
"+	c #000000",
"@	c #949100",
"#	c #FFFF94",
"$	c #FFF2EE",
"%	c #CDCE62",
"&	c #FFCE94",
"*	c #838183",
"=	c #00007B",
"-	c #000094",
";	c #FFCE29",
">	c #CD9129",
",	c #BDBEBD",
"'	c #E6E2D5",
")	c #007D00",
"!	c #0000FF",
"~	c #7B0000",
"{	c #FF0000",
"]	c #00FFFF",
"^	c #FFFF00",
"/	c #00FF00",
"(	c #7B007B",
"..............................",
"..............................",
".................+@@@@@@@@....",
"................+@#######$@...",
"........@@@@@@@@@%%%%%%%%%%@..",
".......+%$$$$$$$$$$$$$$$$$$@..",
".......+%&#&#&#&#&#&#&####$@..",
".......+%%%%%%%%%%%%%%%&##$@..",
"....+********************#$@..",
"....+=$=$=$=-=-=-=-==-;-*#$@..",
"....+-----=-=--=--=--->-*&$@..",
"....+,,,,,,,,,,,,,,,,,,,*#$@..",
"....+,''''''''''''''''',*&$@..",
"....+,'$$$$$$$$$$$$$$$',*#$@..",
"....+,'$$$$$$$$$$$$$$$',*&$@..",
"....+,'$$)$$$$$!$$~{$$',*#$@..",
"....+,'$))$$$!!]$$~^{$',*#$@..",
"....+,'$!/)$$,!!$$~{~$',*&$@..",
"....+,'$)))$$((,($$~,$',*@@@..",
"....+,'$$$$$$$$$$$$$$$',*++...",
"....+,'$***$$***$$***$',*.....",
"....+,'$$$$$$$$$$$$$$$',*.....",
"....+,''''''''''''''''',*.....",
"....+,,,,,,,,,,,,,,,,,,,*.....",
"....++++++++++++++++++++*.....",
".............................."};
