/* XPM */
static char * rp7_xpm[] = {
"32 28 311 2",
"  	c None",
". 	c #BC1CBC",
"+ 	c #313534",
"@ 	c #060A10",
"# 	c #00070D",
"$ 	c #0D0F11",
"% 	c #4C4A48",
"& 	c #CD2ACD",
"* 	c #202929",
"= 	c #080C48",
"- 	c #120E88",
"; 	c #10148E",
"> 	c #100C82",
", 	c #080236",
"' 	c #4D4B4A",
") 	c #05121C",
"! 	c #1F2DB4",
"~ 	c #2900FF",
"{ 	c #0E0F13",
"] 	c #08141F",
"^ 	c #293BC4",
"/ 	c #2910EF",
"( 	c #294FB0",
"_ 	c #153398",
": 	c #08217E",
"< 	c #0C1965",
"[ 	c #160E58",
"} 	c #0F0654",
"| 	c #081C6C",
"1 	c #082180",
"2 	c #1C3DA0",
"3 	c #1E54D5",
"4 	c #050A1A",
"5 	c #1F1DB5",
"6 	c #2508E2",
"7 	c #2121AF",
"8 	c #0D3365",
"9 	c #050C2B",
"0 	c #000000",
"a 	c #040408",
"b 	c #131B42",
"c 	c #134391",
"d 	c #1F12CC",
"e 	c #11118B",
"f 	c #00060C",
"g 	c #030917",
"h 	c #191BAB",
"i 	c #250CE1",
"j 	c #1B06A6",
"k 	c #0C1842",
"l 	c #000309",
"m 	c #040414",
"n 	c #19306B",
"o 	c #1F10B6",
"p 	c #131369",
"q 	c #010106",
"r 	c #00070F",
"s 	c #101693",
"t 	c #270DFA",
"u 	c #1B28BD",
"v 	c #0E0E52",
"w 	c #02060D",
"x 	c #000001",
"y 	c #07101D",
"z 	c #1749BD",
"A 	c #040D25",
"B 	c #010103",
"C 	c #0D0B08",
"D 	c #383A33",
"E 	c #484F48",
"F 	c #070504",
"G 	c #14100C",
"H 	c #020208",
"I 	c #15057F",
"J 	c #2207E7",
"K 	c #00050F",
"L 	c #090B09",
"M 	c #0D0F0D",
"N 	c #090A09",
"O 	c #0C0D0C",
"P 	c #0E100E",
"Q 	c #060606",
"R 	c #0F110F",
"S 	c #121412",
"T 	c #010101",
"U 	c #090806",
"V 	c #363436",
"W 	c #CFCDCF",
"X 	c #FBFBFB",
"Y 	c #010207",
"Z 	c #13057B",
"` 	c #08146B",
" .	c #5D625D",
"..	c #8C918D",
"+.	c #777B7A",
"@.	c #858885",
"#.	c #747974",
"$.	c #303432",
"%.	c #717575",
"&.	c #8E948E",
"*.	c #989D98",
"=.	c #6D6965",
"-.	c #202020",
";.	c #0A0806",
">.	c #4E4E4D",
",.	c #8F938F",
"'.	c #929892",
").	c #909590",
"!.	c #7F7C77",
"~.	c #161816",
"{.	c #575757",
"].	c #EEEEEE",
"^.	c #DCDCDC",
"/.	c #000203",
"(.	c #10056F",
"_.	c #080038",
":.	c #0F0C09",
"<.	c #BDBCBB",
"[.	c #FAFCFD",
"}.	c #CCCFD5",
"|.	c #9FA09F",
"1.	c #7F857F",
"2.	c #C4C8C6",
"3.	c #E4E6E7",
"4.	c #979490",
"5.	c #AAA9A8",
"6.	c #F3F3F3",
"7.	c #858381",
"8.	c #221C14",
"9.	c #6F716C",
"0.	c #949892",
"a.	c #81807B",
"b.	c #D4D6D4",
"c.	c #FCFCFC",
"d.	c #495149",
"e.	c #7E817E",
"f.	c #FEFEFE",
"g.	c #A0A4A0",
"h.	c #100167",
"i.	c #080538",
"j.	c #30332E",
"k.	c #DBDCDA",
"l.	c #E4E5E4",
"m.	c #515553",
"n.	c #151515",
"o.	c #666866",
"p.	c #F0F0F0",
"q.	c #CBCAC9",
"r.	c #D1D1D0",
"s.	c #ECECEC",
"t.	c #A6A8A5",
"u.	c #6D6D69",
"v.	c #B5B6B4",
"w.	c #D6D7D5",
"x.	c #CDCCCB",
"y.	c #EAEBEA",
"z.	c #FFFFFF",
"A.	c #4C534C",
"B.	c #B1B2B1",
"C.	c #5E5B53",
"D.	c #0A2B56",
"E.	c #222BEF",
"F.	c #0C2B8F",
"G.	c #000101",
"H.	c #6B6B6B",
"I.	c #C0C0C0",
"J.	c #080808",
"K.	c #464B46",
"L.	c #F4F4F4",
"M.	c #C3C5C3",
"N.	c #4F514F",
"O.	c #7A7F7A",
"P.	c #807C7F",
"Q.	c #5D5E5B",
"R.	c #C5C3C5",
"S.	c #5B605B",
"T.	c #707070",
"U.	c #E5EAEF",
"V.	c #373634",
"W.	c #E7E7E7",
"X.	c #E9E9E9",
"Y.	c #2C2C2C",
"Z.	c #2133EB",
"`.	c #0D2436",
" +	c #070506",
".+	c #64605D",
"++	c #A7A3A0",
"@+	c #5F5F5F",
"#+	c #040404",
"$+	c #8C8A86",
"%+	c #B3B7B3",
"&+	c #ABAAA6",
"*+	c #9B9B9A",
"=+	c #686766",
"-+	c #25231C",
";+	c #7F827C",
">+	c #B0B3B0",
",+	c #959494",
"'+	c #96938F",
")+	c #A7A4A1",
"!+	c #828180",
"~+	c #433C34",
"{+	c #A5A3A1",
"]+	c #7B7B7B",
"^+	c #141414",
"/+	c #0E2948",
"(+	c #2629E1",
"_+	c #262CC0",
":+	c #152942",
"<+	c #100D0D",
"[+	c #100D0A",
"}+	c #12100D",
"|+	c #1A1E1A",
"1+	c #141410",
"2+	c #030302",
"3+	c #161714",
"4+	c #181B18",
"5+	c #060504",
"6+	c #080807",
"7+	c #0C0A08",
"8+	c #030303",
"9+	c #10283E",
"0+	c #2928D7",
"a+	c #2904FB",
"b+	c #202ED3",
"c+	c #083265",
"d+	c #00050B",
"e+	c #0F243C",
"f+	c #2824D5",
"g+	c #1E44E5",
"h+	c #08195D",
"i+	c #06152A",
"j+	c #030C14",
"k+	c #000304",
"l+	c #010107",
"m+	c #081632",
"n+	c #07195C",
"o+	c #030512",
"p+	c #061231",
"q+	c #1E12CA",
"r+	c #233ED8",
"s+	c #1A24A3",
"t+	c #100872",
"u+	c #0B2A51",
"v+	c #0A1E37",
"w+	c #000E21",
"x+	c #000005",
"y+	c #060C20",
"z+	c #130870",
"A+	c #2930CF",
"B+	c #1A09AF",
"C+	c #010916",
"D+	c #001027",
"E+	c #1910C0",
"F+	c #242AEA",
"G+	c #221ED0",
"H+	c #190EBA",
"I+	c #1B05AB",
"J+	c #19009E",
"K+	c #190099",
"L+	c #100C36",
"M+	c #000408",
"N+	c #06264B",
"O+	c #1A25AF",
"P+	c #2804F5",
"Q+	c #1C03A9",
"R+	c #030310",
"S+	c #000E1C",
"T+	c #190EB5",
"U+	c #091A39",
"V+	c #00152A",
"W+	c #1646B4",
"X+	c #230DE5",
"Y+	c #2809FC",
"Z+	c #19039F",
"`+	c #010306",
" @	c #010B18",
".@	c #190BB1",
"+@	c #2908F7",
"@@	c #10187E",
"#@	c #03050D",
"$@	c #0B0E34",
"%@	c #1E328B",
"&@	c #2419C5",
"*@	c #0B1B32",
"=@	c #0D2034",
"-@	c #19108C",
";@	c #2924DB",
">@	c #151A8F",
",@	c #01010A",
"'@	c #1A01A3",
")@	c #2401E3",
"!@	c #0B0652",
"~@	c #10294A",
"{@	c #262CC1",
"]@	c #2615F7",
"^@	c #0E4080",
"/@	c #051453",
"(@	c #184BCD",
"_@	c #2700F6",
":@	c #2102D1",
"<@	c #260DE1",
"[@	c #174EC5",
"}@	c #031D39",
"|@	c #050505",
"1@	c #202420",
"2@	c #252925",
"3@	c #B716B7",
"4@	c #1B201B",
"5@	c #222622",
"6@	c #B818B8",
". + @ # # # # # # # # # # # # # # # # # # # # # # # # # # $ % & ",
"* = - ; ; ; ; ; ; ; ; ; ; ; ; ; ; ; ; ; ; ; ; ; ; ; ; ; ; > , ' ",
") ! ~ ~ ~ ~ ~ ~ ~ ~ ~ ~ ~ ~ ~ ~ ~ ~ ~ ~ ~ ~ ~ ~ ~ ~ ~ ~ ~ ~ - { ",
"] ^ ~ ~ ~ ~ ~ ~ ~ ~ ~ ~ / ( _ : < [ } } | 1 2 3 ~ ~ ~ ~ ~ ~ ; # ",
"4 5 ~ ~ ~ ~ ~ ~ 6 7 8 9 0 0 0 0 0 0 0 0 0 0 0 0 a b c d / ~ e f ",
"g h ~ ~ ~ ~ i j k l 0 0 0 0 0 0 0 0 0 0 0 0 0 0 0 0 0 m n o p q ",
"r s ~ ~ t u v w 0 0 0 0 0 0 0 0 0 0 0 0 0 0 0 0 0 0 0 0 x y y x ",
"# ; ~ ~ z A B 0 0 0 0 0 0 0 0 0 0 0 0 0 0 0 0 0 0 C D E F G 0 0 ",
"H I ~ J K 0 0 L M N O P 0 Q R S F 0 0 T P S R U 0 V W X 0 0 0 0 ",
"Y Z ~ ` 0 0 0  ...+.@.#.$.%.&.*.=.-.;.>.,.'.).!.~.{.].^.0 0 0 0 ",
"/.(.~ _.0 0 :.<.[.}.|.1.2.3.4.5.6.7.8.9.0.a.b.c.d.e.f.g.G 0 0 0 ",
"0 h.~ i.0 0 j.k.l.m.n.o.f.p.q.r.s.t.u.v.w.x.y.z.A.B.z.C.F 0 0 0 ",
"0 D.E.F.G.0 H.p.I.J.0 K.L.M.N.O.P.Q.R.z.S.T.s.U.V.W.X.Y.0 0 0 0 ",
"0 D.E.Z.`. +.+++@+0 0 #+$+%+&+*+=+-+;+>+,+'+)+!+~+{+]+^+0 0 0 0 ",
"0 /+(+~ _+:+<+[+0 0 0 0 }+|+1+2+0 F 3+4+5+[+[+6+[+7+8+0 0 0 0 0 ",
"0 9+0+~ a+b+c+d+0 0 0 0 0 0 0 0 0 0 0 0 0 0 0 0 0 0 0 0 0 0 0 0 ",
"0 e+f+~ ~ ~ ~ g+h+i+j+k+0 0 0 0 0 0 0 0 0 0 0 0 0 0 0 l+m+n+o+0 ",
"0 p+q+~ ~ ~ ~ ~ t r+s+t+u+v+w+o+x+0 0 0 0 0 0 0 0 0 y+z+A+B+C+0 ",
"0 D+E+~ ~ ~ ~ ~ ~ ~ ~ ~ F+G+H+I+J+K+K+L+0 0 0 0 M+N+O+P+~ Q+R+0 ",
"0 S+T+~ ~ ~ ~ ~ ~ ~ ~ ~ ~ ~ ~ ~ ~ ~ Z.U+0 0 0 V+W+X+Y+~ ~ Z+`+0 ",
"0  @.@~ ~ ~ ~ ~ ~ ~ ~ ~ ~ ~ ~ ~ ~ +@@@d+#@$@%@/ ~ ~ ~ ~ ~ K+0 0 ",
"0 R+Q+~ ~ ~ ~ ~ ~ ~ ~ ~ ~ ~ ~ ~ ~ &@*@=@-@;@~ ~ ~ ~ ~ ~ Y+>@0 0 ",
"0 ,@'@~ ~ ~ ~ ~ ~ ~ ~ ~ ~ ~ ~ ~ )@!@~@{@~ ~ ~ ~ ~ ~ ~ ~ ]@^@0 0 ",
"0 x /@(@~ ~ ~ ~ ~ ~ ~ ~ ~ ~ ~ ~ _@:@<@a+~ ~ ~ ~ ~ ~ ~ ~ [@}@0 0 ",
"0 0 0 0 0 0 0 0 0 0 0 0 0 0 0 0 0 0 0 0 0 0 0 0 0 0 0 0 0 0 0 0 ",
"0 0 0 0 0 0 0 0 0 0 0 0 0 0 0 0 0 0 0 0 0 0 0 0 0 0 0 0 0 0 0 |@",
"1@0 0 0 0 0 0 0 0 0 0 0 0 0 0 0 0 0 0 0 0 0 0 0 0 0 0 0 0 0 0 2@",
"3@4@0 0 0 0 0 0 0 0 0 0 0 0 0 0 0 0 0 0 0 0 0 0 0 0 0 0 0 8+5@6@"};
