/* XPM */
static char * run_xpm[] = {
"26 25 28 1",
" 	c None",
".	c #D5CEC5",
"+	c #000000",
"@	c #838183",
"#	c #BDBEBD",
"$	c #E6E2D5",
"%	c #E6E2E6",
"&	c #00007B",
"*	c #FFF2EE",
"=	c #620000",
"-	c #7B0000",
";	c #FF6129",
">	c #CD91CD",
",	c #7B007B",
"'	c #942CCD",
")	c #CD2C00",
"!	c #FF2C00",
"~	c #FF9194",
"{	c #FFFF94",
"]	c #FF9100",
"^	c #FF0000",
"/	c #626162",
"(	c #FF00FF",
"_	c #949194",
":	c #ACA18B",
"<	c #FFFFFF",
"[	c #525052",
"}	c #CD0000",
"..........................",
".+@@@@@@@@@@@@@@@@@@......",
".+#################@......",
".+#+$+%+$&&&&&&&&&#@......",
".+#++++++&&&&&&&&&#@......",
".+#################@......",
".+@$$$$$$$$$$$$$$$#@......",
".+@**********$======-----.",
".+@**;-***>,'$=--))!!~{)-.",
".+@**)]^**,>>$$+////////..",
".+@**-^-**,'(*$+_:#%%<%/..",
".+@**;]#**','>*+_:###<%/..",
".+@************+_:///<%/..",
".+@**@@@**@@@***+_#/<%/...",
".+@**************+#/%/....",
".+@**************+##$/....",
".+@@@@@@@@@@@@@@@+#_$/....",
".++++++++++++++++_##<$/...",
"...............+_:#@<*$/..",
"...............+_:/@@<$/..",
"...............+_//+/@$/..",
"...............+[[[[[[[/..",
"..............+=}}}!!~~)-.",
"..............+++++++++++.",
".........................."};
