/* XPM */
static char * settings_xpm[] = {
"26 27 21 1",
" 	c None",
".	c #D5CEC5",
"+	c #181C18",
"@	c #949194",
"#	c #626162",
"$	c #FFF2EE",
"%	c #E6E2D5",
"&	c #5A5D5A",
"*	c #737173",
"=	c #BDBEBD",
"-	c #202020",
";	c #000000",
">	c #525052",
",	c #E6E2E6",
"'	c #4A4C4A",
")	c #626100",
"!	c #CDCECD",
"~	c #949100",
"{	c #CDCE00",
"]	c #CDCE62",
"^	c #FFFF94",
"..........................",
"..........................",
"........+@@@@@@@@@@@@@@@@.",
"........+#$$$$$$$$$$$$$$@.",
"........+#$%+&&&&##**=%$@.",
"........+#$%-;;;;;;;*=%$@.",
"........+#$%>%,%,%%;*=%$@.",
"........+#$%'%;=%%%;*=%$@.",
"........+#))))%;=;,;*=%$@.",
"........;)!%%$),;%%;*=%$@.",
".....)).;)@@@@)%%))&*=%$@.",
"....;~{;;)@!%%);;]])*=%$@.",
"....;{~{{)@!%$)]]]])*=%$@.",
"....;;{~{)@!%$)]^]);%%%$@.",
"....;;~{))@!%$))]^;;%%%$@.",
"..;;;~{)%)@!%$)%)]^))))$@.",
".;~~]{]];)@!%,);]^]^]])$@.",
".;)));]^^];;;;]]^]))));$@.",
".;)));^]]^]^]^]^]];)));$@.",
".;));]]^;;^]^]);{]];));$@.",
"..;;;~])));^]^));]~~;;=$@.",
"...;;~~)));]^])));~~;;=$@.",
"....;~~);;;)));;);~~#####.",
"....;~~;..;)))..;;~~......",
".....;;...;)))...;;;......",
"..........;;;;............",
".........................."};
