/* XPM */
static char*kfm_trash[]={
"29 34 46 1",
"D c #319cff",
"h c #4a4a4a",
"f c #c6c6c6",
"k c #525252",
"y c #cecece",
"K c #0031ce",
"O c #639cff",
"z c #d6d6d6",
"H c #dedede",
"G c #3131ce",
"i c #313163",
"r c #ffffce",
"m c #212121",
"C c #31009c",
"v c #633163",
"j c #a5a5a5",
"n c #313131",
"q c #efd6c6",
"g c #b5b5b5",
"E c #3163ff",
". c None",
"w c #6363ff",
"R c #00ffff",
"J c #fffff7",
"a c #9c9cce",
"L c #31ceff",
"s c #9c9c63",
"b c #848484",
"# c #949494",
"Q c #63ceff",
"u c #9c9c9c",
"M c #ceefff",
"P c #9cceff",
"x c #ce9c9c",
"N c #9cffff",
"o c #636363",
"B c #ceceff",
"t c #e7e7d6",
"c c #737373",
"A c #efefef",
"p c #9c6363",
"F c #3131ff",
"I c #f7f7f7",
"d c #63639c",
"e c #adad94",
"l c #9c639c",
".............................",
".............................",
"............##ababababacdd...",
"........efg#hiihihddddbbj#i..",
"......ffciiihdkdcd#laeajbbfi.",
"....ffiminihdodbpa#agagadbqi.",
"...rimiihihdcdbsaeagagad#tui.",
"..rimiihvhdcpbsaeagabdutqudi.",
"..riimhihdodbsaeabbdgtqjuabi.",
"..rpiiihdodbpbdcdfttqjuaaawi.",
"..jrxpiivdodojyttqffjjggajbi.",
"..ajzArrrrrrrrqygjjgffBggawi.",
"..#fgfffffggggggyyByyBgCajbi.",
"..agByzAAAAAAtttxDEFGfBCxawi.",
"..#fyHIIJJJIJIyDwwEEFKgCajbi.",
"..agBttJJJJJIyDwwEEEFGKKxawi.",
"..#fyHIIJJJIJLDxxqqBEFGKajbi.",
"..agBttJJJJJyLxttqBqBFKKxawi.",
"..#fyHIIJJJIyLtAMtqBEFGKajbi.",
"..agBttJJJJJyJIttqBwEGKKxawi.",
"..#fyHIIJJJNOLtAMtqByBggajbi.",
"..agBttJJJJPNLOttqBqBfBKgawi.",
"..#fyHIIJJJQNRLDwtqByBgKajbi.",
"..agBttJJJJQNRLODwwqBfxKgawi.",
"..#fyHIIJJJQNLLOwtqByBGpajbi.",
"..agBttJJJJQNDLOOwBqBFFxgawi.",
"..#fyHIIJJJQNqDLOOwwwExgaui..",
"..agBttJJJJQLJqDDDDwExBgac...",
"..#fyHIIJJJLqItqxpppyBj#.....",
"..agBttJJJJqIJIttqByg#.......",
"..bfyHIIJJJIJItAMyj#.........",
"...agttJJJJJIJtgg#...........",
".....#ugggggg##..............",
"............................."};
