/* XPM */
static char * xbill_xpm[] = {
"32 32 372 2",
"  	c None",
". 	c #BFAE87",
"+ 	c #C5B184",
"@ 	c #C2AC79",
"# 	c #A99361",
"$ 	c #807358",
"% 	c #CDB98C",
"& 	c #EBD196",
"* 	c #E9CC8B",
"= 	c #E6C67E",
"- 	c #E4C173",
"; 	c #BA9A53",
"> 	c #745E2B",
", 	c #AA9C7D",
"' 	c #D7C397",
") 	c #DCC591",
"! 	c #E8CD90",
"~ 	c #E7C984",
"{ 	c #E5C479",
"] 	c #E3BE6B",
"^ 	c #E1B960",
"/ 	c #DDB253",
"( 	c #D2A744",
"_ 	c #BF9331",
": 	c #B48825",
"< 	c #674C0E",
"[ 	c #CDB98A",
"} 	c #E9CE93",
"| 	c #E8CA86",
"1 	c #E6C47B",
"2 	c #E3BF6E",
"3 	c #E1BA63",
"4 	c #DEB455",
"5 	c #DCAF4A",
"6 	c #DAA93C",
"7 	c #D8A431",
"8 	c #D49D24",
"9 	c #C79118",
"0 	c #B48214",
"a 	c #765919",
"b 	c #906A13",
"c 	c #362F1F",
"d 	c #AF9969",
"e 	c #D6B978",
"f 	c #E4C274",
"g 	c #E2BC69",
"h 	c #E0B75B",
"i 	c #DEB250",
"j 	c #DBAC43",
"k 	c #D9A738",
"l 	c #D6A12A",
"m 	c #D49C1F",
"n 	c #CD9312",
"o 	c #C58D0F",
"p 	c #B08A36",
"q 	c #C29735",
"r 	c #B38113",
"s 	c #3B2A03",
"t 	c #BCA165",
"u 	c #E4C376",
"v 	c #E2BD6B",
"w 	c #E0B85D",
"x 	c #DEB252",
"y 	c #DBAD45",
"z 	c #D9A83A",
"A 	c #D6A22C",
"B 	c #D49D21",
"C 	c #D29814",
"D 	c #D1940E",
"E 	c #C68E10",
"F 	c #D7A840",
"G 	c #D2A540",
"H 	c #D49C1E",
"I 	c #D0930C",
"J 	c #996C08",
"K 	c #806936",
"L 	c #E0BD6E",
"M 	c #E1BB64",
"N 	c #DFB559",
"O 	c #DDB04B",
"P 	c #DBAA40",
"Q 	c #D8A532",
"R 	c #D6A027",
"S 	c #D0981A",
"T 	c #B5820F",
"U 	c #AD7B0A",
"V 	c #C68C0B",
"W 	c #D3A131",
"X 	c #DEB251",
"Y 	c #D6A028",
"Z 	c #D29610",
"` 	c #D1940C",
" .	c #7D6631",
"..	c #DFB65B",
"+.	c #B89648",
"@.	c #998351",
"#.	c #9B824B",
"$.	c #AD852B",
"%.	c #D39A1C",
"&.	c #C68F13",
"*.	c #846F42",
"=.	c #9C9891",
"-.	c #A19F9A",
";.	c #796C4E",
">.	c #B69447",
",.	c #D8A635",
"'.	c #533B05",
").	c #685325",
"!.	c #CAA043",
"~.	c #8A8068",
"{.	c #D8D7D6",
"].	c #DDDCD9",
"^.	c #9C927C",
"/.	c #AB7A0C",
"(.	c #8E6C1F",
"_.	c #D5D5D4",
":.	c #FDFDFD",
"<.	c #FFFFFF",
"[.	c #E4E3E2",
"}.	c #826C3B",
"|.	c #CB941A",
"1.	c #CE920C",
"2.	c #302203",
"3.	c #463714",
"4.	c #D4D4D3",
"5.	c #FCFCFC",
"6.	c #6B572D",
"7.	c #A89D84",
"8.	c #A29B8E",
"9.	c #7C5E1E",
"0.	c #B18420",
"a.	c #C6921D",
"b.	c #B27E0A",
"c.	c #654706",
"d.	c #000000",
"e.	c #1B1B1C",
"f.	c #D9DEE3",
"g.	c #EBF1F5",
"h.	c #666663",
"i.	c #ACAEAE",
"j.	c #A9ABAB",
"k.	c #988D7C",
"l.	c #BCAA90",
"m.	c #7A6848",
"n.	c #2C1F02",
"o.	c #0B0801",
"p.	c #A0968A",
"q.	c #B1A698",
"r.	c #7C756B",
"s.	c #99A9BA",
"t.	c #B3C7DB",
"u.	c #B1C4D9",
"v.	c #636360",
"w.	c #81878B",
"x.	c #838C94",
"y.	c #93897B",
"z.	c #554F48",
"A.	c #635C54",
"B.	c #3C3833",
"C.	c #625C54",
"D.	c #B5AA9B",
"E.	c #EADBC9",
"F.	c #DCCEBD",
"G.	c #6B7680",
"H.	c #9AB3CC",
"I.	c #9DB7D1",
"J.	c #7E91A5",
"K.	c #9D9386",
"L.	c #8D877D",
"M.	c #8CA2B9",
"N.	c #9EB7D1",
"O.	c #9BB3CD",
"P.	c #4E5154",
"Q.	c #302D25",
"R.	c #56504A",
"S.	c #D8CBBA",
"T.	c #C9B79A",
"U.	c #DBC8A9",
"V.	c #AFA496",
"W.	c #3F3A36",
"X.	c #92897D",
"Y.	c #918A7D",
"Z.	c #72756F",
"`.	c #6A6E69",
" +	c #736E65",
".+	c #DFD1BB",
"++	c #D9CBB7",
"@+	c #747370",
"#+	c #73818E",
"$+	c #79899A",
"%+	c #656B71",
"&+	c #4A442E",
"*+	c #8F804D",
"=+	c #958971",
"-+	c #E6D3B4",
";+	c #E3C17E",
">+	c #EAD8BF",
",+	c #47433D",
"'+	c #ACA693",
")+	c #E2D8B4",
"!+	c #C1B484",
"~+	c #9E937A",
"{+	c #CDB78C",
"]+	c #D7C199",
"^+	c #DACDB7",
"/+	c #B3A998",
"(+	c #AAA092",
"_+	c #787063",
":+	c #8A7D4B",
"<+	c #AF9D5E",
"[+	c #A89862",
"}+	c #C1B398",
"|+	c #EDDCC6",
"1+	c #B6AA9C",
"2+	c #979282",
"3+	c #F4EAC5",
"4+	c #F1E0A5",
"5+	c #A49663",
"6+	c #B0A38A",
"7+	c #E4CEA6",
"8+	c #ECDDC6",
"9+	c #ECDDC5",
"0+	c #A69B86",
"a+	c #887B50",
"b+	c #B6A361",
"c+	c #B8A663",
"d+	c #B19F5F",
"e+	c #978853",
"f+	c #5F5847",
"g+	c #161412",
"h+	c #E1D7B5",
"i+	c #F0E0A6",
"j+	c #BFAE72",
"k+	c #93855A",
"l+	c #BDB19C",
"m+	c #E2D5C0",
"n+	c #988F80",
"o+	c #6E6341",
"p+	c #A59458",
"q+	c #BFAB66",
"r+	c #BEAA65",
"s+	c #AC9A5C",
"t+	c #998952",
"u+	c #4B4428",
"v+	c #060503",
"w+	c #908971",
"x+	c #ECDDA5",
"y+	c #C0AF75",
"z+	c #D4BF72",
"A+	c #7A6F47",
"B+	c #796F4D",
"C+	c #A2925A",
"D+	c #B2A060",
"E+	c #A29257",
"F+	c #C6B26A",
"G+	c #BBA864",
"H+	c #9E8E54",
"I+	c #5E5432",
"J+	c #030302",
"K+	c #B6AA7F",
"L+	c #EBD790",
"M+	c #B8A563",
"N+	c #B09E5E",
"O+	c #E7CF7C",
"P+	c #B6A362",
"Q+	c #A8975B",
"R+	c #C1AD68",
"S+	c #C7B36B",
"T+	c #B5A361",
"U+	c #74693E",
"V+	c #1A170E",
"W+	c #978D68",
"X+	c #F1DD95",
"Y+	c #BEAB67",
"Z+	c #A9985B",
"`+	c #B4A261",
" @	c #AE9F66",
".@	c #DFCE91",
"+@	c #D8C47C",
"@@	c #C0AC67",
"#@	c #AD9B5D",
"$@	c #3F3821",
"%@	c #908663",
"&@	c #F1DE98",
"*@	c #CDB970",
"=@	c #8D7F4C",
"-@	c #9D8E57",
";@	c #D8C992",
">@	c #E6D597",
",@	c #D5C27C",
"'@	c #B9A663",
")@	c #A69559",
"!@	c #342F1B",
"~@	c #948A69",
"{@	c #F1DE9B",
"]@	c #E5CE7D",
"^@	c #877A49",
"/@	c #D0BD78",
"(@	c #EBDCA5",
"_@	c #E5D497",
":@	c #CEBB79",
"<@	c #9E8E55",
"[@	c #39331E",
"}@	c #9B916F",
"|@	c #F1DF9D",
"1@	c #DFC97B",
"2@	c #7E7143",
"3@	c #D3BF74",
"4@	c #ECD892",
"5@	c #E0D093",
"6@	c #C8B675",
"7@	c #AB995B",
"8@	c #978851",
"9@	c #474026",
"0@	c #746E56",
"a@	c #958A62",
"b@	c #84784F",
"c@	c #988A5B",
"d@	c #8C7E4A",
"e@	c #AC9B5C",
"f@	c #A39258",
"g@	c #978852",
"h@	c #7D7143",
"i@	c #4C4428",
"j@	c #090805",
"k@	c #BAAF87",
"l@	c #D5C58A",
"m@	c #BAA764",
"n@	c #BCA965",
"o@	c #BCA964",
"p@	c #B7A462",
"q@	c #958650",
"r@	c #2A2616",
"s@	c #5D5D5D",
"t@	c #353535",
"u@	c #423B26",
"v@	c #F0E3B2",
"w@	c #F0DB91",
"x@	c #D6C173",
"y@	c #94854F",
"z@	c #C8B46C",
"A@	c #E8D17D",
"B@	c #EED680",
"C@	c #4E462A",
"D@	c #010100",
"E@	c #272727",
"F@	c #676767",
"G@	c #494949",
"H@	c #302D21",
"I@	c #C1B175",
"J@	c #EED682",
"K@	c #BDAA66",
"L@	c #322D1B",
"M@	c #3B3520",
"N@	c #6D623A",
"O@	c #8F804C",
"P@	c #675C37",
"Q@	c #0B0A06",
"R@	c #111111",
"S@	c #1D1D1D",
"T@	c #060606",
"U@	c #0C0B06",
"V@	c #473F26",
"W@	c #453E25",
"X@	c #1E1E1E",
"Y@	c #5F5F5F",
"Z@	c #4C4C4C",
"`@	c #1B1B1B",
" #	c #0C0C0C",
".#	c #383838",
"+#	c #2C2C2C",
"@#	c #0A0A0A",
"                                                                ",
"                        . + @ #                                 ",
"                    $ % & * = - ; >                             ",
"                , ' ) ! ~ { ] ^ / ( _ : <                       ",
"                [ } | 1 2 3 4 5 6 7 8 9 0 a b                   ",
"              c d e f g h i j k l m n o p q r s                 ",
"              t u v w x y z A B C D E F G H I J                 ",
"            K L M N O P Q R S T U V W X Y Z ` I s               ",
"             ...+.@.#.$.%.&.*.=.-.;.>.,.Z ` ` ` '.              ",
"            ).!.~.{.].^./.(._.:.<.[.}.|.` ` ` 1.2.              ",
"              3.4.<.<.5.6.7.<.<.<.<.8.9.0.a.b.c.d.              ",
"              e.f.g.g.g.h.i.g.g.g.g.j.k.l.m.n.o.                ",
"          p.q.r.s.t.t.u.v.w.t.t.t.t.x.y.z.A.B.C.C.              ",
"          D.E.F.G.H.I.J.K.L.M.N.N.O.P.Q.R.S.T.U.V.              ",
"            W.X.Y.Z.`. +.+++@+#+$+%+&+*+=+-+;+>+,+              ",
"                '+)+!+~+{+]+^+/+(+_+:+<+[+}+|+1+                ",
"                2+3+4+5+6+7+8+9+0+a+b+c+d+e+f+g+                ",
"                  h+i+j+k+l+m+n+o+p+q+r+s+t+u+v+                ",
"                  w+x+y+z+A+B+C+D+E+F+G+H+I+J+                  ",
"                    K+L+M+N+O+P+Q+R+S+T+U+V+                    ",
"                    W+X+Y+Z+`+ @.@+@@@#@$@                      ",
"                    %@&@*@=@-@;@>@,@'@)@!@                      ",
"                    ~@{@]@^@/@(@_@:@d+<@[@                      ",
"                    }@|@1@2@3@4@5@6@7@8@9@                      ",
"                    0@a@b@c@d@e@f@g@h@i@j@                      ",
"                        k@l@c+m@n@o@p@q@r@                      ",
"                  s@t@u@v@w@x@y@z@A@B@A@C@D@                    ",
"                E@F@G@H@I@J@K@L@M@N@O@P@Q@d.                    ",
"                  R@S@T@U@V@W@  X@Y@Z@`@d.                      ",
"                    d.d.d.d.d.   #.#+#@#d.                      ",
"                        d.d.        d.d.                        ",
"                                                                "};
