/* XPM */
static char *xcalc16[] = {
/* width height num_colors chars_per_pixel */
"    16    16        7            1",
/* colors */
". c None",
"# c #008080",
"a c #000000",
"b c #000080",
"c c #00ffff",
"d c #ffffff",
"e c #c0c0c0",
/* pixels */
"................",
"................",
"................",
".###############",
".b#####aaaaaaa#c",
".b#####ddddddd#c",
".b#############c",
".b#e#e#e#e#e#e#c",
".b#############c",
".b#e#e#e#e#e#e#c",
".b#############c",
".b#eee#e#e#e#e#c",
".b#############c",
".aaaaaaaaaaaaaaa",
"................",
"................"
};
