/* XPM */
static char * xchat_xpm[] = {
"32 32 403 2",
"  	c None",
". 	c #000000",
"+ 	c #302B02",
"@ 	c #2A2602",
"# 	c #2A2402",
"$ 	c #302902",
"% 	c #262302",
"& 	c #D1BF02",
"* 	c #C4B203",
"= 	c #151303",
"- 	c #151203",
"; 	c #C4A503",
"> 	c #D1B002",
", 	c #262002",
"' 	c #413A02",
") 	c #D3BD01",
"! 	c #FFE300",
"~ 	c #FFE200",
"{ 	c #BEA803",
"] 	c #2A2502",
"^ 	c #2A2202",
"/ 	c #BE9C03",
"( 	c #FFD000",
"_ 	c #FFCF00",
": 	c #D3AB01",
"< 	c #413402",
"[ 	c #262102",
"} 	c #D3B801",
"| 	c #FEDD00",
"1 	c #FFDD00",
"2 	c #FFDC00",
"3 	c #FBD700",
"4 	c #B79D03",
"5 	c #0D0B02",
"6 	c #0D0A02",
"7 	c #B79203",
"8 	c #FBC800",
"9 	c #FFCA00",
"0 	c #FFC900",
"a 	c #FEC700",
"b 	c #D3A401",
"c 	c #261E02",
"d 	c #403602",
"e 	c #D3B301",
"f 	c #FFD700",
"g 	c #FFD600",
"h 	c #FFD500",
"i 	c #FFD400",
"j 	c #FFD300",
"k 	c #FFD200",
"l 	c #AF9005",
"m 	c #211B02",
"n 	c #211902",
"o 	c #AF8805",
"p 	c #FFC400",
"q 	c #FFC300",
"r 	c #FFC200",
"s 	c #FFC100",
"t 	c #FFC000",
"u 	c #FFBF00",
"v 	c #D39D01",
"w 	c #402F02",
"x 	c #695803",
"y 	c #F6CB01",
"z 	c #FFD100",
"A 	c #FFCE00",
"B 	c #FFCC00",
"C 	c #FFCB00",
"D 	c #F9C501",
"E 	c #A68403",
"F 	c #050401",
"G 	c #A67D03",
"H 	c #F9BA01",
"I 	c #FFBD00",
"J 	c #FFBC00",
"K 	c #FFBB00",
"L 	c #FFBA00",
"M 	c #FFB900",
"N 	c #FFB800",
"O 	c #F6B101",
"P 	c #694C03",
"Q 	c #080601",
"R 	c #6B5705",
"S 	c #F4C101",
"T 	c #FFC800",
"U 	c #FFC700",
"V 	c #FFC600",
"W 	c #FFC500",
"X 	c #9F7804",
"Y 	c #191302",
"Z 	c #191202",
"` 	c #9F7304",
" .	c #FFB700",
"..	c #FFB600",
"+.	c #FFB500",
"@.	c #FFB300",
"#.	c #FFB200",
"$.	c #FFB100",
"%.	c #F4A901",
"&.	c #6B4C05",
"*.	c #060501",
"=.	c #7E6204",
"-.	c #F3B801",
";.	c #FFBE00",
">.	c #F6B301",
",.	c #966D04",
"'.	c #020101",
").	c #966A04",
"!.	c #F6AC01",
"~.	c #FFB000",
"{.	c #FFAF00",
"].	c #FFAE00",
"^.	c #FFAD00",
"/.	c #FFAC00",
"(.	c #F3A301",
"_.	c #7E5604",
":.	c #040301",
"<.	c #5E4604",
"[.	c #EFAD02",
"}.	c #FFB400",
"|.	c #8F6303",
"1.	c #140E01",
"2.	c #8F6103",
"3.	c #FFAB00",
"4.	c #FFA900",
"5.	c #FFA800",
"6.	c #FFA700",
"7.	c #FFA600",
"8.	c #FFA500",
"9.	c #EF9A02",
"0.	c #5E3E04",
"a.	c #030201",
"b.	c #705004",
"c.	c #EDA502",
"d.	c #F3A101",
"e.	c #845905",
"f.	c #845805",
"g.	c #F39E01",
"h.	c #FFA400",
"i.	c #FFA300",
"j.	c #FFA200",
"k.	c #FFA100",
"l.	c #FFA000",
"m.	c #ED9402",
"n.	c #704804",
"o.	c #4E3603",
"p.	c #E99A01",
"q.	c #FF9F00",
"r.	c #FF9E00",
"s.	c #FF9D00",
"t.	c #FF9C00",
"u.	c #FF9B00",
"v.	c #FF9A00",
"w.	c #FF9900",
"x.	c #E98C01",
"y.	c #4E3003",
"z.	c #010100",
"A.	c #634104",
"B.	c #E79202",
"C.	c #FF9800",
"D.	c #FF9700",
"E.	c #FF9600",
"F.	c #FF9500",
"G.	c #FF9400",
"H.	c #E78602",
"I.	c #633A04",
"J.	c #664F2B",
"K.	c #E7A644",
"L.	c #F69913",
"M.	c #FF9300",
"N.	c #FF9200",
"O.	c #FF9100",
"P.	c #FF9000",
"Q.	c #FF8F00",
"R.	c #FF8E00",
"S.	c #FF8D00",
"T.	c #E37D01",
"U.	c #422604",
"V.	c #AAAAAA",
"W.	c #E1DFDC",
"X.	c #C3904E",
"Y.	c #F18700",
"Z.	c #F08600",
"`.	c #F08500",
" +	c #F18400",
".+	c #FA8800",
"++	c #FF8900",
"@+	c #F58300",
"#+	c #F18000",
"$+	c #D67202",
"%+	c #542E02",
"&+	c #E2E2E2",
"*+	c #929292",
"=+	c #DEDEDE",
"-+	c #EEEEEE",
";+	c #DFDFDF",
">+	c #EFEFEF",
",+	c #E2B586",
"'+	c #E67500",
")+	c #ECE1D6",
"!+	c #F0F0F0",
"~+	c #EDEDED",
"{+	c #ECECEC",
"]+	c #C4C4C4",
"^+	c #EBEBEB",
"/+	c #F5F5F5",
"(+	c #A6A6A6",
"_+	c #696969",
":+	c #5B5B5B",
"<+	c #CACACA",
"[+	c #B1A090",
"}+	c #8D6E51",
"|+	c #CCB7A3",
"1+	c #C45F00",
"2+	c #F6F6F6",
"3+	c #8D725A",
"4+	c #6C5E52",
"5+	c #575757",
"6+	c #7C7C7C",
"7+	c #424242",
"8+	c #FAFAFA",
"9+	c #727272",
"0+	c #040201",
"a+	c #B0AFAE",
"b+	c #997453",
"c+	c #FD7800",
"d+	c #FF7800",
"e+	c #EF9B53",
"f+	c #CBB7A6",
"g+	c #C05600",
"h+	c #9A4300",
"i+	c #F46B01",
"j+	c #4B2204",
"k+	c #050301",
"l+	c #737373",
"m+	c #F1F1F1",
"n+	c #FCFCFC",
"o+	c #7D7D7D",
"p+	c #3D1E03",
"q+	c #D7BEA9",
"r+	c #9D7454",
"s+	c #FF7200",
"t+	c #FF7100",
"u+	c #EF9854",
"v+	c #CCB7A8",
"w+	c #C05200",
"x+	c #9A4408",
"y+	c #F16300",
"z+	c #D35703",
"A+	c #421D04",
"B+	c #F2F2F2",
"C+	c #FDFDFD",
"D+	c #DAD7D4",
"E+	c #CA5802",
"F+	c #F5C29B",
"G+	c #F9F7F6",
"H+	c #996D4E",
"I+	c #FF6A00",
"J+	c #FF6900",
"K+	c #F0904E",
"L+	c #FCF8F7",
"M+	c #C0AA9B",
"N+	c #C24C00",
"O+	c #FBF4F0",
"P+	c #FEFEFE",
"Q+	c #E1A480",
"R+	c #D54F01",
"S+	c #CECECE",
"T+	c #757575",
"U+	c #6F6F6F",
"V+	c #5D5D5D",
"W+	c #675D56",
"X+	c #856047",
"Y+	c #BA4C00",
"Z+	c #F37B2B",
"`+	c #976B4E",
" @	c #8B4315",
".@	c #FF6400",
"+@	c #FF6300",
"@@	c #C05919",
"#@	c #605752",
"$@	c #3F342D",
"%@	c #AF4203",
"&@	c #D57A47",
"*@	c #966C55",
"=@	c #916A55",
"-@	c #8C4C2B",
";@	c #DB4B00",
">@	c #D17648",
",@	c #5F5049",
"'@	c #010101",
")@	c #767676",
"!@	c #707070",
"~@	c #464646",
"{@	c #311402",
"]@	c #E25803",
"^@	c #FF6100",
"/@	c #FF6000",
"(@	c #FF5F00",
"_@	c #FF5E00",
":@	c #FF5D00",
"<@	c #FB5B00",
"[@	c #BD4704",
"}@	c #140903",
"|@	c #BD4204",
"1@	c #FB5400",
"2@	c #FF5300",
"3@	c #FF5200",
"4@	c #FF5100",
"5@	c #FF5000",
"6@	c #FF4F00",
"7@	c #E24703",
"8@	c #311002",
"9@	c #2D1203",
"0@	c #C24703",
"a@	c #FF5C00",
"b@	c #FF5B00",
"c@	c #FF5A00",
"d@	c #FF5900",
"e@	c #FF5800",
"f@	c #FF5700",
"g@	c #B63F03",
"h@	c #291002",
"i@	c #290F02",
"j@	c #B63A03",
"k@	c #FF4D00",
"l@	c #FF4C00",
"m@	c #FF4B00",
"n@	c #FF4A00",
"o@	c #FF4900",
"p@	c #FF4800",
"q@	c #C23703",
"r@	c #2D0E03",
"s@	c #260E03",
"t@	c #D64A04",
"u@	c #FF5500",
"v@	c #FF5400",
"w@	c #F94F01",
"x@	c #AF3A04",
"y@	c #0C0502",
"z@	c #AF3304",
"A@	c #F94301",
"B@	c #FF4300",
"C@	c #FF4200",
"D@	c #FF4100",
"E@	c #FF4000",
"F@	c #FF3F00",
"G@	c #D63604",
"H@	c #260B03",
"I@	c #170801",
"J@	c #A63603",
"K@	c #FF4E00",
"L@	c #A83404",
"M@	c #210C03",
"N@	c #210B03",
"O@	c #A82C04",
"P@	c #FF3C00",
"Q@	c #FF3B00",
"R@	c #FF3A00",
"S@	c #FF3900",
"T@	c #FF3800",
"U@	c #FF3700",
"V@	c #A62603",
"W@	c #170601",
"X@	c #010000",
"Y@	c #4A1702",
"Z@	c #E94301",
"`@	c #FF4700",
" #	c #FF4600",
".#	c #FF4500",
"+#	c #F64201",
"@#	c #A22D03",
"##	c #060301",
"$#	c #060201",
"%#	c #A22503",
"&#	c #F63301",
"*#	c #FF3200",
"=#	c #FF3100",
"-#	c #FF3000",
";#	c #E92C01",
">#	c #4A1002",
",#	c #641C02",
"'#	c #E93C01",
")#	c #FF3E00",
"!#	c #9A2905",
"~#	c #1B0802",
"{#	c #1B0702",
"]#	c #9A2005",
"^#	c #FF2C00",
"/#	c #FF2B00",
"(#	c #E92701",
"_#	c #641302",
":#	c #4A1202",
"<#	c #DD3202",
"[#	c #932304",
"}#	c #030101",
"|#	c #931904",
"1#	c #DD2202",
"2#	c #4A0D02",
"3#	c #350C02",
"4#	c #150501",
"5#	c #150401",
"6#	c #350902",
"                                                                ",
"                                                                ",
"          . + @                                 # $ .           ",
"        . % & * =                             - ; > , .         ",
"      . ' ) ! ~ { ]                         ^ / ( _ : < .       ",
"    . [ } | 1 2 3 4 5                     6 7 8 9 0 a b c .     ",
"    d e f g h i j k l m                 n o p q r s t u v w     ",
"  . x y z ( _ A B C D E F             F G H I J K L M N O P .   ",
"    Q R S T U V W p r s X Y         Z ` N  ...+.@.#.$.%.&.Q     ",
"      *.=.-.t u ;.I J K >.,.'.    '.).!.$.~.{.].^./.(._.*.      ",
"        :.<.[. ...+.}.@.#.$.|.1.1.2.3.3.4.5.6.7.8.9.0.:.        ",
"          a.b.c.~.{.].^.3.3.d.e.f.g.8.h.i.j.k.l.m.n.a.          ",
"            '.o.p.6.7.8.h.i.k.k.q.r.s.t.u.v.w.x.y.'.            ",
"              z.A.B.q.r.s.t.u.v.w.C.D.E.F.G.H.I.z.              ",
"                . J.K.L.F.G.M.N.O.P.Q.R.S.T.U..                 ",
"                  V.W.X.Y.Z.`. +.+++@+#+$+%+.           &+*+    ",
"  =+-+-+-+-+-+;+  ;+>+>+>+>+>+>+,+'+)+!+!+!+!+!+~+    {+!+!+]+  ",
"  ^+/+(+_+_+_+:+  <+/+[+}+}+[+/+|+1+2+2+3+4+5+_+2+6+  {+2+(+7+  ",
"  >+8+9+        0+a+8+b+c+d+e+8+f+g+8+8+h+i+j+k+8+{+  !+8+l+    ",
"  m+n+o+      . p+q+n+r+s+t+u+n+v+w+n+n+x+y+z+A+n+n+  B+n+o+    ",
"  >+C+C+C+C+C+D+E+F+G+H+I+J+K+L+M+N+O+P+P+P+Q+R+O+m+  ~+P+P+S+  ",
"    T+U+_+V+W+X+Y+Z+`+ @.@+@@@#@$@%@&@*@=@=@-@;@>@,@'@  )@!@~@  ",
"        z.{@]@^@/@(@_@:@<@[@}@    }@|@1@2@3@4@5@6@7@8@z.        ",
"        9@0@a@b@c@d@e@f@g@h@        i@j@k@l@m@n@o@p@q@r@        ",
"    . s@t@u@v@2@3@4@w@x@y@            y@z@A@B@C@D@E@F@G@H@.     ",
"    I@J@5@6@K@k@m@n@L@M@                N@O@P@Q@R@S@T@U@V@W@    ",
"    X@Y@Z@`@ #.#+#@###                    $#%#&#*#=#-#;#>#X@    ",
"      X@,#'#F@)#!#~#                        {#]#^#/#(#_#X@      ",
"        X@:#<#[#}#                            }#|#1#2#X@        ",
"          X@3#4#                                5#6#X@          ",
"                                                                ",
"                                                                "};
