/* XPM */
static char * xchat16_xpm[] = {
"16 16 127 2",
"  	c None",
". 	c #100F01",
"+ 	c #7F7302",
"@ 	c #7F6B02",
"# 	c #100E01",
"$ 	c #BBA501",
"% 	c #FFE000",
"& 	c #A99302",
"* 	c #A98802",
"= 	c #FFCC00",
"- 	c #BB9401",
"; 	c #100D01",
"> 	c #9E8402",
", 	c #FFD400",
"' 	c #FFD200",
") 	c #FFCF00",
"! 	c #9F8003",
"~ 	c #9F7903",
"{ 	c #FFC000",
"] 	c #FFBE00",
"^ 	c #FFBC00",
"/ 	c #9E7302",
"( 	c #292102",
"_ 	c #D9A901",
": 	c #FFC300",
"< 	c #FFC100",
"[ 	c #956E03",
"} 	c #956A03",
"| 	c #FFB400",
"1 	c #FFB200",
"2 	c #FFB000",
"3 	c #D99501",
"4 	c #291D02",
"5 	c #231A02",
"6 	c #D39602",
"7 	c #FFAE00",
"8 	c #8C5E03",
"9 	c #8C5D03",
"0 	c #FFA800",
"a 	c #FFA600",
"b 	c #FFA400",
"c 	c #D38702",
"d 	c #231702",
"e 	c #1D1401",
"f 	c #CD8502",
"g 	c #FFA200",
"h 	c #FFA000",
"i 	c #FF9E00",
"j 	c #FF9C00",
"k 	c #FF9A00",
"l 	c #FF9800",
"m 	c #CD7A02",
"n 	c #1D1201",
"o 	c #595144",
"p 	c #E0AC60",
"q 	c #F88E00",
"r 	c #F88C00",
"s 	c #FE8C00",
"t 	c #F98800",
"u 	c #C36B01",
"v 	c #190E02",
"w 	c #E0E0E0",
"x 	c #B4B4B4",
"y 	c #ACACAC",
"z 	c #979797",
"A 	c #E1DDD9",
"B 	c #BEAEA0",
"C 	c #D6904A",
"D 	c #F2EFEC",
"E 	c #B6ACA3",
"F 	c #CDCDCD",
"G 	c #E4E4E4",
"H 	c #E1E1E1",
"I 	c #C3C3C3",
"J 	c #7B6C5E",
"K 	c #CBB8A7",
"L 	c #FE7500",
"M 	c #F5CAA7",
"N 	c #C68654",
"O 	c #FBFBFB",
"P 	c #C65502",
"Q 	c #602903",
"R 	c #F8F8F8",
"S 	c #C4C4C4",
"T 	c #C2C2C2",
"U 	c #B6B6B6",
"V 	c #B1A49C",
"W 	c #DB7832",
"X 	c #AD846A",
"Y 	c #FF6600",
"Z 	c #C48E6C",
"` 	c #9D5B33",
" .	c #D9B6A2",
"..	c #C8B4AA",
"+.	c #C7622B",
"@.	c #C7AB9D",
"#.	c #606060",
"$.	c #521F02",
"%.	c #F85C01",
"&.	c #FF5C00",
"*.	c #FF5A00",
"=.	c #A83D02",
"-.	c #A83902",
";.	c #FF5000",
">.	c #FF4E00",
",.	c #F84A01",
"'.	c #521802",
").	c #421602",
"!.	c #F55001",
"~.	c #A03303",
"{.	c #A02C03",
"].	c #FF3F00",
"^.	c #FF3D00",
"/.	c #F53901",
"(.	c #421002",
"_.	c #1D0901",
":.	c #CE3901",
"<.	c #FF4200",
"[.	c #982903",
"}.	c #982103",
"|.	c #FF2E00",
"1.	c #CE2601",
"2.	c #1D0601",
"3.	c #1D0701",
"4.	c #731A02",
"5.	c #731302",
"6.	c #1D0501",
"                                ",
"    . +                 @ #     ",
"  # $ % &             * = - ;   ",
"  > , ' ) !         ~ { ] ^ /   ",
"  ( _ : < ] [     } | 1 2 3 4   ",
"    5 6 1 2 7 8 9 0 a b c d     ",
"      e f g h i j k l m n       ",
"        o p q r s t u v         ",
"  w x y z A B A C D E y F G H   ",
"  I     J K L M N O P Q R   S   ",
"  T U V W X Y Z `  ...+.@.#.I   ",
"    $.%.&.*.=.    -.;.>.,.'.    ",
"  ).!.;.>.~.        {.].^./.(.  ",
"  _.:.<.[.            }.|.1.2.  ",
"    3.4.                5.6.    ",
"                                "};
