/* XPM */
static char * xmms16_xpm[] = {
"16 16 31 1",
" 	c None",
".	c #3B3B3B",
"+	c #000000",
"@	c #401400",
"#	c #555555",
"$	c #F4F4F4",
"%	c #949494",
"&	c #55553B",
"*	c #FF942C",
"=	c #805800",
"-	c #F0F0F0",
";	c #553A00",
">	c #BF802C",
",	c #BF8300",
"'	c #B4B4B4",
")	c #FFBF58",
"!	c #FF9700",
"~	c #7C683C",
"{	c #787878",
"]	c #FFAF00",
"^	c #FFC32C",
"/	c #2C2C2C",
"(	c #FFD758",
"_	c #FF8000",
":	c #804000",
"<	c #BCBCBC",
"[	c #E0E0E0",
"}	c #BFAB58",
"|	c #7C7C7C",
"1	c #BF9458",
"2	c #806C40",
"       .     +@ ",
"      #$%   &*= ",
"     #$--%;>*,  ",
"    #$--'=)!,   ",
"   #$--~,)!,+   ",
"  #$-{=]^!]~/   ",
" #$'=]((^]]_:%  ",
"#$-{]!_)]!_]=-% ",
" <-{==(]_!]='-[.",
"  <-'}!_],~--[. ",
"   |}_!]='--[.  ",
"   1_],~---[.   ",
"  1!]2'---[.    ",
" :!,+ <--[.     ",
" =;    <[.      ",
" +      #       "};
