/* XPM */
static char *xterm16[] = {
/* width height num_colors chars_per_pixel */
"    16    16       11            1",
/* colors */
". c None",
"# c #808080",
"a c #000000",
"b c #ffffff",
"c c #c0c0c0",
"d c #008080",
"e c #00ffff",
"f c #0000ff",
"g c #000080",
"h c #00ff00",
"i c #008000",
/* pixels */
"...#########....",
"..a#bbbbbbbb#...",
"..a#b#######b...",
"..a#bddddddab...",
"..a#bddabbeab...",
"..a#bdabbbdab...",
"..a#bdabbddab...",
"..a#b#######b...",
".#a#ccccccccb...",
".##aaaaaaaaaa...",
".##bbbbbbbbbbb#.",
".##c#####ccccc#.",
".##cc#ccccccic#.",
".a#b#ab#ab#ab##.",
"..a###a##a##a###",
"...acccccccccccc"
};
