/* XPM */
static char * anjuta16_xpm[] = {
"16 16 188 2",
"  	c None",
". 	c #2A455C",
"+ 	c #70787E",
"@ 	c #5F6E7F",
"# 	c #25465D",
"$ 	c #5B7284",
"% 	c #98A1A9",
"& 	c #A2B0BD",
"* 	c #A7BAD0",
"= 	c #ABBBCD",
"- 	c #A2ADB6",
"; 	c #909EA8",
"> 	c #425F76",
", 	c #85949E",
"' 	c #96A8BA",
") 	c #7396BC",
"! 	c #8DB4DF",
"~ 	c #789AC0",
"{ 	c #6F8EAF",
"] 	c #8CB4DE",
"^ 	c #80A2C8",
"/ 	c #A3AEBB",
"( 	c #667D8D",
"_ 	c #85929E",
": 	c #849DBA",
"< 	c #7DA2CB",
"[ 	c #2A313C",
"} 	c #8EB1DC",
"| 	c #4E6076",
"1 	c #455567",
"2 	c #8AACD4",
"3 	c #8BB0D8",
"4 	c #82AAD6",
"5 	c #95A6B8",
"6 	c #5E7688",
"7 	c #5B6F80",
"8 	c #90A2B6",
"9 	c #82A6D0",
"0 	c #81A4CA",
"a 	c #47596B",
"b 	c #8AA8CA",
"c 	c #7C97B5",
"d 	c #6E859E",
"e 	c #92B2D6",
"f 	c #8BAED6",
"g 	c #87AAD0",
"h 	c #7CA2CD",
"i 	c #A2A9B2",
"j 	c #2E4D65",
"k 	c #8D979F",
"l 	c #6F94BB",
"m 	c #80A4CC",
"n 	c #7C9ABA",
"o 	c #5D7086",
"p 	c #93AFCE",
"q 	c #97B2D2",
"r 	c #697C93",
"s 	c #2F3742",
"t 	c #809AB7",
"u 	c #89A9CD",
"v 	c #7FA4CC",
"w 	c #7390B0",
"x 	c #728490",
"y 	c #294050",
"z 	c #909CA8",
"A 	c #6B8EB6",
"B 	c #7A99B9",
"C 	c #394552",
"D 	c #93AECE",
"E 	c #95AFCC",
"F 	c #98B0CA",
"G 	c #98B1CD",
"H 	c #8298B0",
"I 	c #313D4A",
"J 	c #6898CE",
"K 	c #719ACA",
"L 	c #6E93BC",
"M 	c #8A9197",
"N 	c #254A6A",
"O 	c #626A72",
"P 	c #8B9CAF",
"Q 	c #445A73",
"R 	c #3C4A5B",
"S 	c #546374",
"T 	c #94ABC5",
"U 	c #8497AB",
"V 	c #9AB0C8",
"W 	c #9BB0C8",
"X 	c #8AACD3",
"Y 	c #638FC1",
"Z 	c #1B2E44",
"` 	c #3976B8",
" .	c #5488C4",
"..	c #889098",
"+.	c #264C6A",
"@.	c #202E3C",
"#.	c #4D6075",
"$.	c #425972",
"%.	c #080A0D",
"&.	c #7A8EA4",
"*.	c #91A7BE",
"=.	c #48505A",
"-.	c #9EB0C6",
";.	c #98B6D7",
">.	c #8BB5E2",
",.	c #7EACDF",
"'.	c #5680AE",
").	c #14202E",
"!.	c #1E63AE",
"~.	c #3A4753",
"{.	c #234861",
"].	c #1E384C",
"^.	c #465C71",
"/.	c #305E8F",
"(.	c #181C22",
"_.	c #8AA2BA",
":.	c #94A7BC",
"<.	c #515B66",
"[.	c #4A5661",
"}.	c #6A7F94",
"|.	c #8AA8C8",
"1.	c #8FB7E5",
"2.	c #75A6DD",
"3.	c #4C83BD",
"4.	c #0C2A50",
"5.	c #4D565E",
"6.	c #1C405A",
"7.	c #606A71",
"8.	c #2365AD",
"9.	c #3E5F84",
"0.	c #83A0C0",
"a.	c #98B0CC",
"b.	c #AFCAE6",
"c.	c #A3BBD2",
"d.	c #AAC1D8",
"e.	c #A2BBD6",
"f.	c #85A4C6",
"g.	c #597BA0",
"h.	c #2A4562",
"i.	c #2A4059",
"j.	c #485662",
"k.	c #374E61",
"l.	c #758CA9",
"m.	c #4085D0",
"n.	c #7AAADE",
"o.	c #A2C4EA",
"p.	c #BFD8F0",
"q.	c #A0AFBF",
"r.	c #ACBCC9",
"s.	c #BDD7F0",
"t.	c #A4C4E8",
"u.	c #4E6E91",
"v.	c #26568C",
"w.	c #88919C",
"x.	c #1B3447",
"y.	c #687782",
"z.	c #7092B8",
"A.	c #5B94D5",
"B.	c #A0C2E8",
"C.	c #C8DCF0",
"D.	c #D6E2EE",
"E.	c #787D82",
"F.	c #C8DCF2",
"G.	c #9FC2E8",
"H.	c #578FCE",
"I.	c #91A4B7",
"J.	c #3E505E",
"K.	c #61717E",
"L.	c #92A2B2",
"M.	c #6F97C3",
"N.	c #B2CAE8",
"O.	c #E8F1F6",
"P.	c #EAF2F8",
"Q.	c #AFC8E3",
"R.	c #7E9EC1",
"S.	c #9AA4AE",
"T.	c #2A4153",
"U.	c #737E86",
"V.	c #889096",
"W.	c #A2A6AA",
"X.	c #A3A6A9",
"Y.	c #868A8F",
"Z.	c #626E78",
"`.	c #1B3042",
" +	c #19374E",
".+	c #1C3B54",
"++	c #1C3951",
"@+	c #16364E",
"            . + @ #             ",
"        $ % & * = - ; >         ",
"      , ' ) ! ~ { ] ^ / (       ",
"    _ : < [ } | 1 2 3 4 5 6     ",
"  7 8 9 0 a b c d e f g h i j   ",
"  k l m n o p q r s t u v w x   ",
"y z A B C D E F G H I J K L M N ",
"O P Q R S T U V W X Y Z `  ...+.",
"@.#.$.%.&.*.=.-.;.>.,.'.).!.~.{.",
"].^./.(._.:.<.[.}.|.1.2.3.4.5.6.",
"  7.8.9.0.a.b.c.d.e.f.g.h.i.j.  ",
"  k.l.m.n.o.p.q.r.s.t.u.v.w.x.  ",
"    y.z.A.B.C.D.E.F.G.H.I.J.    ",
"      K.L.M.N.O.P.Q.R.S.J.      ",
"        T.U.V.W.X.Y.Z.`.        ",
"             +.+++@+            "};
