/* XPM */
static char * controlpanel_xpm[] = {
"32 32 400 2",
"  	c None",
". 	c #E1E2E0",
"+ 	c #DFE0DF",
"@ 	c #C7C6C5",
"# 	c #A5A3A2",
"$ 	c #A8A8A8",
"% 	c #9F9F9E",
"& 	c #EEEBEA",
"* 	c #EAE9E7",
"= 	c #A0A5A7",
"- 	c #A8A9A6",
"; 	c #919290",
"> 	c #DAD6D1",
", 	c #C3C2BC",
"' 	c #84827F",
") 	c #989998",
"! 	c #D1D4D3",
"~ 	c #777F84",
"{ 	c #989593",
"] 	c #A9A9A8",
"^ 	c #D8D9D7",
"/ 	c #93908F",
"( 	c #7E7E7B",
"_ 	c #CECCC8",
": 	c #CDC8C3",
"< 	c #928F88",
"[ 	c #A8A7A8",
"} 	c #777E81",
"| 	c #D8D7D4",
"1 	c #DBD9D7",
"2 	c #C2BFBC",
"3 	c #979794",
"4 	c #E9EAE9",
"5 	c #C1C2C1",
"6 	c #757271",
"7 	c #E3E1DB",
"8 	c #C1BFBA",
"9 	c #6C6B6B",
"0 	c #E7E7E7",
"a 	c #CDD0D0",
"b 	c #747B80",
"c 	c #E8E8E8",
"d 	c #D8D9D8",
"e 	c #DBD9D8",
"f 	c #BBBAB5",
"g 	c #878786",
"h 	c #DEDFDE",
"i 	c #B5B4B3",
"j 	c #B3B4B7",
"k 	c #CACFD1",
"l 	c #858581",
"m 	c #E7E5E0",
"n 	c #BABAB4",
"o 	c #616161",
"p 	c #E0E0DE",
"q 	c #A9ACAC",
"r 	c #DBDADB",
"s 	c #E0E1DE",
"t 	c #E5E3E2",
"u 	c #DFDCD5",
"v 	c #82817D",
"w 	c #AAABAA",
"x 	c #CAC9C9",
"y 	c #C5C5C3",
"z 	c #BCB8B1",
"A 	c #A09E9D",
"B 	c #DEDEDE",
"C 	c #C3C5C3",
"D 	c #898684",
"E 	c #D6D2D0",
"F 	c #BDBAAE",
"G 	c #98958D",
"H 	c #585758",
"I 	c #D6D6D6",
"J 	c #BCBBBC",
"K 	c #EAECEA",
"L 	c #E2E2E1",
"M 	c #E0E0DC",
"N 	c #999892",
"O 	c #929492",
"P 	c #BCBCBB",
"Q 	c #9E9D9E",
"R 	c #DEDBD9",
"S 	c #9E9C97",
"T 	c #6C6C6C",
"U 	c #7C7D7C",
"V 	c #DFDEDB",
"W 	c #E4E1DC",
"X 	c #B6B0A8",
"Y 	c #908D88",
"Z 	c #282628",
"` 	c #8D8B8D",
" .	c #E5E6E5",
"..	c #878687",
"+.	c #EEEEEE",
"@.	c #DBD9D3",
"#.	c #ABA9A2",
"$.	c #696B68",
"%.	c #979795",
"&.	c #A9A9A9",
"*.	c #E8E6E6",
"=.	c #E0E0DB",
"-.	c #F0EEED",
";.	c #DCD8D2",
">.	c #BEB9AE",
",.	c #A7A49D",
"'.	c #CAC9C1",
").	c #CECAC1",
"!.	c #A09D95",
"~.	c #82817F",
"{.	c #A9A8A9",
"].	c #EBEAEA",
"^.	c #E9E9E7",
"/.	c #989895",
"(.	c #F0EEE8",
"_.	c #C6C2B6",
":.	c #928F85",
"<.	c #666862",
"[.	c #EAE9E9",
"}.	c #808280",
"|.	c #8D8A84",
"1.	c #F0F1EF",
"2.	c #E8E3DC",
"3.	c #A5A096",
"4.	c #585651",
"5.	c #7A7674",
"6.	c #C5C3BA",
"7.	c #D5D0C7",
"8.	c #CEC9BF",
"9.	c #D2D0C5",
"0.	c #B2B2A9",
"a.	c #6D6B6B",
"b.	c #B0B1B0",
"c.	c #989795",
"d.	c #C9C8C7",
"e.	c #A4A19A",
"f.	c #999693",
"g.	c #C0C2BF",
"h.	c #DBDCDB",
"i.	c #E2E1E1",
"j.	c #B0AEB0",
"k.	c #575755",
"l.	c #605E5D",
"m.	c #696866",
"n.	c #A8A7A4",
"o.	c #979796",
"p.	c #7A756F",
"q.	c #9B9995",
"r.	c #DDDBD6",
"s.	c #D3CDC5",
"t.	c #CEC8BE",
"u.	c #DDD8D4",
"v.	c #A09E97",
"w.	c #5D5B5A",
"x.	c #797979",
"y.	c #858785",
"z.	c #E4E5E4",
"A.	c #D1D2D0",
"B.	c #C5C9CE",
"C.	c #C8C6C8",
"D.	c #CDCECD",
"E.	c #CECFCD",
"F.	c #C0BFBD",
"G.	c #6B6A6A",
"H.	c #78756F",
"I.	c #DAD6CE",
"J.	c #E3E2D9",
"K.	c #CBC6BC",
"L.	c #CBC6C0",
"M.	c #D0CCC6",
"N.	c #A2A19A",
"O.	c #75726E",
"P.	c #B5B5B5",
"Q.	c #E8E6E4",
"R.	c #E7E6E7",
"S.	c #E8E7E8",
"T.	c #E9E9E8",
"U.	c #E4E6EA",
"V.	c #D7D8D7",
"W.	c #B0B0AE",
"X.	c #6D6A66",
"Y.	c #A49F9A",
"Z.	c #E3E0DD",
"`.	c #E0DED4",
" +	c #CAC6BA",
".+	c #D0CBBF",
"++	c #E0DDD6",
"@+	c #989790",
"#+	c #929190",
"$+	c #B8B7B7",
"%+	c #ECEBEB",
"&+	c #E1E0E0",
"*+	c #747574",
"=+	c #484540",
"-+	c #676462",
";+	c #D1D1C8",
">+	c #EAE6DF",
",+	c #DAD6CC",
"'+	c #C8C5BC",
")+	c #D3CFC4",
"!+	c #CFCCC7",
"~+	c #A6A49F",
"{+	c #686668",
"]+	c #CFCDCD",
"^+	c #C8C9C7",
"/+	c #70716F",
"(+	c #636260",
"_+	c #8A8882",
":+	c #43433E",
"<+	c #605D5C",
"[+	c #A3A19B",
"}+	c #E0DDD8",
"|+	c #E8E5DE",
"1+	c #D6D2CA",
"2+	c #C6C1B6",
"3+	c #D2CFC6",
"4+	c #CAC9BF",
"5+	c #6A6865",
"6+	c #92928F",
"7+	c #C6C5C6",
"8+	c #C6C4C4",
"9+	c #898C8F",
"0+	c #949BA2",
"a+	c #4B5056",
"b+	c #504E49",
"c+	c #5A554C",
"d+	c #ACADAA",
"e+	c #C8C7C7",
"f+	c #959393",
"g+	c #605E5C",
"h+	c #D4D2CC",
"i+	c #EDEBE6",
"j+	c #E4E0D8",
"k+	c #CDC9C1",
"l+	c #C8C6BB",
"m+	c #D7D2CA",
"n+	c #BBB7B0",
"o+	c #92918B",
"p+	c #9B9A9A",
"q+	c #EDEBED",
"r+	c #E8EAE8",
"s+	c #8D8F8C",
"t+	c #7F8996",
"u+	c #8D9FB3",
"v+	c #859CB0",
"w+	c #839AAC",
"x+	c #465868",
"y+	c #383A3A",
"z+	c #DFDEDD",
"A+	c #C9C9C8",
"B+	c #737371",
"C+	c #88837E",
"D+	c #D8D5D1",
"E+	c #EBE8E2",
"F+	c #DFD9D1",
"G+	c #CBC7BC",
"H+	c #C4C2B6",
"I+	c #B9B5B0",
"J+	c #AAA8A0",
"K+	c #757571",
"L+	c #EBEBEA",
"M+	c #868989",
"N+	c #99A3AF",
"O+	c #708293",
"P+	c #6D8398",
"Q+	c #8A9EB0",
"R+	c #617D93",
"S+	c #2B4961",
"T+	c #2B3540",
"U+	c #E4E8EB",
"V+	c #D3D2CE",
"W+	c #A8A9A7",
"X+	c #807F7D",
"Y+	c #94938D",
"Z+	c #EBE6E2",
"`+	c #E6E5DF",
" @	c #B6B2A9",
".@	c #363432",
"+@	c #938D85",
"@@	c #686968",
"#@	c #C8C7C6",
"$@	c #E0E1E0",
"%@	c #888B8F",
"&@	c #90A2B1",
"*@	c #667B8C",
"=@	c #7C96AC",
"-@	c #8EA5BA",
";@	c #859AAB",
">@	c #2E4B62",
",@	c #0D2A45",
"'@	c #464F58",
")@	c #E4E5E3",
"!@	c #D2D2D0",
"~@	c #989594",
"{@	c #6B6B67",
"]@	c #B0ABA6",
"^@	c #BCBBB3",
"/@	c #DDDEDB",
"(@	c #74736F",
"_@	c #C9C7C9",
":@	c #86888B",
"<@	c #98A9B9",
"[@	c #627788",
"}@	c #748DA1",
"|@	c #859EB3",
"1@	c #9AADBE",
"2@	c #314C62",
"3@	c #081F36",
"4@	c #394251",
"5@	c #99979A",
"6@	c #E8E9E7",
"7@	c #DFDCDB",
"8@	c #AFB2B1",
"9@	c #868581",
"0@	c #6E6C67",
"a@	c #AAA7A2",
"b@	c #949189",
"c@	c #6B6B69",
"d@	c #D4D4D4",
"e@	c #E5E5E5",
"f@	c #87868A",
"g@	c #99AAB9",
"h@	c #667B8F",
"i@	c #7E93A7",
"j@	c #7E9AB0",
"k@	c #90A5B8",
"l@	c #455F75",
"m@	c #102339",
"n@	c #354A59",
"o@	c #5F5E65",
"p@	c #D6D6D5",
"q@	c #E8E6E5",
"r@	c #DCDDDC",
"s@	c #BFBDBE",
"t@	c #8B8887",
"u@	c #7C7D7E",
"v@	c #C1BFBF",
"w@	c #ACAEB0",
"x@	c #AEB9C3",
"y@	c #6D7E8F",
"z@	c #768DA0",
"A@	c #839DB3",
"B@	c #91AABC",
"C@	c #61788C",
"D@	c #0C273E",
"E@	c #1C3247",
"F@	c #484D52",
"G@	c #9B9C9A",
"H@	c #E4E3E2",
"I@	c #DCDDDB",
"J@	c #969CA6",
"K@	c #92A2AF",
"L@	c #8699AA",
"M@	c #96ADC0",
"N@	c #9BAEC2",
"O@	c #688299",
"P@	c #092238",
"Q@	c #162B3C",
"R@	c #434A50",
"S@	c #9E9F9E",
"T@	c #C6D2DD",
"U@	c #ADBBC9",
"V@	c #C0CEDC",
"W@	c #B4C1CE",
"X@	c #6B8498",
"Y@	c #1F364B",
"Z@	c #162A3E",
"`@	c #38434E",
" #	c #686A69",
".#	c #757A7E",
"+#	c #BBC8D7",
"@#	c #9DAEC0",
"##	c #97A8B6",
"$#	c #6E8398",
"%#	c #2A4053",
"&#	c #152A3C",
"*#	c #3D4951",
"=#	c #646465",
"-#	c #E0E0E0",
";#	c #B5B5B7",
">#	c #8D9FB1",
",#	c #72899E",
"'#	c #617A91",
")#	c #586D7F",
"!#	c #2A3C47",
"~#	c #2E3E4A",
"{#	c #666665",
"]#	c #D4D4D2",
"^#	c #606E77",
"/#	c #4D5F68",
"(#	c #576773",
"_#	c #5E6B70",
":#	c #3E4849",
"<#	c #7C7E7D",
"[#	c #E2E3E2",
"}#	c #A4A8A8",
"|#	c #636A6D",
"1#	c #808481",
"2#	c #B0ADAB",
"3#	c #E7E7E6",
"                                                                ",
"                                                                ",
"              . +                                               ",
"            @ # $ % &                         * =               ",
"            - ; > , ' )                     ! ~ { ]             ",
"            ^ / ( _ : < [                   } | 1 2 3           ",
"              4 5 6 7 8 9 0             a b c d e f g h         ",
"      i j       k l m n o p             q r s t u v w           ",
"    x y z A B C D E F G H I             J K L M N O             ",
"    P Q R S T U V W X Y Z `  .          ..+.@.#.$.              ",
"      %.&.*.=.-.;.>.,.'.).!.~.{.].  ^./.(._.:.<.                ",
"      [.}.|.1.2.3.4.5.6.7.8.9.0.a.b.c.d.e.f.g.h.                ",
"        i.j.k.l.m.n.o.p.q.r.s.t.u.v.w.x.y.                      ",
"          z.A.B.C.D.E.F.G.H.I.J.K.L.M.N.O.P.                    ",
"              Q.R.S.T.U.V.W.X.Y.Z.`. +.+++@+#+$+                ",
"                        %+&+*+=+-+;+>+,+'+)+!+~+{+]+            ",
"                        ^+/+(+_+:+<+[+}+|+1+2+3+4+5+6+7+        ",
"                    8+9+0+a+b+c+d+e+f+g+h+i+j+k+l+m+n+o+p+q+    ",
"                r+s+t+u+v+w+x+y+    z+A+B+C+D+E+F+G+H+I+J+K+L+  ",
"                M+N+O+P+Q+R+S+T+      U+V+W+X+Y+Z+`+ @.@+@@@#@  ",
"            $@%@&@*@=@-@;@>@,@'@          )@!@~@{@]@^@_+/@(@_@4 ",
"            :@<@[@}@|@1@2@3@4@5@            6@7@8@9@0@a@b@c@d@4 ",
"        e@f@g@h@i@j@k@l@m@n@o@p@                q@r@s@t@u@v@r@  ",
"        w@x@y@z@A@B@C@D@E@F@G@                      H@^ V.I@[.  ",
"      c J@K@L@M@N@O@P@Q@R@X+                                    ",
"      S@T@U@V@W@X@Y@Z@`@ #.                                     ",
"      .#+#@###$#%#&#*#=#-#                                      ",
"      ;#>#,#'#)#!#~#{#]#                                        ",
"        ^#/#(#_#:#<#                                            ",
"        [#}#|#1#2#3#                                            ",
"                                                                ",
"                                                                "};
