/* XPM */
static char * xterm16_xpm[] = {
"16 16 39 1",
" 	c None",
".	c #808080",
"+	c #404040",
"@	c #A0A0A0",
"#	c #6060A0",
"$	c #000080",
"%	c #606060",
"&	c #C0C0C0",
"*	c #606080",
"=	c #FFFFFF",
"-	c #DFDFDF",
";	c #E0E0E0",
">	c #DFDFBF",
",	c #C0C0A0",
"'	c #B0B0B0",
")	c #808040",
"!	c #FFFF80",
"~	c #909090",
"{	c #606040",
"]	c #DFDF40",
"^	c #A0A040",
"/	c #C0C080",
"(	c #404020",
"_	c #EFEF70",
":	c #BFBFBF",
"<	c #404000",
"[	c #606000",
"}	c #DFDF80",
"|	c #B0B030",
"1	c #808000",
"2	c #A0A000",
"3	c #909070",
"4	c #B0B070",
"5	c #EFEFEF",
"6	c #909030",
"7	c #505030",
"8	c #707070",
"9	c #D0D0D0",
"0	c #202020",
"...............+",
"@##############+",
"@$$$$$$$$$#%&%%+",
"@#########*%%%%+",
"@@&&&&&&&&&&&&&+",
"@&=====-&=====;+",
"@&===>,''%,===;+",
"@&===)!&~{].==;+",
"@&==^^/&~(_):=;+",
"@&==<[}))|[1.=;+",
"@&==@2[1314+5=;+",
"@&===67{[8<:==;+",
"@&=====:.=====;+",
"@&;;;;;;;;;;;;9+",
"+++++++++++++++0",
"                "};
