/* XPM */
static char * pas_xpm[] = {
"32 32 8 1",
" 	c None",
".	c #000000",
"+	c #FFFFFF",
"@	c #C0C0C0",
"#	c #808080",
"$	c #FFFF00",
"%	c #808000",
"&	c #008080",
"      ....................      ",
"      .+++++++++++++++++.+.     ",
"      .++@+@+@+@+@+@+@+@.++.    ",
"      .+@+@+@+@+@+@+@+@+.+++.   ",
"      .++@+@+@+@+@+@+@+@.++++.  ",
"      .+@+@+@+@+@+@+@+@+......  ",
"      .++@+@+@+@+@+@+@+@+@+@+.  ",
"      .+@+@+@..+@+@+@+@+@+@+@.# ",
"      .++@+..++..@+@+@+@+@+@+.##",
"      .+@..+$%%%$..+@+@+@+@+@.##",
"      ...+$%%...%%$..@+@+@+@+.##",
"     ..+$%%.......%%$..+@+@+@.##",
"   ..+$%%#$#$#$#$#$%%%$..@+@+.##",
" ..........................+@.##",
" .+$+$++$$++$+$+$+$$+$++$+.@+.##",
" .$......+$......%+......%.+@.##",
"  .%$$$$%...$$$$...%$$$$%.+@+.##",
"   ......&@......@&......+@+@.##",
"    .$%.&@&@.$%.@&@&.$%.+@+@+.##",
"    .%$.@&@&.%$.&@&@.%$.@+@+@.##",
"    .$%.+@&@.$%.@&@&.$%.+@+@+.##",
"    .+$.++@&.%$.&@&@.%$.@+@+@.##",
"    .$%.+++@.$%.@&@&.$%.+@+@+.##",
"    .+$.++++.+$.&@&@.%$.@+@+@.##",
"    .$%.++++.$%.@&@&.$%.+@+@+.##",
"    .+$.++++.+$.+@&@.+$.@+@+@.##",
"    .$%.++++.$%.++@&.$%.+@+@+.##",
"   ......................+@+@.##",
"   .$$$$%%%%$$$$%%%%$$$$......##",
" .........................######",
"..+++++++++++++++++++++++..#####",
"...........................     "};
