/* XPM */
static char * ethereal_xpm[] = {
"32 32 526 2",
"  	c None",
". 	c #ACB0AC",
"+ 	c #989D98",
"@ 	c #8B908B",
"# 	c #868B86",
"$ 	c #8A8F8A",
"% 	c #979B97",
"& 	c #A7ADA7",
"* 	c #919791",
"= 	c #7A7F7A",
"- 	c #686D68",
"; 	c #666A65",
"> 	c #6C6E6A",
", 	c #6B6E69",
"' 	c #656864",
") 	c #636863",
"! 	c #6A6F6A",
"~ 	c #6B6F6B",
"{ 	c #6F736F",
"] 	c #B8BFB8",
"^ 	c #99A099",
"/ 	c #707470",
"( 	c #898886",
"_ 	c #AFAAA9",
": 	c #CDC6C4",
"< 	c #D7CFCC",
"[ 	c #D4CBC8",
"} 	c #D0C7C3",
"| 	c #CDC3BD",
"1 	c #BEB6AE",
"2 	c #A19C93",
"3 	c #818179",
"4 	c #666964",
"5 	c #656A65",
"6 	c #636763",
"7 	c #C5CAC5",
"8 	c #BCC2BC",
"9 	c #7A7E7A",
"0 	c #9E9D9B",
"a 	c #DAD5D5",
"b 	c #E0DADA",
"c 	c #DFD9D8",
"d 	c #DDD6D6",
"e 	c #DAD3D2",
"f 	c #D7CFCE",
"g 	c #D4CCC9",
"h 	c #D1C8C3",
"i 	c #CDC4BE",
"j 	c #C8BFB7",
"k 	c #C2BAB0",
"l 	c #B8B1A4",
"m 	c #8D8B81",
"n 	c #676A65",
"o 	c #606460",
"p 	c #777A77",
"q 	c #C3C8C3",
"r 	c #ABB0AB",
"s 	c #80817F",
"t 	c #D6D2D2",
"u 	c #E4E0E0",
"v 	c #E4DFE0",
"w 	c #E3DEDE",
"x 	c #E2DCDC",
"y 	c #E0D9D9",
"z 	c #DBD4D3",
"A 	c #CAC3C2",
"B 	c #C7BFBD",
"C 	c #D0C8C4",
"D 	c #CFC6C1",
"E 	c #CBC2BB",
"F 	c #C7BDB5",
"G 	c #C1B9AE",
"H 	c #BBB3A6",
"I 	c #ABA699",
"J 	c #777971",
"K 	c #616561",
"L 	c #626562",
"M 	c #C0C6C0",
"N 	c #9FA49F",
"O 	c #959493",
"P 	c #E4E0E1",
"Q 	c #E6E3E3",
"R 	c #E8E3E4",
"S 	c #E8E3E3",
"T 	c #C8C3C5",
"U 	c #767076",
"V 	c #38323B",
"W 	c #140C17",
"X 	c #0F0711",
"Y 	c #0F070F",
"Z 	c #140C13",
"` 	c #362D31",
" .	c #6A6160",
"..	c #B1A7A1",
"+.	c #C4BBB1",
"@.	c #BFB6AB",
"#.	c #AFAA9B",
"$.	c #83847B",
"%.	c #5F625F",
"&.	c #BFC4BF",
"*.	c #A4AAA4",
"=.	c #949391",
"-.	c #E5E1E1",
";.	c #E7E4E4",
">.	c #EAE6E6",
",.	c #DAD5D6",
"'.	c #615C64",
").	c #100A17",
"!.	c #0E0713",
"~.	c #0E0712",
"{.	c #0E0711",
"].	c #0F0710",
"^.	c #0F070E",
"/.	c #10070C",
"(.	c #10070B",
"_.	c #231A1C",
":.	c #C3BAB1",
"<.	c #C0B8AC",
"[.	c #BBB3A7",
"}.	c #B4AEA0",
"|.	c #ABA798",
"1.	c #82847B",
"2.	c #5E625E",
"3.	c #6E706E",
"4.	c #A6AEA6",
"5.	c #7E7F7D",
"6.	c #E3DEDF",
"7.	c #E7E3E3",
"8.	c #BEB9BC",
"9.	c #251F2B",
"0.	c #0E0814",
"a.	c #39333B",
"b.	c #877F84",
"c.	c #B6AEAE",
"d.	c #C9C1BF",
"e.	c #C4BCB9",
"f.	c #AAA19F",
"g.	c #7A7170",
"h.	c #3A3133",
"i.	c #564D4B",
"j.	c #C4BBB2",
"k.	c #C0B8AD",
"l.	c #BCB4A8",
"m.	c #B7B0A2",
"n.	c #AFAA9C",
"o.	c #A4A294",
"p.	c #787B74",
"q.	c #555955",
"r.	c #717571",
"s.	c #D4CFCF",
"t.	c #E8E4E4",
"u.	c #BDB8BB",
"v.	c #191420",
"w.	c #251F2A",
"x.	c #ABA4A7",
"y.	c #EFE8E6",
"z.	c #EBE3E1",
"A.	c #E5DDDA",
"B.	c #E0D7D4",
"C.	c #DAD1CD",
"D.	c #D5CBC6",
"E.	c #D0C7C0",
"F.	c #CCC2BB",
"G.	c #C8BFB6",
"H.	c #B7B1A3",
"I.	c #B2AC9D",
"J.	c #A9A697",
"K.	c #99998D",
"L.	c #6A6E69",
"M.	c #4D504D",
"N.	c #858B85",
"O.	c #9C9A98",
"P.	c #E1DBDC",
"Q.	c #E5E0E0",
"R.	c #D7D2D3",
"S.	c #37313B",
"T.	c #DED8D7",
"U.	c #F3ECEA",
"V.	c #F0E8E6",
"W.	c #EBE3E0",
"X.	c #E5DDD9",
"Y.	c #DFD6D2",
"Z.	c #D9D0CB",
"`.	c #D4CBC5",
" +	c #CFC6BF",
".+	c #CBC1BA",
"++	c #C7BEB5",
"@+	c #C3BAB0",
"#+	c #C0B7AC",
"$+	c #BCB4A7",
"%+	c #B8B1A3",
"&+	c #B2AD9E",
"*+	c #ABA799",
"=+	c #A1A092",
"-+	c #85887F",
";+	c #595D59",
">+	c #999F99",
",+	c #6A6D69",
"'+	c #D6D0CF",
")+	c #E0DBDB",
"!+	c #E4DEDE",
"~+	c #605A61",
"{+	c #251F29",
"]+	c #F2EAE7",
"^+	c #EEE6E3",
"/+	c #E9E1DD",
"(+	c #E3DBD7",
"_+	c #DDD4D0",
":+	c #D8CFC9",
"<+	c #D1C8C2",
"[+	c #938986",
"}+	c #3C3333",
"|+	c #534A47",
"1+	c #ACA899",
"2+	c #96978C",
"3+	c #6B706B",
"4+	c #4E504E",
"5+	c #848A84",
"6+	c #888683",
"7+	c #DBD4D4",
"8+	c #C4BEBF",
"9+	c #100A16",
"0+	c #A8A1A3",
"a+	c #F0E9E6",
"b+	c #EBE2DE",
"c+	c #E6DDD9",
"d+	c #E0D8D3",
"e+	c #958C8A",
"f+	c #332A2D",
"g+	c #10070A",
"h+	c #100709",
"i+	c #130A0B",
"j+	c #B8B0A5",
"k+	c #BEB6AA",
"l+	c #BAB3A6",
"m+	c #B6B0A2",
"n+	c #B2AC9E",
"o+	c #A5A294",
"p+	c #9A9A8E",
"q+	c #7E827B",
"r+	c #4C4F4C",
"s+	c #737873",
"t+	c #ABA6A3",
"u+	c #DAD2D1",
"v+	c #DDD6D5",
"w+	c #736C72",
"x+	c #38313A",
"y+	c #E9E2E0",
"z+	c #E0D7D2",
"A+	c #99908F",
"B+	c #332A2E",
"C+	c #322928",
"D+	c #8E867E",
"E+	c #B9B2A4",
"F+	c #B5AFA1",
"G+	c #B1AC9D",
"H+	c #A5A394",
"I+	c #9B9B8F",
"J+	c #898C84",
"K+	c #5B5F5B",
"L+	c #A2A6A2",
"M+	c #656965",
"N+	c #C7C0BC",
"O+	c #DAD3D1",
"P+	c #383038",
"Q+	c #837B7F",
"R+	c #E6DDDA",
"S+	c #E2D9D5",
"T+	c #9D9493",
"U+	c #342B2F",
"V+	c #332A2B",
"W+	c #8D847E",
"X+	c #C1B8AD",
"Y+	c #B4AE9F",
"Z+	c #B0AB9C",
"`+	c #8E9087",
" @	c #666B66",
".@	c #6D6F6D",
"+@	c #8E938E",
"@@	c #D5CCCA",
"#@	c #D5CDCB",
"$@	c #140C15",
"%@	c #B0A8A8",
"&@	c #DFD7D3",
"*@	c #9E9595",
"=@	c #362D32",
"-@	c #10070D",
";@	c #342B2D",
">@	c #918883",
",@	c #C5BCB2",
"'@	c #C2B9AF",
")@	c #BFB7AB",
"!@	c #B9B2A5",
"~@	c #B6AFA1",
"{@	c #AEAA9B",
"]@	c #A3A193",
"^@	c #9B9B8E",
"/@	c #6F746F",
"(@	c #565856",
"_@	c #818581",
":@	c #6B6D69",
"<@	c #D2C9C5",
"[@	c #C5BDBA",
"}@	c #C3BBB8",
"|@	c #D9D1CC",
"1@	c #776E6F",
"2@	c #352C2E",
"3@	c #938A85",
"4@	c #CBC2BA",
"5@	c #C9C0B6",
"6@	c #C6BDB3",
"7@	c #C3BAAF",
"8@	c #BDB5A9",
"9@	c #B7B0A3",
"0@	c #B1AB9D",
"a@	c #ADA899",
"b@	c #A8A596",
"c@	c #A2A092",
"d@	c #8D8E86",
"e@	c #757974",
"f@	c #4A4C4A",
"g@	c #7C817C",
"h@	c #6B6D68",
"i@	c #C9C0B8",
"j@	c #CEC5C0",
"k@	c #C2B9B5",
"l@	c #0F070D",
"m@	c #BFB6B2",
"n@	c #D4CBC6",
"o@	c #736A6A",
"p@	c #938A86",
"q@	c #CCC3BB",
"r@	c #CBC2B9",
"s@	c #BEB6A9",
"t@	c #A6A395",
"u@	c #A09F91",
"v@	c #98988D",
"w@	c #8B8D84",
"x@	c #767B75",
"y@	c #494B49",
"z@	c #656863",
"A@	c #C5BCB3",
"B@	c #CBC2BC",
"C@	c #150C11",
"D@	c #A59C99",
"E@	c #CFC6C0",
"F@	c #CEC5BE",
"G@	c #B3AAA4",
"H@	c #C9C0B7",
"I@	c #C2BAAF",
"J@	c #BBB4A7",
"K@	c #B3AD9F",
"L@	c #A9A597",
"M@	c #9E9D90",
"N@	c #95968B",
"O@	c #898B83",
"P@	c #747873",
"Q@	c #545654",
"R@	c #8F928F",
"S@	c #626762",
"T@	c #B7B0A5",
"U@	c #C6BDB5",
"V@	c #352C2D",
"W@	c #776E6C",
"X@	c #CAC1B8",
"Y@	c #C4BBB0",
"Z@	c #C2B9AE",
"`@	c #AEA99A",
" #	c #AAA798",
".#	c #929389",
"+#	c #898B84",
"@#	c #6A6C6A",
"##	c #676B67",
"$#	c #9C988E",
"%#	c #685F5C",
"&#	c #342B2B",
"*#	c #C6BDB4",
"=#	c #BDB5A8",
"-#	c #B9B1A4",
";#	c #8E8F87",
">#	c #8B8E87",
",#	c #5A5E5A",
"'#	c #646964",
")#	c #808078",
"!#	c #A9A097",
"~#	c #12090A",
"{#	c #100708",
"]#	c #8C837C",
"^#	c #BAB2A5",
"/#	c #94948A",
"(#	c #898A83",
"_#	c #8A8E88",
":#	c #454845",
"<#	c #524944",
"[#	c #100807",
"}#	c #221A18",
"|#	c #AFA69C",
"1#	c #A5A395",
"2#	c #9D9C8F",
"3#	c #97978C",
"4#	c #8F9087",
"5#	c #878982",
"6#	c #7D827C",
"7#	c #454745",
"8#	c #626662",
"9#	c #8A8A80",
"0#	c #ADA599",
"a#	c #211A16",
"b#	c #100806",
"c#	c #2F2723",
"d#	c #ABA397",
"e#	c #98998D",
"f#	c #888A82",
"g#	c #959992",
"h#	c #545854",
"i#	c #5C5F5C",
"j#	c #676B66",
"k#	c #938D81",
"l#	c #18110D",
"m#	c #100905",
"n#	c #211A15",
"o#	c #837C71",
"p#	c #B5AEA0",
"q#	c #93948A",
"r#	c #8B8D85",
"s#	c #8B8C86",
"t#	c #828782",
"u#	c #404240",
"v#	c #777A72",
"w#	c #AEA99B",
"x#	c #908A7D",
"y#	c #201A14",
"z#	c #0F0A05",
"A#	c #2F2A23",
"B#	c #696359",
"C#	c #8D887B",
"D#	c #9E998B",
"E#	c #9C988A",
"F#	c #898579",
"G#	c #646056",
"H#	c #312E26",
"I#	c #47453C",
"J#	c #A19F92",
"K#	c #9D9D90",
"L#	c #94958A",
"M#	c #84857F",
"N#	c #9A9D98",
"O#	c #494C49",
"P#	c #727472",
"Q#	c #5F635F",
"R#	c #A19C8E",
"S#	c #4A463D",
"T#	c #110C06",
"U#	c #0E0A05",
"V#	c #0E0B05",
"W#	c #0D0B06",
"X#	c #1B1B15",
"Y#	c #9B9A8E",
"Z#	c #8C8E85",
"`#	c #9EA19B",
" $	c #606260",
".$	c #5D605D",
"+$	c #81847C",
"@$	c #A4A193",
"#$	c #A6A495",
"$$	c #928F81",
"%$	c #58544A",
"&$	c #2C2922",
"*$	c #120F09",
"=$	c #110F0A",
"-$	c #292822",
";$	c #515048",
">$	c #87877C",
",$	c #96968B",
"'$	c #919288",
")$	c #8B8C84",
"!$	c #84857E",
"~$	c #9EA19C",
"{$	c #4B4D4B",
"]$	c #5A5D5A",
"^$	c #5D615D",
"/$	c #797C76",
"($	c #94958B",
"_$	c #9C9B8F",
":$	c #9F9E91",
"<$	c #A09F92",
"[$	c #9F9D90",
"}$	c #949386",
"|$	c #929185",
"1$	c #9A998D",
"2$	c #8D8F86",
"3$	c #878981",
"4$	c #9B9F99",
"5$	c #4C4D4C",
"6$	c #6B6D6B",
"7$	c #525652",
"8$	c #6C706B",
"9$	c #848880",
"0$	c #97988C",
"a$	c #909188",
"b$	c #888982",
"c$	c #9A9D97",
"d$	c #858984",
"e$	c #575B57",
"f$	c #6D726D",
"g$	c #7F837D",
"h$	c #888B84",
"i$	c #8A8B83",
"j$	c #878881",
"k$	c #90938C",
"l$	c #91968F",
"m$	c #838883",
"n$	c #545754",
"o$	c #3F413F",
"p$	c #494D49",
"q$	c #686C68",
"r$	c #727772",
"s$	c #787C77",
"t$	c #7A7E79",
"u$	c #787D77",
"v$	c #6E736E",
"w$	c #444744",
"x$	c #6C6D6C",
"y$	c #484A48",
"z$	c #535553",
"A$	c #696B69",
"                          . + @ # $ %                           ",
"                    & * = - ; > , ' ) ! ~ {                     ",
"                ] ^ / ( _ : < [ } | 1 2 3 4 5 6                 ",
"            7 8 9 0 a b c d e f g h i j k l m n o p             ",
"          q r s t u v w x y z A B C D E F G H I J K L           ",
"        M N O P Q R S T U V W X Y Z `  ...+.@.l #.$.K %.        ",
"      &.*.=.-.;.>.,.'.).!.~.{.].Y ^./.(._.:.<.[.}.|.1.2.3.      ",
"      4.5.6.7.>.8.9.0.0.a.b.c.d.e.f.g.h.i.j.k.l.m.n.o.p.q.      ",
"    *.r.s.u t.u.v.0.w.x.y.z.A.B.C.D.E.F.G.+.k.l.H.I.J.K.L.M.    ",
"    N.O.P.Q.R.w.0.S.T.U.V.W.X.Y.Z.`. +.+++@+#+$+%+&+*+=+-+;+    ",
"  >+,+'+)+!+~+0.{+d U.]+^+/+(+_+:+<+[+}+|+G @.[.m.&+1+o.2+3+4+  ",
"  5+6+7+c 8+9+!.0+a+V.^+b+c+d+Z.e+f+g+h+i+j+k+l+m+n+1+o+p+q+r+  ",
"  s+t+u+v+w+~.x+y+z.W./+c+z+A+B+(.g+h+C+D+#+l.E+F+G+1+H+I+J+K+  ",
"L+M+N+f O+P+X Q+A.R+X.S+T+U+/.(.g+V+W+@+X+k+H %+Y+Z+|.o.I+`+ @.@",
"+@' } @@#@$@].%@&@Y.*@=@-@/.(.;@>@++,@'@)@l.!@~@&+{@J.]@^@`+/@(@",
"_@:@i <@[@Y ^.}@|@1@-@/.(.2@3@4@5@6@7@#+8@l+9@}.0@a@b@c@p+d@e@f@",
"g@h@i@j@k@l@l@m@n@o@/.;@p@q@r@G.6@7@<.s@H l F+&+#.|.t@u@v@w@x@y@",
"_@z@A@.+B@C@/.D@E@F@G@q@4@H@++,@I@<.s@J@E+~@K@Z+a@L@o.M@N@O@P@Q@",
"R@S@T@U@i@V@g+W@4@.+X@H@++6@Y@Z@#+8@J@E+m+Y+G+`@ #t@=+^@.#+#3+@#",
"  ##$#G A@%#h+&#++++*#,@Y@'@k.@.=#H -#m+}.G+{@|.b@]@M@v@;#>#,#  ",
"  '#)#J@k.!#~#{#]#@+I@G <.)@8@$+^#%+~@Y+G+#.1+L@o+u@^@/#(#_#:#  ",
"  ##; 0@H k+<#[#}#|#)@k+8@$+l+-#m.F+K@0@{@1+L@1#=+2#3#4#5#6#7#  ",
"    8#9#Y+l 0#a#b#c#d#l+!@l m.F+Y+n+Z+`@|.L@1#c@M@e#.#f#g#h#    ",
"    i#j#o+I.F+k#l#m#n#o#F+p#Y+n+Z+#.a@ #b@H+c@M@K.q#r#s#t#u#    ",
"      K+v#b@w#G+x#y#m#z#A#B#C#D#E#F#G#H#I#J#K#K.L#d@M#N#O#      ",
"      P#Q#1.o.J.1+R#S#T#z#z#U#V#V#V#W#W#X#Y#v@q#Z#M#`#K+ $      ",
"        .$o +$M@@$#$b@$$%$&$*$W#W#=$-$;$>$,$'$)$!$~$) {$        ",
"          ]$^$/$($_$:$<$J#J#[$}$|$1$K.,$.#2$3$s#4$K+5$          ",
"            6$7$8$9$.#N@3#v@0$3#N@q#a$Z#3$b$c$d$O# $            ",
"                O#e$f$g$h$r#)$i$f#j$+#k$l$m$n$o$                ",
"                    {$p$,#q$r$s$t$u$v$,#w$7#                    ",
"                          x$Q@y$y$z$A$                          "};
