/* XPM */
static char * exit_xpm[] = {
"26 25 21 1",
" 	c None",
".	c #838183",
"+	c #737173",
"@	c #BDBEBD",
"#	c #ACAEAC",
"$	c #CDCECD",
"%	c #949194",
"&	c #D5D2D5",
"*	c #F6F2F6",
"=	c #E6E2E6",
"-	c #E6E2D5",
";	c #393C39",
">	c #4A4C4A",
",	c #000000",
"'	c #00007B",
")	c #290062",
"!	c #2900CD",
"~	c #00FFFF",
"{	c #0000FF",
"]	c #FFFF00",
"^	c #525052",
"                ....      ",
"              ++@@@@..    ",
"       +++++++#@@$@$$#..  ",
"     ++@@#++%#@@$$$$&***. ",
"   ++@@@..%##@@$$=*---=*. ",
"  ;#@@..%%##@$$*=--@.>-*. ",
" ,.%@,.%%##@$**--@.'')-*. ",
" ,.%%,+.##@*-&$@.''!!)=*. ",
" ,.%%,+.%%*$&#.''!!!!)-*. ",
" ,.%%,+.%%@$+''!!~{{!)-*. ",
" ,.%%,+.%%@$'!~{{~{~!)-*. ",
" ,.%%,+.%%@@'!!~{*~{!)=*. ",
" ,.%%,+.%%@@'!{{~]{~!)-*. ",
" ,.%%,+.%%@@'!!{{~{!!)-*. ",
" ,.%%,+.%%@@'!{~{~!!''-*. ",
" ,+%%,+.%%@@'!!!!!''@-=%. ",
"  ,+%,+.%%@@'!!!''@--%+^. ",
"   ,+,+.%%@@''''@$$%+^^   ",
"    ,,+.%%@@''@$$%+^^     ",
"     ,+.%%@@@@@%+^^       ",
"     ,+.%%@@@%+^^         ",
"     ,++%%%%+^^           ",
"      ,,%%+^^             ",
"        ,^^               ",
"                          "};
