/* XPM */
static char * mozilla_xpm[] = {
"32 32 519 2",
"  	c None",
". 	c #10161B",
"+ 	c #0A0F12",
"@ 	c #11171C",
"# 	c #020304",
"$ 	c #141B21",
"% 	c #182028",
"& 	c #090C0F",
"* 	c #050709",
"= 	c #0D0E11",
"- 	c #0F0202",
"; 	c #040303",
"> 	c #040506",
", 	c #090C0E",
"' 	c #1E2932",
") 	c #653435",
"! 	c #230300",
"~ 	c #C12300",
"{ 	c #E94001",
"] 	c #D84701",
"^ 	c #DF4A02",
"/ 	c #7A210C",
"( 	c #1C1A1F",
"_ 	c #242E39",
": 	c #CF3C2C",
"< 	c #871100",
"[ 	c #DC2200",
"} 	c #FA3E01",
"| 	c #FA4502",
"1 	c #FA3200",
"2 	c #FA2E03",
"3 	c #F72B03",
"4 	c #B82304",
"5 	c #804C46",
"6 	c #BC3121",
"7 	c #E21F00",
"8 	c #F32300",
"9 	c #FE2600",
"0 	c #FA2C00",
"a 	c #FB2900",
"b 	c #FA2400",
"c 	c #E01F00",
"d 	c #DE1F00",
"e 	c #ED2A00",
"f 	c #E12800",
"g 	c #9D5E5E",
"h 	c #D62B12",
"i 	c #EE2200",
"j 	c #FB2500",
"k 	c #FF2600",
"l 	c #EE2504",
"m 	c #AC1400",
"n 	c #5A0801",
"o 	c #A54B40",
"p 	c #E13114",
"q 	c #FE2A00",
"r 	c #FA3000",
"s 	c #BE412F",
"t 	c #8A99A7",
"u 	c #9EA0A2",
"v 	c #AFB1B2",
"w 	c #BBA5A3",
"x 	c #DB4D37",
"y 	c #DC2002",
"z 	c #F42300",
"A 	c #D31E03",
"B 	c #75362E",
"C 	c #7A615F",
"D 	c #F27F6C",
"E 	c #FD2702",
"F 	c #FE2C02",
"G 	c #FA2D00",
"H 	c #CC351D",
"I 	c #5F7B95",
"J 	c #787B7D",
"K 	c #888888",
"L 	c #989898",
"M 	c #AAAAAA",
"N 	c #BB9C97",
"O 	c #D42C14",
"P 	c #DA1C00",
"Q 	c #E01E00",
"R 	c #FC2500",
"S 	c #F92400",
"T 	c #DB290D",
"U 	c #DB3A21",
"V 	c #FD2803",
"W 	c #FF2D00",
"X 	c #FD3500",
"Y 	c #DB2300",
"Z 	c #6B737B",
"` 	c #747474",
" .	c #828282",
"..	c #929292",
"+.	c #A8A8A8",
"@.	c #BAB7B7",
"#.	c #D35A46",
"$.	c #DA2004",
"%.	c #E72000",
"&.	c #F72400",
"*.	c #EF2604",
"=.	c #FE2701",
"-.	c #F42400",
";.	c #FD2F00",
">.	c #D92800",
",.	c #BC5042",
"'.	c #86AED3",
").	c #CBCCCC",
"!.	c #CACACA",
"~.	c #D3D3D3",
"{.	c #D2D2D2",
"].	c #D8D8D8",
"^.	c #D49F97",
"/.	c #E42B0D",
"(.	c #ED2200",
"_.	c #FD2601",
":.	c #F62300",
"<.	c #FD2500",
"[.	c #EC2100",
"}.	c #EA2100",
"|.	c #FB2600",
"1.	c #E72C03",
"2.	c #F13500",
"3.	c #C62F11",
"4.	c #A1ACC7",
"5.	c #5B94C9",
"6.	c #848688",
"7.	c #696969",
"8.	c #ACACAC",
"9.	c #878787",
"0.	c #BEBCBC",
"a.	c #D8422B",
"b.	c #E32000",
"c.	c #B51600",
"d.	c #CF1B00",
"e.	c #FD2600",
"f.	c #EB2000",
"g.	c #C71900",
"h.	c #ED2301",
"i.	c #FA2500",
"j.	c #F42A00",
"k.	c #F84201",
"l.	c #D02800",
"m.	c #A2A7BF",
"n.	c #97BCDE",
"o.	c #7DA7CF",
"p.	c #6F8AA4",
"q.	c #60778C",
"r.	c #5D6873",
"s.	c #606162",
"t.	c #5E5E5E",
"u.	c #9CA4AB",
"v.	c #8B8B8B",
"w.	c #AFAFAF",
"x.	c #C2BAB8",
"y.	c #DD2002",
"z.	c #C61A00",
"A.	c #C61900",
"B.	c #F62400",
"C.	c #C23C28",
"D.	c #E42100",
"E.	c #DF1F00",
"F.	c #F93E00",
"G.	c #D02A00",
"H.	c #A1A9C0",
"I.	c #97BBDC",
"J.	c #91969B",
"K.	c #898989",
"L.	c #797979",
"M.	c #717171",
"N.	c #616161",
"O.	c #496581",
"P.	c #54708A",
"Q.	c #B5BABE",
"R.	c #959595",
"S.	c #B1B1B1",
"T.	c #C0C0C0",
"U.	c #DC7868",
"V.	c #EB2606",
"W.	c #E92100",
"X.	c #F22300",
"Y.	c #EE2A09",
"Z.	c #D1442E",
"`.	c #D23F28",
" +	c #F12200",
".+	c #F93700",
"++	c #D52C00",
"@+	c #A3ABC2",
"#+	c #98B9D9",
"$+	c #838588",
"%+	c #4A4A4A",
"&+	c #545454",
"*+	c #6B6B6B",
"=+	c #6A6A6A",
"-+	c #5F5F5F",
";+	c #707070",
">+	c #AEAEAE",
",+	c #9F9F9F",
"'+	c #D2CFCF",
")+	c #E62100",
"!+	c #E42404",
"~+	c #E3452C",
"{+	c #DC5943",
"]+	c #D85D4A",
"^+	c #D42003",
"/+	c #FB3715",
"(+	c #CE1C00",
"_+	c #FC3400",
":+	c #D92B00",
"<+	c #A5B8D2",
"[+	c #9FB9D2",
"}+	c #7D7D7D",
"|+	c #4C4C4C",
"1+	c #333333",
"2+	c #3C3C3C",
"3+	c #686868",
"4+	c #3D3D3D",
"5+	c #292929",
"6+	c #BABABA",
"7+	c #B5B5B5",
"8+	c #DD7C6C",
"9+	c #D94E38",
"0+	c #DD5C49",
"a+	c #D4361D",
"b+	c #E23D21",
"c+	c #DF3317",
"d+	c #E42202",
"e+	c #CC1C00",
"f+	c #F42F00",
"g+	c #D02400",
"h+	c #C18C90",
"i+	c #ADBECE",
"j+	c #8C8C8C",
"k+	c #858585",
"l+	c #3E3E3E",
"m+	c #2D2D2D",
"n+	c #272727",
"o+	c #202020",
"p+	c #262626",
"q+	c #474747",
"r+	c #909090",
"s+	c #787878",
"t+	c #C7C7C7",
"u+	c #A0A0A0",
"v+	c #CCCCCC",
"w+	c #C2C2C2",
"x+	c #DEACA4",
"y+	c #FC2B07",
"z+	c #FC3512",
"A+	c #FD3816",
"B+	c #E05842",
"C+	c #C61C01",
"D+	c #C21A00",
"E+	c #DE1F01",
"F+	c #F22200",
"G+	c #FC2701",
"H+	c #F43000",
"I+	c #CA2000",
"J+	c #AFB7CB",
"K+	c #A7AEB5",
"L+	c #7E7E7E",
"M+	c #838383",
"N+	c #868686",
"O+	c #5A5A5A",
"P+	c #363636",
"Q+	c #343434",
"R+	c #323232",
"S+	c #313131",
"T+	c #2E2E2E",
"U+	c #949494",
"V+	c #C3C3C3",
"W+	c #B8B8B8",
"X+	c #D1D1D1",
"Y+	c #D5D5D5",
"Z+	c #DDDDDD",
"`+	c #E6E6E6",
" @	c #DCDADA",
".@	c #DE8E82",
"+@	c #CD4A36",
"@@	c #CB1B00",
"#@	c #DC1E00",
"$@	c #E31E00",
"%@	c #F02200",
"&@	c #F92501",
"*@	c #F72602",
"=@	c #ED2E00",
"-@	c #CC2100",
";@	c #B0BBCE",
">@	c #AFB2B6",
",@	c #8F8F8F",
"'@	c #646464",
")@	c #656565",
"!@	c #6D6D6D",
"~@	c #4F4F4F",
"{@	c #1D1D1D",
"]@	c #1F1F1F",
"^@	c #B6B6B6",
"/@	c #CDCDCD",
"(@	c #CBCBCB",
"_@	c #DBDBDB",
":@	c #E4E0DF",
"<@	c #C56659",
"[@	c #D71D00",
"}@	c #E42000",
"|@	c #D91E00",
"1@	c #E62000",
"2@	c #F43804",
"3@	c #D42907",
"4@	c #BDC8D7",
"5@	c #BFBFBF",
"6@	c #B3B3B3",
"7@	c #939393",
"8@	c #767676",
"9@	c #555555",
"0@	c #676767",
"a@	c #1C1C1C",
"b@	c #A5A5A5",
"c@	c #C4C4C4",
"d@	c #BCBCBC",
"e@	c #D9D9D9",
"f@	c #D4D0D0",
"g@	c #CB4D3B",
"h@	c #E82000",
"i@	c #E92200",
"j@	c #F52300",
"k@	c #F62600",
"l@	c #FB2C00",
"m@	c #FC3100",
"n@	c #FC2C00",
"o@	c #F9330A",
"p@	c #F44100",
"q@	c #D43E1D",
"r@	c #CAD5E1",
"s@	c #BBBBBB",
"t@	c #BFAFAC",
"u@	c #BDA4A0",
"v@	c #989999",
"w@	c #484848",
"x@	c #353535",
"y@	c #373737",
"z@	c #3F3F3F",
"A@	c #7F7F7F",
"B@	c #C9C9C9",
"C@	c #E1E1E1",
"D@	c #E5E5E5",
"E@	c #EDEDED",
"F@	c #DB9389",
"G@	c #DE1E00",
"H@	c #D41D00",
"I@	c #D62101",
"J@	c #F02B02",
"K@	c #F32D02",
"L@	c #FA4602",
"M@	c #FE5406",
"N@	c #FA3E06",
"O@	c #FB3501",
"P@	c #F63302",
"Q@	c #EC3200",
"R@	c #E32A08",
"S@	c #D3D2D5",
"T@	c #DD897A",
"U@	c #FE2702",
"V@	c #C27466",
"W@	c #969696",
"X@	c #6C6C6C",
"Y@	c #7C7C7C",
"Z@	c #A9A9A9",
"`@	c #BC9690",
" #	c #D69C93",
".#	c #D87362",
"+#	c #E0B0A8",
"@#	c #DA3117",
"##	c #B91700",
"$#	c #E02801",
"%#	c #F44B00",
"&#	c #FC5D04",
"*#	c #FB770F",
"=#	c #FC6810",
"-#	c #F54C0A",
";#	c #F84B07",
">#	c #F93A01",
",#	c #DA2A00",
"'#	c #EF2800",
")#	c #CD6F61",
"!#	c #F02F0E",
"~#	c #DA6450",
"{#	c #F72D0A",
"]#	c #818181",
"^#	c #444444",
"/#	c #606060",
"(#	c #777777",
"_#	c #BDB0AF",
":#	c #E92201",
"<#	c #E06D59",
"[#	c #EA2200",
"}#	c #D55541",
"|#	c #D51D00",
"1#	c #AE1600",
"2#	c #D01A00",
"3#	c #D92D00",
"4#	c #EA4E03",
"5#	c #FE7D11",
"6#	c #FF8817",
"7#	c #FE8917",
"8#	c #FB7B17",
"9#	c #F75D0B",
"0#	c #F54401",
"a#	c #E02500",
"b#	c #F52800",
"c#	c #D94630",
"d#	c #EC553D",
"e#	c #D74A34",
"f#	c #D66C5A",
"g#	c #FE816B",
"h#	c #585858",
"i#	c #737373",
"j#	c #C3BAB9",
"k#	c #EE3213",
"l#	c #E82E0F",
"m#	c #E64C32",
"n#	c #E22A0B",
"o#	c #C1311C",
"p#	c #B61700",
"q#	c #CF2700",
"r#	c #D32E01",
"s#	c #F35407",
"t#	c #FE7E14",
"u#	c #FF8F1C",
"v#	c #F97015",
"w#	c #EE5912",
"x#	c #E85007",
"y#	c #E93A02",
"z#	c #D46859",
"A#	c #D13E28",
"B#	c #D9A49C",
"C#	c #D9B3AD",
"D#	c #D7A9A1",
"E#	c #808080",
"F#	c #3B3B3B",
"G#	c #BDBFC1",
"H#	c #E6C3BD",
"I#	c #E25B45",
"J#	c #E06A58",
"K#	c #D8614F",
"L#	c #B3321F",
"M#	c #EA3200",
"N#	c #F64602",
"O#	c #F65D0E",
"P#	c #F77213",
"Q#	c #F36114",
"R#	c #FC7D1A",
"S#	c #F67218",
"T#	c #E45914",
"U#	c #DD4801",
"V#	c #F13300",
"W#	c #CA1B00",
"X#	c #D83920",
"Y#	c #CAA29C",
"Z#	c #CABBB9",
"`#	c #B39B97",
" $	c #434343",
".$	c #5B5B5B",
"+$	c #BDBDBD",
"@$	c #CECBCB",
"#$	c #E27464",
"$$	c #B32512",
"%$	c #B63726",
"&$	c #CD2701",
"*$	c #FA4402",
"=$	c #F74506",
"-$	c #F5590D",
";$	c #F55B10",
">$	c #F55611",
",$	c #F96617",
"'$	c #F86D1A",
")$	c #F36714",
"!$	c #DA4101",
"~$	c #E82700",
"{$	c #CC4836",
"]$	c #EC2C0C",
"^$	c #CD988F",
"/$	c #979797",
"($	c #757575",
"_$	c #515151",
":$	c #B2B2B2",
"<$	c #C5A09E",
"[$	c #BF1B02",
"}$	c #C12209",
"|$	c #DF4015",
"1$	c #FA4702",
"2$	c #F84E11",
"3$	c #F6550D",
"4$	c #F6560F",
"5$	c #F6510F",
"6$	c #F45B15",
"7$	c #F36019",
"8$	c #F0651A",
"9$	c #ED6114",
"0$	c #DF3E04",
"a$	c #E12200",
"b$	c #C2ABB1",
"c$	c #C7C7C8",
"d$	c #B0B0B0",
"e$	c #A3A3A3",
"f$	c #D8290C",
"g$	c #E52303",
"h$	c #FB3301",
"i$	c #F65D1E",
"j$	c #F7540E",
"k$	c #F5671C",
"l$	c #F46B19",
"m$	c #F66517",
"n$	c #F36C1D",
"o$	c #F26D24",
"p$	c #F1651B",
"q$	c #ED5F13",
"r$	c #E85F0E",
"s$	c #F44502",
"t$	c #E33216",
"                                                                ",
"                                                                ",
"                                                                ",
"                              .                                 ",
"                            + @                                 ",
"                            # $ % & *                           ",
"                          = - ; > , '                           ",
"                        ) ! ~ { ] ^ / ( _                       ",
"                      : < [ } | 1 2 3 4 5                       ",
"                    6 7 8 9 0 a b c d e f g                     ",
"                    h i j k l m n o p q r s                     ",
"            t u v w x y z j A B C D E F G H                     ",
"        I J K L M N O P Q R S T U V k W X Y                     ",
"      Z `  ...+.@.#.$.%.&.k 9 z *.=.-.9 ;.>.,.                  ",
"    '.).!.~.{.].^./.(._.9 :.<.=.9 [.}.|.1.2.3.4.                ",
"    5.6.7.8.9.0.a.9 k b.c.d.e.k f.g.h.i.j.k.l.m.n.o.p.q.r.s.t.  ",
"      u.v.w.8.x.y.9 j z.A.9 B.z C.D.S E.e.F.G.H.I.J.K.L.M.7.N.  ",
"  O.P.Q.R.S.T.T.U.V.W.8 i X.Y.Z.`.e.7  +<..+++@+#+$+%+&+*+M.=+  ",
"  -+t.;+=+v.>+,+'+)+)+!+~+{+]+^+/+&.(+&.i._+:+<+[+}+t.|+1+2+3+  ",
"  4+5+&+6+T.{.7+].8+9+0+a+b+c+S d+e+%.i <.f+g+h+i+j+k+t.l+m+n+  ",
"  o+p+q+r+s+t+u+v+w+x+y+z+A+B+C+D+E+Q F+G+H+I+J+K+L+M+N+O+P+Q+  ",
"  R+S+T+U+..V+W+X+Y+Z+`+ @.@+@@@#@$@%@&@*@=@-@;@>@,@L+'@)@!@~@  ",
"  {@]@1+u+..^@/@(@_@Z+:@<@[@}@|@1@-.|.9 9 2@3@4@5@6@7@8@9@%+0@  ",
"  a@P+~@K. .b@c@d@e@f@g@h@i@j@ +k@l@m@n@o@p@q@r@s@t@u@v@=+9@w@  ",
"  x@y@z@A@B@{.C@D@E@F@G@H@I@J@K@L@M@N@O@P@Q@R@S@T@U@k V@W@X@*+  ",
"  n+R+q+Y@Z@`@ #.#+#@#}.##$#%#&#*#=#-#;#>#,#'#)#k !#~#{#M+]#]#  ",
"  T+^#/#(#_#:#<#[#}#|#1#2#3#4#5#6#7#8#9#0#a#b#c#d#e#f#g#N+;+8@  ",
"  q+%+h#i#j#k#l#m#n#o#p#q#r#s#t#u#v#w#x#y#(+}.z#A#B#C#D#A@E#}+  ",
"  F#q+/#9.G#H#I#J#K#L#M#N#O#P#Q#R#S#T#U#V#@@W#X#Y#Z#`#..,@E#L+  ",
"   $.$M. .+$@$#$$$%$&$*$=$-$;$>$,$'$)$!$~${$]$^$w+s@/$A@i#A@($  ",
"    _$3+N+:$<$[$}$|$1$2$3$4$5$6$7$8$9$0$a$b$c$W+d$e$e$K.s+(#    ",
"            f$g$h$i$j$k$l$m$n$o$p$q$r$s$t$                      "};
