/* XPM */
static char * mozilla16_xpm[] = {
"16 16 157 2",
"  	c None",
". 	c #0B0F13",
"+ 	c #342124",
"@ 	c #721B01",
"# 	c #792B05",
"$ 	c #482E2D",
"% 	c #CB3B2B",
"& 	c #D51F00",
"* 	c #FA3601",
"= 	c #F32901",
"- 	c #DF2602",
"; 	c #AF4C3E",
"> 	c #92A5B7",
", 	c #ACA6AD",
"' 	c #DF2E12",
") 	c #FA2500",
"! 	c #B8230D",
"~ 	c #9B4D43",
"{ 	c #F62B06",
"] 	c #E33410",
"^ 	c #4978A6",
"/ 	c #757B80",
"( 	c #979797",
"_ 	c #BC9690",
": 	c #DC2206",
"< 	c #F42300",
"[ 	c #F12603",
"} 	c #F12C0A",
"| 	c #FC2700",
"1 	c #EC2C00",
"2 	c #A690A0",
"3 	c #94A7B7",
"4 	c #ACACAC",
"5 	c #BCBBBB",
"6 	c #E44C34",
"7 	c #F32300",
"8 	c #DE1E00",
"9 	c #FE2600",
"0 	c #E72000",
"a 	c #F32400",
"b 	c #F13301",
"c 	c #BC584A",
"d 	c #89B2D9",
"e 	c #5D86AC",
"f 	c #4C6A85",
"g 	c #8298AC",
"h 	c #A0A0A0",
"i 	c #BCBAB9",
"j 	c #E8391C",
"k 	c #E72100",
"l 	c #E92100",
"m 	c #EA2D0E",
"n 	c #DD3014",
"o 	c #EB2100",
"p 	c #FB3000",
"q 	c #C05A48",
"r 	c #8F9EAD",
"s 	c #686868",
"t 	c #6E6E6E",
"u 	c #636363",
"v 	c #545454",
"w 	c #9C9C9C",
"x 	c #B5B5B5",
"y 	c #DB9185",
"z 	c #E03C21",
"A 	c #DD442B",
"B 	c #E13519",
"C 	c #E92606",
"D 	c #E62000",
"E 	c #FA2B00",
"F 	c #C75847",
"G 	c #939CA4",
"H 	c #373737",
"I 	c #4E4E4E",
"J 	c #333333",
"K 	c #8C8C8C",
"L 	c #B8B8B8",
"M 	c #CDCDCD",
"N 	c #E7A69B",
"O 	c #ED7561",
"P 	c #CF361E",
"Q 	c #D81D00",
"R 	c #EF2200",
"S 	c #F52B01",
"T 	c #BF6056",
"U 	c #989A9D",
"V 	c #7B7B7B",
"W 	c #595959",
"X 	c #3F3F3F",
"Y 	c #363636",
"Z 	c #8F8F8F",
"` 	c #BBBBBB",
" .	c #CFCFCF",
"..	c #D8B7B2",
"+.	c #DB3116",
"@.	c #F32600",
"#.	c #FC2A00",
"$.	c #F83503",
"%.	c #CC7B6F",
"&.	c #BBB7B6",
"*.	c #989291",
"=.	c #585858",
"-.	c #626262",
";.	c #3C3C3C",
">.	c #9B9B9B",
",.	c #D1B9B6",
"'.	c #E2BDB7",
").	c #DF4128",
"!.	c #D11F00",
"~.	c #F54002",
"{.	c #FC5E0A",
"].	c #F84206",
"^.	c #ED3201",
"/.	c #DD634E",
"(.	c #F24122",
"_.	c #E54B30",
":.	c #828282",
"<.	c #767676",
"[.	c #525252",
"}.	c #9B9595",
"|.	c #E83C1F",
"1.	c #E23B20",
"2.	c #BE1F07",
"3.	c #D32700",
"4.	c #F6670C",
"5.	c #FD8418",
"6.	c #F2600F",
"7.	c #E33001",
"8.	c #E33E22",
"9.	c #DB604D",
"0.	c #E19285",
"a.	c #7E7E7E",
"b.	c #5D5D5D",
"c.	c #A1A1A2",
"d.	c #DE978C",
"e.	c #C94B39",
"f.	c #D83309",
"g.	c #F65009",
"h.	c #F56112",
"i.	c #F97119",
"j.	c #E3520B",
"k.	c #DC2F0D",
"l.	c #D6442D",
"m.	c #C5B6B4",
"n.	c #979190",
"o.	c #818181",
"p.	c #A19A98",
"q.	c #D0412B",
"r.	c #E53D10",
"s.	c #F7540F",
"t.	c #F55F13",
"u.	c #F46119",
"v.	c #F06218",
"w.	c #EA500A",
"x.	c #D56353",
"y.	c #BDBDBD",
"z.	c #A2A2A2",
"                                ",
"                                ",
"              .                 ",
"            + @ # $             ",
"          % & * = - ;           ",
"      > , ' ) ! ~ { ]           ",
"  ^ / ( _ : < [ } | 1 2         ",
"  3 4 5 6 7 8 9 0 a b c d e f   ",
"  g h i j k l m n o p q r s t u ",
"  v w x y z A B C D E F G u H I ",
"  J K L M N O P Q R S T U V W X ",
"  Y Z `  ...+.l @.#.$.%.&.*.=.-.",
"  ;.>.,.'.).!.~.{.].^./.(._.:.<.",
"  [.}.|.1.2.3.4.5.6.7.8.9.0.a.  ",
"  b.c.d.e.f.g.h.i.j.k.l.m.n.o.  ",
"    p.q.r.s.t.u.v.w.x.y.z.      "};
