/* XPM */
static char * firefox_xpm[] = {
"32 32 657 2",
"  	c None",
". 	c #104599",
"+ 	c #1357A3",
"@ 	c #2667AD",
"# 	c #4988C4",
"$ 	c #2F74B5",
"% 	c #175DA7",
"& 	c #1053A1",
"* 	c #104196",
"= 	c #103992",
"- 	c #1460A9",
"; 	c #3E99C9",
"> 	c #67B0D5",
", 	c #7FBEDC",
"' 	c #9DD3EC",
") 	c #ADE0F6",
"! 	c #97D0EA",
"~ 	c #81BFDD",
"{ 	c #71B6D8",
"] 	c #4D9FCB",
"^ 	c #1C6DA9",
"/ 	c #0A3785",
"( 	c #0C1674",
"_ 	c #0F61AA",
": 	c #2B8FC4",
"< 	c #74B8D9",
"[ 	c #A1D6EE",
"} 	c #94CDE8",
"| 	c #92BDC3",
"1 	c #ADB694",
"2 	c #899370",
"3 	c #56635E",
"4 	c #212159",
"5 	c #F3A643",
"6 	c #0F338B",
"7 	c #0E74B4",
"8 	c #258DC3",
"9 	c #75BADB",
"0 	c #78BCDC",
"a 	c #93CEEA",
"b 	c #A6DDF4",
"c 	c #A7DDF5",
"d 	c #8CCAE6",
"e 	c #77BBDB",
"f 	c #71AECD",
"g 	c #6390AD",
"h 	c #687C84",
"i 	c #928C4D",
"j 	c #E6BF06",
"k 	c #C99E14",
"l 	c #B07223",
"m 	c #F08B2D",
"n 	c #CE7F33",
"o 	c #0C247B",
"p 	c #0A5A9A",
"q 	c #0C6AA8",
"r 	c #4EA0CB",
"s 	c #61B1D6",
"t 	c #8AACAB",
"u 	c #C8AE76",
"v 	c #BDB386",
"w 	c #6BAEC8",
"x 	c #90D0ED",
"y 	c #97D6F1",
"z 	c #8BCCEA",
"A 	c #81C7E6",
"B 	c #63B2D7",
"C 	c #60AACF",
"D 	c #6994A3",
"E 	c #AE924C",
"F 	c #E7B239",
"G 	c #F1B128",
"H 	c #FAC52F",
"I 	c #F9BB13",
"J 	c #EE9607",
"K 	c #D54B0B",
"L 	c #EA6F1B",
"M 	c #E7731D",
"N 	c #6D6061",
"O 	c #606E7C",
"P 	c #6F8089",
"Q 	c #8CA4AB",
"R 	c #A8916A",
"S 	c #E9932E",
"T 	c #CF9446",
"U 	c #43768D",
"V 	c #68A9CA",
"W 	c #86C9EA",
"X 	c #67B1D7",
"Y 	c #509FC9",
"Z 	c #66B4DB",
"` 	c #5DAFD7",
" .	c #75BBE0",
"..	c #75B2D5",
"+.	c #426C8F",
"@.	c #4D4F4A",
"#.	c #B49B33",
"$.	c #FBE916",
"%.	c #FCF55C",
"&.	c #FBD44C",
"*.	c #ED9807",
"=.	c #C52E03",
"-.	c #DC6012",
";.	c #E78F42",
">.	c #E89545",
",.	c #E89342",
"'.	c #EA994D",
").	c #E9974A",
"!.	c #E07812",
"~.	c #E3821C",
"{.	c #776950",
"].	c #5B90AF",
"^.	c #74B9DF",
"/.	c #78BFE6",
"(.	c #62AED8",
"_.	c #4E9DCA",
":.	c #74BDE4",
"<.	c #77BEE5",
"[.	c #76BCE3",
"}.	c #73B6DE",
"|.	c #497FAC",
"1.	c #26436F",
"2.	c #09163D",
"3.	c #5F4A19",
"4.	c #F2D003",
"5.	c #FBF024",
"6.	c #FAD601",
"7.	c #E0A427",
"8.	c #9B2201",
"9.	c #DB731B",
"0.	c #E07B1B",
"a.	c #E07A17",
"b.	c #E17E20",
"c.	c #DF7515",
"d.	c #DE730C",
"e.	c #DE750E",
"f.	c #784F44",
"g.	c #5EA1CC",
"h.	c #67B0DD",
"i.	c #68B2DF",
"j.	c #68B4E0",
"k.	c #69B4E0",
"l.	c #68B3DF",
"m.	c #67B1DE",
"n.	c #66AEDC",
"o.	c #65ABD9",
"p.	c #63A7D6",
"q.	c #3F71A8",
"r.	c #1C3F7C",
"s.	c #214271",
"t.	c #6C6039",
"u.	c #F4C100",
"v.	c #FAD400",
"w.	c #F7AC05",
"x.	c #E9CC59",
"y.	c #C6530D",
"z.	c #D8670F",
"A.	c #DE730D",
"B.	c #DF7415",
"C.	c #DF7417",
"D.	c #DE7311",
"E.	c #A52801",
"F.	c #A9563A",
"G.	c #B07554",
"H.	c #988071",
"I.	c #5591B6",
"J.	c #59A6D8",
"K.	c #59A5D7",
"L.	c #58A3D6",
"M.	c #56A0D4",
"N.	c #559DD1",
"O.	c #5398CE",
"P.	c #4F92CA",
"Q.	c #4988C2",
"R.	c #4681BA",
"S.	c #35608F",
"T.	c #AA7E23",
"U.	c #F5B300",
"V.	c #F7A503",
"W.	c #F9E068",
"X.	c #D76F1E",
"Y.	c #DA6D14",
"Z.	c #DE7611",
"`.	c #DE7313",
" +	c #A12C04",
".+	c #D34304",
"++	c #DE5405",
"@+	c #E97F34",
"#+	c #4B728C",
"$+	c #5199CD",
"%+	c #539CD1",
"&+	c #529AD0",
"*+	c #4E95CC",
"=+	c #1D6297",
"-+	c #27679E",
";+	c #4B8BC4",
">+	c #4986C0",
",+	c #467FBC",
"'+	c #4474AB",
")+	c #7A6C4C",
"!+	c #F29902",
"~+	c #F8A413",
"{+	c #FDF246",
"]+	c #D87A26",
"^+	c #D96E19",
"/+	c #DE7819",
"(+	c #DF7612",
"_+	c #E0771A",
":+	c #D26F30",
"<+	c #F1C78C",
"[+	c #D1AA7D",
"}+	c #535D5F",
"|+	c #37688D",
"1+	c #4D92C7",
"2+	c #2E74AB",
"3+	c #165B92",
"4+	c #3A7DB4",
"5+	c #125085",
"6+	c #074075",
"7+	c #2B649C",
"8+	c #4379B7",
"9+	c #3D6DAA",
"0+	c #DAB953",
"a+	c #E89109",
"b+	c #FACD42",
"c+	c #FCF200",
"d+	c #B39303",
"e+	c #D36416",
"f+	c #DD7920",
"g+	c #DE7510",
"h+	c #DE7413",
"i+	c #E0781B",
"j+	c #E58628",
"k+	c #E88C31",
"l+	c #9C6140",
"m+	c #263D53",
"n+	c #335E85",
"o+	c #4681B5",
"p+	c #4C8DC6",
"q+	c #3272AA",
"r+	c #08467B",
"s+	c #084277",
"t+	c #073E72",
"u+	c #06396D",
"v+	c #17477D",
"w+	c #4176B4",
"x+	c #3A6AAA",
"y+	c #193A7A",
"z+	c #CEB24B",
"A+	c #F9B51F",
"B+	c #FDF271",
"C+	c #FADC00",
"D+	c #CF9D02",
"E+	c #D26218",
"F+	c #DF7B1C",
"G+	c #DF7510",
"H+	c #E17A1C",
"I+	c #E6882A",
"J+	c #EC9839",
"K+	c #F1A748",
"L+	c #877658",
"M+	c #386694",
"N+	c #457EB8",
"O+	c #4885BF",
"P+	c #4885C0",
"Q+	c #417CB7",
"R+	c #0D4479",
"S+	c #073A6E",
"T+	c #06366A",
"U+	c #063264",
"V+	c #113A6F",
"W+	c #3F70B0",
"X+	c #3A67A8",
"Y+	c #2A4E90",
"Z+	c #D0AC1E",
"`+	c #FACA05",
" @	c #FEFD8F",
".@	c #FACB0E",
"+@	c #EAA307",
"@@	c #C6480A",
"#@	c #E07C1D",
"$@	c #E07B18",
"%@	c #DE7414",
"&@	c #D0661B",
"*@	c #BE541A",
"=@	c #AD5A27",
"-@	c #A07D49",
";@	c #928A71",
">@	c #3E70A9",
",@	c #447BB8",
"'@	c #447CB9",
")@	c #447CBA",
"!@	c #447BB9",
"~@	c #3D73B0",
"{@	c #124075",
"]@	c #052E61",
"^@	c #052A5C",
"/@	c #042556",
"(@	c #123267",
"_@	c #0A2356",
":@	c #2C4E8E",
"<@	c #D9A615",
"[@	c #FACA0D",
"}@	c #FEFE7E",
"|@	c #FAC425",
"1@	c #F8AA13",
"2@	c #B53706",
"3@	c #E07D1A",
"4@	c #DF7613",
"5@	c #DF7518",
"6@	c #DE7317",
"7@	c #AD3507",
"8@	c #961700",
"9@	c #9D1C00",
"0@	c #322836",
"a@	c #20385B",
"b@	c #284873",
"c@	c #3B69A5",
"d@	c #4072B2",
"e@	c #4073B2",
"f@	c #3B6BAA",
"g@	c #05295B",
"h@	c #042657",
"i@	c #042253",
"j@	c #031D4E",
"k@	c #031848",
"l@	c #35333B",
"m@	c #646571",
"n@	c #F3A805",
"o@	c #FAC604",
"p@	c #FDFC23",
"q@	c #F9BA17",
"r@	c #F8B327",
"s@	c #BE6222",
"t@	c #A82804",
"u@	c #DF7A18",
"v@	c #E07818",
"w@	c #C95810",
"x@	c #A62300",
"y@	c #B02B00",
"z@	c #5F5052",
"A@	c #345897",
"B@	c #365E9E",
"C@	c #3A65A7",
"D@	c #3C68AB",
"E@	c #3C69AB",
"F@	c #3B67AA",
"G@	c #1B3D76",
"H@	c #031A49",
"I@	c #021545",
"J@	c #061647",
"K@	c #413E4C",
"L@	c #EEBF45",
"M@	c #F79B05",
"N@	c #F9C602",
"O@	c #FCEE00",
"P@	c #F8B404",
"Q@	c #EFC246",
"R@	c #AC441C",
"S@	c #A72404",
"T@	c #DC7014",
"U@	c #E07B1D",
"V@	c #C54D0C",
"W@	c #BA3200",
"X@	c #C43A00",
"Y@	c #D67A26",
"Z@	c #6E6B7A",
"`@	c #355AA0",
" #	c #365CA2",
".#	c #385EA2",
"+#	c #6B728A",
"@#	c #978A80",
"##	c #868B8F",
"$#	c #405E97",
"%#	c #234280",
"&#	c #021544",
"*#	c #021140",
"=#	c #010D3B",
"-#	c #010936",
";#	c #555265",
">#	c #FCE36A",
",#	c #F9CC00",
"'#	c #FADA00",
")#	c #F9BF2B",
"!#	c #D9B74B",
"~#	c #A61A03",
"{#	c #DF7713",
"]#	c #D35E0F",
"^#	c #CE4200",
"/#	c #D74900",
"(#	c #DF6B11",
"_#	c #E27E21",
":#	c #C77F3C",
"<#	c #AE794E",
"[#	c #D28539",
"}#	c #E3862A",
"|#	c #E3862C",
"1#	c #E8A74D",
"2#	c #D6C37C",
"3#	c #0B133A",
"4#	c #010C3A",
"5#	c #010836",
"6#	c #000532",
"7#	c #070E40",
"8#	c #685859",
"9#	c #FDF580",
"0#	c #F8AD10",
"a#	c #F9BE00",
"b#	c #F9C001",
"c#	c #FCE872",
"d#	c #B48E32",
"e#	c #9C0F02",
"f#	c #D3590C",
"g#	c #E07910",
"h#	c #E38122",
"i#	c #DF7317",
"j#	c #D85104",
"k#	c #DF5000",
"l#	c #E25500",
"m#	c #D95D07",
"n#	c #D36513",
"o#	c #DC7016",
"p#	c #CF6012",
"q#	c #863F12",
"r#	c #594129",
"s#	c #040629",
"t#	c #000431",
"u#	c #000330",
"v#	c #060B3D",
"w#	c #3C3757",
"x#	c #8E6B40",
"y#	c #FEFD42",
"z#	c #F8B30F",
"A#	c #F9B51C",
"B#	c #FACB37",
"C#	c #FEFB8B",
"D#	c #7C530E",
"E#	c #7A0200",
"F#	c #C3400A",
"G#	c #DE730E",
"H#	c #E38320",
"I#	c #E07719",
"J#	c #DF7115",
"K#	c #E06104",
"L#	c #E25E05",
"M#	c #E57411",
"N#	c #B03B08",
"O#	c #9E2202",
"P#	c #AC3306",
"Q#	c #B13A08",
"R#	c #9E370C",
"S#	c #402324",
"T#	c #02041B",
"U#	c #000221",
"V#	c #00032A",
"W#	c #3B2F47",
"X#	c #865D3C",
"Y#	c #D29E15",
"Z#	c #FAEC00",
"`#	c #F8AB07",
" $	c #FAC448",
".$	c #FEF86D",
"+$	c #F6DC60",
"@$	c #A41504",
"#$	c #D96912",
"$$	c #DD710F",
"%$	c #E27F15",
"&$	c #DF7414",
"*$	c #DF7416",
"=$	c #E06D11",
"-$	c #E16D11",
";$	c #E18226",
">$	c #7B3919",
",$	c #391214",
"'$	c #22101B",
")$	c #0A1131",
"!$	c #0E1540",
"~$	c #00032F",
"{$	c #20173B",
"]$	c #CE731E",
"^$	c #B6701D",
"/$	c #F4B701",
"($	c #F3C800",
"_$	c #F9C34C",
":$	c #FDF648",
"<$	c #FEFD4C",
"[$	c #BE9929",
"}$	c #800200",
"|$	c #C13B0C",
"1$	c #D55A0F",
"2$	c #E28315",
"3$	c #E07913",
"4$	c #DE7312",
"5$	c #DF7614",
"6$	c #E48A2D",
"7$	c #976637",
"8$	c #222240",
"9$	c #071554",
"0$	c #1E2676",
"a$	c #1A206E",
"b$	c #070A41",
"c$	c #000331",
"d$	c #3C232A",
"e$	c #CA6B1B",
"f$	c #E07617",
"g$	c #EA880C",
"h$	c #ECA400",
"i$	c #EFA909",
"j$	c #FDF29C",
"k$	c #FCF905",
"l$	c #FCEE16",
"m$	c #5D3C06",
"n$	c #980B00",
"o$	c #D14F12",
"p$	c #D04E0C",
"q$	c #E48924",
"r$	c #DE7314",
"s$	c #DE7410",
"t$	c #E17B1D",
"u$	c #E3882C",
"v$	c #AB6D39",
"w$	c #7E5450",
"x$	c #6A4858",
"y$	c #7C4F4D",
"z$	c #B36931",
"A$	c #E38324",
"B$	c #E27D1F",
"C$	c #E37D05",
"D$	c #E58300",
"E$	c #F6D83F",
"F$	c #FCF359",
"G$	c #FAED00",
"H$	c #C99F03",
"I$	c #5C0100",
"J$	c #B81F00",
"K$	c #C42802",
"L$	c #CF4C15",
"M$	c #E68E33",
"N$	c #DA6A15",
"O$	c #DC6E0B",
"P$	c #DE740E",
"Q$	c #DF7412",
"R$	c #DF7618",
"S$	c #DF7619",
"T$	c #E0771B",
"U$	c #E0781C",
"V$	c #DF6A0B",
"W$	c #E06700",
"X$	c #F3C805",
"Y$	c #FDFC32",
"Z$	c #F7DC10",
"`$	c #F2C801",
" %	c #432A02",
".%	c #770500",
"+%	c #C32D00",
"@%	c #BB1200",
"#%	c #C73815",
"$%	c #E2843B",
"%%	c #C4290D",
"&%	c #E07A1A",
"*%	c #DE7417",
"=%	c #DA680E",
"-%	c #DF7513",
";%	c #E27E22",
">%	c #E38228",
",%	c #E38129",
"'%	c #E17C22",
")%	c #DE6A0D",
"!%	c #E17300",
"~%	c #F0C300",
"{%	c #FBF400",
"]%	c #F8E408",
"^%	c #F4C200",
"/%	c #825702",
"(%	c #860600",
"_%	c #C12C00",
":%	c #B50600",
"<%	c #B91006",
"[%	c #D05026",
"}%	c #C0220A",
"|%	c #BF2104",
"1%	c #D15115",
"2%	c #DA6A22",
"3%	c #D6601D",
"4%	c #D45812",
"5%	c #DA6614",
"6%	c #DE7116",
"7%	c #DE7316",
"8%	c #DD7214",
"9%	c #DC760B",
"0%	c #DF8900",
"a%	c #E7B000",
"b%	c #EFCA00",
"c%	c #F5DB00",
"d%	c #EEAF02",
"e%	c #9B6504",
"f%	c #7C0300",
"g%	c #AE1400",
"h%	c #B10200",
"i%	c #B40400",
"j%	c #B81005",
"k%	c #B91308",
"l%	c #B91309",
"m%	c #B91409",
"n%	c #C0280F",
"o%	c #CA4419",
"p%	c #C94414",
"q%	c #C7420A",
"r%	c #CA4E06",
"s%	c #CF6004",
"t%	c #D57503",
"u%	c #DC8A01",
"v%	c #E3A100",
"w%	c #EAB400",
"x%	c #E69506",
"y%	c #84490A",
"z%	c #5E0100",
"A%	c #990100",
"B%	c #AB0300",
"C%	c #B60E03",
"D%	c #BA1609",
"E%	c #BC1D08",
"F%	c #BF2808",
"G%	c #C23507",
"H%	c #C74406",
"I%	c #CC5505",
"J%	c #D26804",
"K%	c #D87D02",
"L%	c #DF8905",
"M%	c #C8700D",
"N%	c #4D2808",
"O%	c #230000",
"P%	c #6B0200",
"Q%	c #9B0700",
"R%	c #AD0F05",
"S%	c #B71209",
"T%	c #BA1809",
"U%	c #BD2108",
"V%	c #C02C08",
"W%	c #C43B07",
"X%	c #C94B06",
"Y%	c #D26009",
"Z%	c #B75E0D",
"`%	c #67350B",
" &	c #060301",
".&	c #0D0100",
"+&	c #420400",
"@&	c #6F0C02",
"#&	c #911506",
"$&	c #9F1807",
"%&	c #A31B08",
"&&	c #A22208",
"*&	c #982908",
"=&	c #842C08",
"-&	c #652A08",
";&	c #281404",
">&	c #000000",
"                        . + @ # $ % & *                         ",
"                  = - ; > , ' ) ! ~ { ] ^ / (                   ",
"                _ : < ~ ~ ~ [ ) ) } ~ | 1 2 3 4                 ",
"      5     6 7 8 9 0 0 0 0 a b c d e f g h i j k l             ",
"      m n o p q r s t u v w x y z A B C D E F G H I J           ",
"    K L M N O P Q R S T U V W X Y Z `  ...+.@.#.$.%.&.*.        ",
"    =.-.;.>.,.'.).!.~.{.].^./.(._.:.<.[.}.|.1.2.3.4.5.6.7.      ",
"    8.9.0.a.b.c.c.d.e.f.g.h.i.j.k.l.m.n.o.p.q.r.s.t.u.v.w.x.    ",
"    y.z.A.A.B.C.C.D.d.E.F.G.H.I.J.K.L.M.N.O.P.Q.R.S.T.U.V.W.    ",
"    X.Y.Z.B.C.C.C.C.`. +.+++@+#+$+%+&+*+=+-+;+>+,+'+)+!+~+{+    ",
"  ]+^+/+(+C.C.C.C.C._+:+<+[+}+|+1+2+3+4+5+6+7+,+8+9+0+a+b+c+d+  ",
"  e+f+g+h+C.C.C.C.i+j+k+l+m+n+o+p+q+r+s+t+u+v+w+x+y+z+A+B+C+D+  ",
"  E+F+G+B.C.C.C.H+I+J+K+L+M+N+O+P+Q+R+S+T+U+V+W+X+Y+Z+`+ @.@+@  ",
"  @@#@$@%@C.C._+&@*@=@-@;@>@,@'@)@!@~@{@]@^@/@(@_@:@<@[@}@|@1@  ",
"  2@3@4@5@C.6@7@8@9@0@a@b@c@d@d@e@d@f@g@h@i@j@k@l@m@n@o@p@q@r@  ",
"s@t@u@v@C.C.w@9@x@y@z@A@B@C@D@E@E@D@F@G@j@H@I@J@K@L@M@N@O@P@Q@  ",
"R@S@T@U@C.C.V@y@W@X@Y@Z@`@ #.#+#@###$#%#&#*#=#-#;#>#M@,#'#)#!#  ",
"  ~#z.{#v@C.]#X@^#/#(#_#:#<#[#}#|#1#2#3#4#5#6#7#8#9#0#a#b#c#d#  ",
"  e#f#g#h#C.i#j#k#l#m#n#C.C.C.o#p#q#r#s#t#u#v#w#x#y#z#A#B#C#D#  ",
"  E#F#G#H#I#C.J#K#L#M#N#O#P#Q#R#S#T#U#V#u#t#W#X#Y#Z#`# $.$+$    ",
"    @$#$$$%$&$*$A.=$-$;$>$,$'$)$!$V#~$u#u#{$]$^$/$($_$:$<$[$    ",
"    }$|$1$2$3$&$d.4$D.5$6$7$8$9$0$a$b$c$d$e$f$g$h$i$j$k$l$m$    ",
"      n$o$p$q$a.d.d.r$d.s$t$u$v$w$x$y$z$A$A$B$C$D$E$F$G$H$      ",
"      I$J$K$L$M$N$O$g+P$d.d.Q$R$_+S$5@T$U$C.V$W$X$Y$Z$`$ %      ",
"        .%+%@%#%$%%%p$&%*%=%-%&%;%>%,%'%C.)%!%~%{%]%^%/%        ",
"          (%_%:%<%[%}%|%1%2%3%4%5%6%7%8%9%0%a%b%c%d%e%          ",
"            f%g%h%i%j%k%l%m%n%o%p%q%r%s%t%u%v%w%x%y%            ",
"              z%A%B%C%l%l%l%D%E%F%G%H%I%J%K%L%M%N%              ",
"                O%P%Q%R%S%l%l%T%U%V%W%X%Y%Z%`% &                ",
"                    .&+&@&#&$&%&&&*&=&-&;&>&                    ",
"                            >&>&>&                              ",
"                                                                "};
