/* XPM */
static char * gimp16_xpm[] = {
"16 16 58 1",
" 	c None",
".	c #585858",
"+	c #1D1D1D",
"@	c #5D5D5D",
"#	c #6C6C4C",
"$	c #484848",
"%	c #868688",
"&	c #626242",
"*	c #626262",
"=	c #2C2C2C",
"-	c #6E6E6F",
";	c #808060",
">	c #484849",
",	c #525242",
"'	c #767656",
")	c #7E7E5F",
"!	c #909092",
"~	c #B7AEA1",
"{	c #888869",
"]	c #C0C0C0",
"^	c #494949",
"/	c #656565",
"(	c #3E3E2E",
"_	c #CFCFC0",
":	c #B5B5B6",
"<	c #F6EEE0",
"[	c #777777",
"}	c #7A7A7A",
"|	c #000000",
"1	c #343424",
"2	c #484838",
"3	c #4C4C2C",
"4	c #969696",
"5	c #384838",
"6	c #D5D5D5",
"7	c #B6B6B7",
"8	c #B0B0B2",
"9	c #868686",
"0	c #3D3D3D",
"a	c #303030",
"b	c #585838",
"c	c #747475",
"d	c #A0A0A0",
"e	c #8E8E8F",
"f	c #444444",
"g	c #181818",
"h	c #3A3A3A",
"i	c #4E4E2E",
"j	c #767676",
"k	c #424222",
"l	c #202000",
"m	c #322222",
"n	c #262616",
"o	c #50503B",
"p	c #5C5C4C",
"q	c #6C6C6C",
"r	c #4E4E4E",
"s	c #3B3B3B",
"                ",
"                ",
".               ",
".+         @.   ",
".#+       $%    ",
".&*&==..=-;>    ",
" .,&.')!~{]^    ",
" /,(,.;_:<[}| . ",
"  .123*4567890|=",
"  .1a3bcde;'*fga",
"   h1(=i.##,j*f ",
"    k(*lmn(3k$  ",
"     o.pqrgs    ",
"       lga      ",
"                ",
"                "};
