/* XPM */
static char * glade16_xpm[] = {
"16 16 157 2",
"  	c None",
". 	c #E7A231",
"+ 	c #E9A032",
"@ 	c #E7AA31",
"# 	c #D2A72C",
"$ 	c #E0AE2F",
"% 	c #E5BA30",
"& 	c #BC7B29",
"* 	c #E6AC30",
"= 	c #D6702F",
"- 	c #E18F31",
"; 	c #E8A831",
"> 	c #E3B330",
", 	c #ECC432",
"' 	c #F1D533",
") 	c #E7D430",
"! 	c #B58C26",
"~ 	c #EBD831",
"{ 	c #EE4F38",
"] 	c #EF9A34",
"^ 	c #EC4738",
"/ 	c #E03636",
"( 	c #F0C633",
"_ 	c #ECC032",
": 	c #E5D632",
"< 	c #888A22",
"[ 	c #565619",
"} 	c #5E701E",
"| 	c #575815",
"1 	c #A6A224",
"2 	c #F1C634",
"3 	c #F1C733",
"4 	c #EE3F3A",
"5 	c #EE3A3A",
"6 	c #D33232",
"7 	c #EAB232",
"8 	c #C2BF2E",
"9 	c #366A22",
"0 	c #266A2B",
"a 	c #60BACB",
"b 	c #287228",
"c 	c #245439",
"d 	c #163226",
"e 	c #494F14",
"f 	c #E6D431",
"g 	c #EA4238",
"h 	c #AE2A2A",
"i 	c #E53E37",
"j 	c #E1B730",
"k 	c #2D561C",
"l 	c #45CF45",
"m 	c #205F21",
"n 	c #6CCEE1",
"o 	c #529EAC",
"p 	c #316B57",
"q 	c #307F30",
"r 	c #2E742E",
"s 	c #5E641A",
"t 	c #EE6536",
"u 	c #D63434",
"v 	c #0A0202",
"w 	c #EE5738",
"x 	c #82731C",
"y 	c #3AAB3A",
"z 	c #318F37",
"A 	c #58ABBA",
"B 	c #6DD1E4",
"C 	c #498F99",
"D 	c #2C7A2C",
"E 	c #2D6E42",
"F 	c #306F4F",
"G 	c #102512",
"H 	c #CB6F2E",
"I 	c #5F1717",
"J 	c #E83838",
"K 	c #EE7036",
"L 	c #4E5213",
"M 	c #308830",
"N 	c #2F635C",
"O 	c #66C6D8",
"P 	c #66C7DA",
"Q 	c #58ADBD",
"R 	c #42848F",
"S 	c #48909D",
"T 	c #428A94",
"U 	c #306266",
"V 	c #8E701E",
"W 	c #040201",
"X 	c #E63838",
"Y 	c #EF7536",
"Z 	c #505314",
"` 	c #1F4736",
" .	c #3E7E87",
"..	c #51A5A7",
"+.	c #5FBCCE",
"@.	c #5DB9CA",
"#.	c #3E7E82",
"$.	c #1E4B1F",
"%.	c #296429",
"&.	c #285E28",
"*.	c #8A821E",
"=.	c #000000",
"-.	c #E23737",
";.	c #EE5C37",
">.	c #7F781E",
",.	c #328932",
"'.	c #359235",
").	c #28643B",
"!.	c #58B2C1",
"~.	c #56AFBE",
"{.	c #28594A",
"].	c #2F752F",
"^.	c #2C662C",
"/.	c #224C21",
"(.	c #8F841D",
"_.	c #DF3636",
":.	c #EE3C3A",
"<.	c #DF9F32",
"[.	c #2D4E1A",
"}.	c #338733",
"|.	c #266328",
"1.	c #4EA3B0",
"2.	c #50A5B3",
"3.	c #3C8280",
"4.	c #1F4832",
"5.	c #1F481F",
"6.	c #414411",
"7.	c #706217",
"8.	c #EE4938",
"9.	c #C09F2B",
"0.	c #2D4618",
"a.	c #1F5020",
"b.	c #3F888C",
"c.	c #489AA7",
"d.	c #4698A4",
"e.	c #28575E",
"f.	c #2B2D0F",
"g.	c #92831E",
"h.	c #070601",
"i.	c #CF3232",
"j.	c #EC3939",
"k.	c #EE4439",
"l.	c #D97B32",
"m.	c #6F691B",
"n.	c #505014",
"o.	c #4A4814",
"p.	c #4E4A11",
"q.	c #908124",
"r.	c #93781F",
"s.	c #040301",
"t.	c #962424",
"u.	c #581515",
"v.	c #260909",
"w.	c #2A1E09",
"x.	c #241C08",
"y.	c #272008",
"z.	c #0F0A03",
"        .   +                   ",
"        @ # $ % & * = -         ",
"    ;   > , ' ) ! ~ { ] ^ /     ",
"    ( _ : < [ } | 1 2 3 4 5 6   ",
"    7 8 9 0 a b c d e f g 5 h   ",
"  i j k l m n o p q r s t u v   ",
"  w x y z A B C D E F G H I     ",
"J K L M N O P Q R S T U V W     ",
"X Y Z `  ...+.@.#.$.%.&.*.=.    ",
"-.;.>.,.'.).!.~.{.].^./.(.      ",
"_.:.<.[.}.|.1.2.3.4.5.6.7.      ",
"  J 8.9.0.a.b.c.d.e.f.g.h.      ",
"  i.j.k.l.m.n.o.p.q.r.s.        ",
"    t.u.v.=.w.x.y.z.=.          ",
"                                ",
"                                "};
