/* XPM */
static char * glade_xpm[] = {
"32 32 538 2",
"  	c None",
". 	c #EBA332",
"+ 	c #E3A031",
"@ 	c #EBA132",
"# 	c #ECA232",
"$ 	c #E2A430",
"% 	c #E7A031",
"& 	c #DE982F",
"* 	c #E9A031",
"= 	c #E6A031",
"- 	c #EDAB33",
"; 	c #C69B2A",
"> 	c #E7AB31",
", 	c #D6A32D",
"' 	c #E8B431",
") 	c #C4A829",
"! 	c #DC982F",
"~ 	c #DF9D2F",
"{ 	c #D9942E",
"] 	c #DB962F",
"^ 	c #EDA832",
"/ 	c #E3AB30",
"( 	c #D9992E",
"_ 	c #F1C333",
": 	c #DEB32F",
"< 	c #C7932A",
"[ 	c #F1CC33",
"} 	c #F1DA32",
"| 	c #E6B931",
"1 	c #A04125",
"2 	c #D0882D",
"3 	c #EDB732",
"4 	c #EEC332",
"5 	c #D8852F",
"6 	c #D13731",
"7 	c #E18032",
"8 	c #E79732",
"9 	c #E79F31",
"0 	c #ECA432",
"a 	c #D8A32D",
"b 	c #CD902C",
"c 	c #F2CD33",
"d 	c #EFC433",
"e 	c #DC9D2F",
"f 	c #ECB632",
"g 	c #F2DD33",
"h 	c #ECDF31",
"i 	c #DDBA2E",
"j 	c #8E5A1F",
"k 	c #976B20",
"l 	c #E1CC2F",
"m 	c #F3E433",
"n 	c #EF7336",
"o 	c #EE3A39",
"p 	c #EF7C35",
"q 	c #EFA833",
"r 	c #EE5738",
"s 	c #E83838",
"t 	c #CF3232",
"u 	c #EFAA33",
"v 	c #EDB032",
"w 	c #DC9A2F",
"x 	c #F2D533",
"y 	c #F2DB33",
"z 	c #F2D233",
"A 	c #F3E533",
"B 	c #ECE031",
"C 	c #E8D831",
"D 	c #DBB62E",
"E 	c #D5B72C",
"F 	c #E5D830",
"G 	c #F3DA33",
"H 	c #EE5338",
"I 	c #EE3C39",
"J 	c #EE8734",
"K 	c #F0BB33",
"L 	c #EE5438",
"M 	c #ED3A39",
"N 	c #ED3939",
"O 	c #E53737",
"P 	c #F0C233",
"Q 	c #E8B231",
"R 	c #E29631",
"S 	c #F1CA33",
"T 	c #F4E533",
"U 	c #ECE232",
"V 	c #C2C02E",
"W 	c #AAA82E",
"X 	c #A59E26",
"Y 	c #A49E24",
"Z 	c #A5A026",
"` 	c #A59E24",
" .	c #A8A124",
"..	c #E2DA31",
"+.	c #F3E432",
"@.	c #F1BD34",
"#.	c #EF9B34",
"$.	c #F0BD33",
"%.	c #F1BD33",
"&.	c #EE4339",
"*.	c #EE3A3A",
"=.	c #CC3131",
"-.	c #E9AE32",
";.	c #F3D733",
">.	c #F2DA33",
",.	c #F4E633",
"'.	c #BAC22F",
").	c #535C1B",
"!.	c #21280F",
"~.	c #080F0D",
"{.	c #020404",
"].	c #0E280E",
"^.	c #205B21",
"/.	c #091809",
"(.	c #050702",
"_.	c #41410F",
":.	c #828720",
"<.	c #F3E033",
"[.	c #ED4639",
"}.	c #ED3A3A",
"|.	c #DA3434",
"1.	c #DC962F",
"2.	c #F3E133",
"3.	c #DCD732",
"4.	c #6F7F21",
"5.	c #184119",
"6.	c #216321",
"7.	c #102818",
"8.	c #478895",
"9.	c #67C7DA",
"0.	c #297629",
"a.	c #3BA73B",
"b.	c #2B752C",
"c.	c #152C27",
"d.	c #172F2F",
"e.	c #010303",
"f.	c #3A3F10",
"g.	c #BBB42A",
"h.	c #F2D433",
"i.	c #EC4838",
"j.	c #E89133",
"k.	c #F2D333",
"l.	c #DAD531",
"m.	c #5D6E24",
"n.	c #19481A",
"o.	c #36A236",
"p.	c #42C142",
"q.	c #245D31",
"r.	c #6ACCDE",
"s.	c #6ACCDF",
"t.	c #143B14",
"u.	c #277027",
"v.	c #1B4724",
"w.	c #356A6E",
"x.	c #2D624A",
"y.	c #15341B",
"z.	c #0D210D",
"A.	c #21280B",
"B.	c #C0BC2C",
"C.	c #F3DB33",
"D.	c #E74C36",
"E.	c #E93838",
"F.	c #8D2222",
"G.	c #E53A37",
"H.	c #EFA134",
"I.	c #F3DE33",
"J.	c #61691B",
"K.	c #153B17",
"L.	c #3EB93E",
"M.	c #47D647",
"N.	c #41C141",
"O.	c #153D16",
"P.	c #66C5D4",
"Q.	c #6DD0E5",
"R.	c #316067",
"S.	c #488D9A",
"T.	c #4C96A2",
"U.	c #29574C",
"V.	c #225B22",
"W.	c #328433",
"X.	c #317E31",
"Y.	c #245B24",
"Z.	c #333A10",
"`.	c #CFC32C",
" +	c #ED7635",
".+	c #ED3D38",
"++	c #DF3636",
"@+	c #150505",
"#+	c #DE3636",
"$+	c #ED4B38",
"%+	c #F0B333",
"&+	c #B1AA27",
"*+	c #0C220B",
"=+	c #319131",
"-+	c #46D346",
";+	c #48DA48",
">+	c #276F27",
",+	c #050F06",
"'+	c #6FD2E5",
")+	c #6ED3E7",
"!+	c #6ACDE1",
"~+	c #63BFD0",
"{+	c #255141",
"]+	c #296E2E",
"^+	c #369136",
"/+	c #358B35",
"(+	c #328032",
"_+	c #2F772F",
":+	c #163515",
"<+	c #616016",
"[+	c #F09C34",
"}+	c #EE4439",
"|+	c #EB3939",
"1+	c #9F2626",
"2+	c #000000",
"3+	c #EC3B39",
"4+	c #EE6C37",
"5+	c #E6B731",
"6+	c #4B4A11",
"7+	c #287728",
"8+	c #43C543",
"9+	c #44CD44",
"0+	c #2F8A32",
"a+	c #366A6F",
"b+	c #58A8B9",
"c+	c #6FD4E8",
"d+	c #6DD1E5",
"e+	c #6ACDE0",
"f+	c #2B5858",
"g+	c #2D7E2D",
"h+	c #389C38",
"i+	c #308430",
"j+	c #286C29",
"k+	c #256126",
"l+	c #2A692A",
"m+	c #215121",
"n+	c #040904",
"o+	c #DAA62F",
"p+	c #ED4F37",
"q+	c #C83030",
"r+	c #340D0D",
"s+	c #DD3434",
"t+	c #EE3F3A",
"u+	c #EE7536",
"v+	c #BAAA27",
"w+	c #1D2108",
"x+	c #3CAE3C",
"y+	c #42C342",
"z+	c #359F35",
"A+	c #1D4531",
"B+	c #69CCDF",
"C+	c #6BCFE2",
"D+	c #6CD0E3",
"E+	c #6BCEE2",
"F+	c #68CADD",
"G+	c #264D4E",
"H+	c #276E27",
"I+	c #236023",
"J+	c #204C35",
"K+	c #3C7E7A",
"L+	c #3C7E81",
"M+	c #36736A",
"N+	c #173422",
"O+	c #020503",
"P+	c #7D661B",
"Q+	c #E76035",
"R+	c #751C1C",
"S+	c #0A0202",
"T+	c #E73838",
"U+	c #ED8934",
"V+	c #999421",
"W+	c #0F240C",
"X+	c #3FB53F",
"Y+	c #3DB33D",
"Z+	c #184718",
"`+	c #33646B",
" @	c #68C9DC",
".@	c #66C6D8",
"+@	c #376C76",
"@@	c #204145",
"#@	c #2E5D63",
"$@	c #56ADBB",
"%@	c #57B0C0",
"&@	c #53ABB9",
"*@	c #50A6B4",
"=@	c #4B94A0",
"-@	c #162C2F",
";@	c #524812",
">@	c #CC8B2C",
",@	c #090302",
"'@	c #ED4938",
")@	c #EFAC33",
"!@	c #8D871D",
"~@	c #030903",
"{@	c #174518",
"]@	c #1E4040",
"^@	c #52A1AF",
"/@	c #63C3D5",
"(@	c #64C5D7",
"_@	c #65C5D7",
":@	c #64C4D7",
"<@	c #63C2D4",
"[@	c #61BFD1",
"}@	c #5EBBCC",
"|@	c #5CB7C8",
"1@	c #4D9AA8",
"2@	c #244A50",
"3@	c #2D5E66",
"4@	c #39777F",
"5@	c #448E94",
"6@	c #1A3837",
"7@	c #524A11",
"8@	c #C9A12A",
"9@	c #040200",
"0@	c #EC3939",
"a@	c #EE4A39",
"b@	c #F0AC34",
"c@	c #8E871E",
"d@	c #040B04",
"e@	c #11291A",
"f@	c #33676F",
"g@	c #5AB4C4",
"h@	c #60BDCF",
"i@	c #61BED0",
"j@	c #5FBCCE",
"k@	c #5EBACB",
"l@	c #5AB4C3",
"m@	c #438991",
"n@	c #0D1F14",
"o@	c #183D18",
"p@	c #245A24",
"q@	c #255B25",
"r@	c #2A622A",
"s@	c #235223",
"t@	c #5F5E16",
"u@	c #B3A126",
"v@	c #D83434",
"w@	c #EE4739",
"x@	c #EF9834",
"y@	c #9B9221",
"z@	c #11290F",
"A@	c #215A25",
"B@	c #163129",
"C@	c #224846",
"D@	c #204245",
"E@	c #2E6953",
"F@	c #54B0A9",
"G@	c #5DBACB",
"H@	c #5CB8C9",
"I@	c #5BB6C6",
"J@	c #489398",
"K@	c #11281B",
"L@	c #235A23",
"M@	c #2E752E",
"N@	c #2E712E",
"O@	c #2C692C",
"P@	c #2B632B",
"Q@	c #2A612A",
"R@	c #706E1A",
"S@	c #A69A22",
"T@	c #D13232",
"U@	c #EE4239",
"V@	c #EE8635",
"W@	c #B3A326",
"X@	c #1D2C0D",
"Y@	c #318731",
"Z@	c #359335",
"`@	c #349134",
" #	c #328A32",
".#	c #1F541F",
"+#	c #337260",
"@#	c #59B4C4",
"##	c #58B2C2",
"$#	c #58B1C0",
"%#	c #3A787F",
"&#	c #153715",
"*#	c #307B30",
"=#	c #2F742F",
"-#	c #2D6B2D",
";#	c #2B652B",
">#	c #224C21",
",#	c #847C1B",
"'#	c #857C1B",
")#	c #E93939",
"!#	c #EE3B39",
"~#	c #EE6D36",
"{#	c #E0BB2F",
"]#	c #4B5415",
"^#	c #2C762C",
"/#	c #369336",
"(#	c #379637",
"_#	c #389838",
":#	c #2E7E2E",
"<#	c #224D3F",
"[#	c #57AFBF",
"}#	c #56AFBE",
"|#	c #55AEBD",
"1#	c #54ACBB",
"2#	c #3B7A7F",
"3#	c #163A16",
"4#	c #2F752F",
"5#	c #2E6F2E",
"6#	c #2C672C",
"7#	c #285B28",
"8#	c #12250F",
"9#	c #CBBD2A",
"0#	c #675D15",
"a#	c #E53838",
"b#	c #ED4438",
"c#	c #EFA934",
"d#	c #AFA629",
"e#	c #0E230D",
"f#	c #276827",
"g#	c #348B34",
"h#	c #358D35",
"i#	c #328632",
"j#	c #173D1D",
"k#	c #52AAB8",
"l#	c #52A9B8",
"m#	c #51A8B6",
"n#	c #51A7B5",
"o#	c #459490",
"p#	c #1E4630",
"q#	c #173A17",
"r#	c #245624",
"s#	c #275A27",
"t#	c #0F230F",
"u#	c #474610",
"v#	c #D1BF2B",
"w#	c #352D0B",
"x#	c #D93434",
"y#	c #EF7137",
"z#	c #6A741E",
"A#	c #153714",
"B#	c #317F31",
"C#	c #338433",
"D#	c #328232",
"E#	c #1C481D",
"F#	c #47959D",
"G#	c #4FA4B2",
"H#	c #4EA3B1",
"I#	c #4EA2B0",
"J#	c #4C9FAA",
"K#	c #438E95",
"L#	c #2B5C60",
"M#	c #17352C",
"N#	c #193B1A",
"O#	c #122A12",
"P#	c #131405",
"Q#	c #9A9220",
"R#	c #A98F23",
"S#	c #0F0B03",
"T#	c #EE3E39",
"U#	c #EE6E36",
"V#	c #DBC930",
"W#	c #5B5F17",
"X#	c #133113",
"Y#	c #276227",
"Z#	c #317D31",
"`#	c #205122",
" $	c #3A7F7C",
".$	c #4B9EAC",
"+$	c #4A9DAA",
"@$	c #4A9CA9",
"#$	c #489BA7",
"$$	c #4799A5",
"%$	c #43919D",
"&$	c #2D6168",
"*$	c #020504",
"=$	c #101307",
"-$	c #9A9121",
";$	c #C1AE28",
">$	c #141104",
",$	c #EE4039",
"'$	c #EE9334",
")$	c #DAC130",
"!$	c #6F6D1A",
"~$	c #0B1A0A",
"{$	c #2F6762",
"]$	c #489AA6",
"^$	c #4798A4",
"/$	c #4596A2",
"($	c #4494A0",
"_$	c #28575E",
":$	c #081214",
"<$	c #212A17",
"[$	c #78731B",
"}$	c #B59F26",
"|$	c #372E0B",
"1$	c #BE2E2E",
"2$	c #EE3E3A",
"3$	c #EE5E37",
"4$	c #EF9C34",
"5$	c #C1AC2E",
"6$	c #515616",
"7$	c #070F06",
"8$	c #030904",
"9$	c #050B0A",
"0$	c #040809",
"a$	c #020505",
"b$	c #020200",
"c$	c #333714",
"d$	c #7B7D27",
"e$	c #DCC32E",
"f$	c #B08E25",
"g$	c #0B0802",
"h$	c #C32F2F",
"i$	c #EC4538",
"j$	c #C85E2E",
"k$	c #A78A24",
"l$	c #A29D26",
"m$	c #A09D25",
"n$	c #958D1F",
"o$	c #8E851D",
"p$	c #928A1E",
"q$	c #9C9320",
"r$	c #978C1F",
"s$	c #C0A528",
"t$	c #D1AA2C",
"u$	c #936E1F",
"v$	c #2E200A",
"w$	c #7E1E1E",
"x$	c #AE2A2A",
"y$	c #B62C2C",
"z$	c #9E2626",
"A$	c #711B1B",
"B$	c #250909",
"C$	c #010100",
"D$	c #1C1306",
"E$	c #39280C",
"F$	c #40300D",
"G$	c #4F4011",
"H$	c #574812",
"I$	c #46390F",
"J$	c #1D1506",
"K$	c #0F0A03",
"L$	c #0C0303",
"M$	c #020000",
"                . +       @                                     ",
"                # $       %   &         *                       ",
"                = - ;     > , '   ) ! ~ {     ]                 ",
"      ^ /       ( _ :   < [ } | 1 2 3 4 5 6 7 8                 ",
"      9 0 a     b c d e f g h i j k l m n o p q r s t           ",
"        u v     w x y z y A B C D E F G H I J K L M N O         ",
"        P z Q R S T U V W X Y Z `  ...+.@.#.$.%.&.*.*.*.=.      ",
"        -.;.g >.,.'.).!.~.{.].^./.(._.:.m y <._ [.}.*.*.|.      ",
"        1.c 2.3.4.5.6.7.8.9.0.a.b.c.d.e.f.g.A h.i.M *.*.t       ",
"        j.k.l.m.n.o.p.q.r.s.t.u.v.w.x.y.z.A.B.C.D.E.*.*.F.      ",
"      G.H.I.J.K.L.M.N.O.P.Q.R.S.T.U.V.W.X.Y.Z.`. +.+*.++@+      ",
"    #+$+%+&+*+=+-+;+>+,+'+)+!+~+{+]+^+/+(+_+:+<+[+}+|+1+2+      ",
"    3+4+5+6+7+8+9+0+a+b+c+d+e+f+g+h+i+j+k+l+m+n+o+p+q+r+2+      ",
"  s+t+u+v+w+x+y+z+A+B+C+D+E+F+G+H+I+J+K+L+M+N+O+P+Q+R+S+        ",
"  T+}+U+V+W+X+Y+Z+`+9. @F+ @.@+@@@#@$@%@&@*@=@-@;@>@,@2+        ",
"  s '@)@!@~@b.{@]@^@/@(@_@:@<@[@}@|@1@2@3@4@5@6@7@8@9@          ",
"  0@a@b@c@d@e@f@g@}@h@i@[@i@j@k@l@m@n@o@p@q@r@s@t@u@2+          ",
"v@}.w@x@y@z@A@B@C@D@E@F@k@G@H@I@J@K@L@M@N@O@P@Q@R@S@2+          ",
"T@}.U@V@W@X@Y@Z@`@ #.#+#g@@###$#%#&#*#=#-#;#P@>#,#'#            ",
"  )#!#~#{#]#^#/#(#_#:#<#[#}#|#1#2#3#4#5#6#P@7#8#9#0#            ",
"  a#}.b#c#d#e#f#g#h#i#j#k#l#m#n#o#p#q#r#Q@s#t#u#v#w#            ",
"  x#*.*.y#$.z#A#B#C#D#E#F#G#H#I#J#K#L#M#N#O#P#Q#R#S#            ",
"    0@N T#U#V#W#X#Y#Z#`# $.$+$@$#$$$%$&$*$=$-$;$>$2+            ",
"    #+|+N ,$'$)$!$~$&#q#{$]$$$^$/$($_$:$<$[$}$|$2+              ",
"    1$|+N N 2$3$4$5$6$A.7$8$9$0$a$b$c$d$e$f$g$2+                ",
"      h$|+N *.*.i$j$k$l$m$n$o$p$q$r$s$t$u$v$2+                  ",
"        w$x$y$z$A$B$2+C$D$E$F$G$H$I$J$K$2+2+                    ",
"            L$M$2+2+2+      2+2+2+2+2+                          ",
"                                                                ",
"                                                                ",
"                                                                ",
"                                                                "};
