/* XPM */
static char * icq_xpm[] = {
"32 32 424 2",
"  	c None",
". 	c #030300",
"+ 	c #100F02",
"@ 	c #4F4A11",
"# 	c #6E6718",
"$ 	c #746D1A",
"% 	c #6C6517",
"& 	c #44400E",
"* 	c #0B0B01",
"= 	c #0A0900",
"- 	c #040400",
"; 	c #625C16",
"> 	c #E1D232",
", 	c #FEED3A",
"' 	c #FEEE3A",
") 	c #FEEF3B",
"! 	c #FCED3A",
"~ 	c #FCEB39",
"{ 	c #EADA33",
"] 	c #6B6315",
"^ 	c #110E02",
"/ 	c #040300",
"( 	c #595414",
"_ 	c #F4E437",
": 	c #FCE538",
"< 	c #6A6015",
"[ 	c #CCBC2D",
"} 	c #FEEF3A",
"| 	c #F8E537",
"1 	c #625913",
"2 	c #0E0C01",
"3 	c #131204",
"4 	c #81741F",
"5 	c #C8BA2E",
"6 	c #FDED3C",
"7 	c #F2DE38",
"8 	c #6A653A",
"9 	c #1E1904",
"0 	c #CABD35",
"a 	c #F7E838",
"b 	c #8C831E",
"c 	c #2E2908",
"d 	c #BEAF2A",
"e 	c #DEC730",
"f 	c #1D1904",
"g 	c #0D0401",
"h 	c #817121",
"i 	c #E1B93E",
"j 	c #EED43C",
"k 	c #FDE142",
"l 	c #847126",
"m 	c #706A6E",
"n 	c #75736E",
"o 	c #F0E25C",
"p 	c #D0BE48",
"q 	c #3E3E3E",
"r 	c #949092",
"s 	c #FCF18D",
"t 	c #FEEB3D",
"u 	c #625114",
"v 	c #090100",
"w 	c #160400",
"x 	c #6A5A1C",
"y 	c #ECC042",
"z 	c #CCA13A",
"A 	c #FDC450",
"B 	c #C89B40",
"C 	c #110508",
"D 	c #7C7977",
"E 	c #FDE474",
"F 	c #806E1A",
"G 	c #312E30",
"H 	c #564B54",
"I 	c #FEE98B",
"J 	c #FEE146",
"K 	c #9A7E27",
"L 	c #9E852C",
"M 	c #160001",
"N 	c #190402",
"O 	c #362F0E",
"P 	c #C28E38",
"Q 	c #F9B744",
"R 	c #F2AD32",
"S 	c #EAA433",
"T 	c #EFC235",
"U 	c #F1D040",
"V 	c #F5D43E",
"W 	c #9A822F",
"X 	c #C29D2C",
"Y 	c #FECB50",
"Z 	c #FED04F",
"` 	c #C7A03A",
" .	c #473914",
"..	c #080004",
"+.	c #B78832",
"@.	c #EAAF39",
"#.	c #EAB031",
"$.	c #D22912",
"%.	c #E68A7A",
"&.	c #F0C2B8",
"*.	c #ECB0A2",
"=.	c #E1745C",
"-.	c #E88F23",
";.	c #F9C03C",
">.	c #F1BE44",
",.	c #1A1206",
"'.	c #2A0002",
").	c #4D0001",
"!.	c #30220D",
"~.	c #BC8E31",
"{.	c #EAB939",
"].	c #E9AD35",
"^.	c #DB2E27",
"/.	c #DD3835",
"(.	c #DA3423",
"_.	c #E3701F",
":.	c #EFC034",
"<.	c #EFB73A",
"[.	c #8A6926",
"}.	c #390103",
"|.	c #591706",
"1.	c #550903",
"2.	c #742C00",
"3.	c #180E00",
"4.	c #2D240A",
"5.	c #AC9424",
"6.	c #F1D13C",
"7.	c #F3C44E",
"8.	c #F7DA47",
"9.	c #DEBF32",
"0.	c #9A7A27",
"a.	c #614A19",
"b.	c #301703",
"c.	c #451805",
"d.	c #4C400E",
"e.	c #5E4E10",
"f.	c #3A300A",
"g.	c #311C07",
"h.	c #5A1503",
"i.	c #3E2102",
"j.	c #090503",
"k.	c #372C0A",
"l.	c #715E17",
"m.	c #83731B",
"n.	c #726418",
"o.	c #131004",
"p.	c #3D360E",
"q.	c #171204",
"r.	c #201704",
"s.	c #342B09",
"t.	c #A58A1C",
"u.	c #A08015",
"v.	c #E2BF26",
"w.	c #8E7C1B",
"x.	c #3E310A",
"y.	c #E58100",
"z.	c #DD7C00",
"A.	c #DF7D00",
"B.	c #DA7A00",
"C.	c #221102",
"D.	c #4C3D10",
"E.	c #CEB02B",
"F.	c #ECD232",
"G.	c #C6AB29",
"H.	c #3E340D",
"I.	c #382D0B",
"J.	c #B39A26",
"K.	c #DBC230",
"L.	c #897A1E",
"M.	c #332A09",
"N.	c #66510E",
"O.	c #DEB825",
"P.	c #FADE33",
"Q.	c #F6D930",
"R.	c #E0BA24",
"S.	c #80721A",
"T.	c #523003",
"U.	c #D37600",
"V.	c #E68100",
"W.	c #E37F00",
"X.	c #DE7D00",
"Y.	c #5F3401",
"Z.	c #271D09",
"`.	c #D9B82E",
" +	c #DEBE2E",
".+	c #F8D434",
"++	c #F8D634",
"@+	c #EBD533",
"#+	c #8B7C1E",
"$+	c #524510",
"%+	c #4E420F",
"&+	c #211A06",
"*+	c #2D250B",
"=+	c #7A6B1A",
"-+	c #E2CB30",
";+	c #FADF33",
">+	c #FAE032",
",+	c #F8DE31",
"'+	c #A78E1E",
")+	c #1F1A07",
"!+	c #A25C01",
"~+	c #E48000",
"{+	c #854A00",
"]+	c #5A3200",
"^+	c #5F3500",
"/+	c #5C3300",
"(+	c #271401",
"_+	c #261D09",
":+	c #4A3C0E",
"<+	c #504310",
"[+	c #D8B330",
"}+	c #F7C839",
"|+	c #FAD534",
"1+	c #F9E637",
"2+	c #A59222",
"3+	c #574A14",
"4+	c #A69525",
"5+	c #E6D032",
"6+	c #FBE034",
"7+	c #FADC34",
"8+	c #F9D435",
"9+	c #F6D038",
"0+	c #F2C632",
"a+	c #957B1E",
"b+	c #563303",
"c+	c #CE7400",
"d+	c #E64100",
"e+	c #C23900",
"f+	c #1C1A17",
"g+	c #666766",
"h+	c #787878",
"i+	c #242424",
"j+	c #010000",
"k+	c #121111",
"l+	c #484844",
"m+	c #76746E",
"n+	c #2F280B",
"o+	c #B69A26",
"p+	c #F7C73A",
"q+	c #F9D238",
"r+	c #FDE135",
"s+	c #FCDA34",
"t+	c #F9D135",
"u+	c #F7CA38",
"v+	c #C7A230",
"w+	c #7C631E",
"x+	c #B28E2A",
"y+	c #7F671D",
"z+	c #352C09",
"A+	c #831F01",
"B+	c #D63C00",
"C+	c #E60000",
"D+	c #B40000",
"E+	c #3A3B3A",
"F+	c #FCFEFC",
"G+	c #FFFFFF",
"H+	c #4E4E4E",
"I+	c #171717",
"J+	c #C0C0C0",
"K+	c #FDFDFD",
"L+	c #C1C0BE",
"M+	c #3A3628",
"N+	c #7A681C",
"O+	c #E4BA34",
"P+	c #F6CB40",
"Q+	c #F5CF35",
"R+	c #F6C739",
"S+	c #F6C839",
"T+	c #BC9A2C",
"U+	c #362D11",
"V+	c #0B0802",
"W+	c #410301",
"X+	c #6F0301",
"Y+	c #C60100",
"Z+	c #D30000",
"`+	c #DD0000",
" @	c #E50000",
".@	c #E30000",
"+@	c #DB0000",
"@@	c #9C0000",
"#@	c #3B3B3B",
"$@	c #505050",
"%@	c #929292",
"&@	c #FEFEFE",
"*@	c #C3C3C3",
"=@	c #909090",
"-@	c #626262",
";@	c #1C1A13",
">@	c #312A0C",
",@	c #957623",
"'@	c #F1BD3C",
")@	c #CFAC2D",
"!@	c #63531D",
"~@	c #7A7669",
"{@	c #B5B4B2",
"]@	c #161616",
"^@	c #580000",
"/@	c #E10000",
"(@	c #770000",
"_@	c #5A5A5A",
":@	c #D2D2D2",
"<@	c #D1D1D1",
"[@	c #0A0A0A",
"}@	c #100C03",
"|@	c #020200",
"1@	c #8D8D8D",
"2@	c #B2B0AA",
"3@	c #6A6657",
"4@	c #1A1605",
"5@	c #0D0A02",
"6@	c #454544",
"7@	c #3D3D3D",
"8@	c #300000",
"9@	c #760000",
"0@	c #5E5E5E",
"a@	c #DEDEDE",
"b@	c #B5B5B5",
"c@	c #080804",
"d@	c #846D1A",
"e@	c #221C07",
"f@	c #A3A3A3",
"g@	c #C2C2C2",
"h@	c #020202",
"i@	c #030201",
"j@	c #2C2C2C",
"k@	c #4C4C4C",
"l@	c #2D0000",
"m@	c #3A0100",
"n@	c #545454",
"o@	c #E7E7E7",
"p@	c #3F3F3F",
"q@	c #2C2B23",
"r@	c #292827",
"s@	c #7F7F7F",
"t@	c #F5F5F5",
"u@	c #656565",
"v@	c #262626",
"w@	c #A0A0A0",
"x@	c #EDEDED",
"y@	c #282828",
"z@	c #470000",
"A@	c #110502",
"B@	c #424242",
"C@	c #EEEEEE",
"D@	c #F9F9F9",
"E@	c #F6F6F6",
"F@	c #A1A1A1",
"G@	c #2A2A2A",
"H@	c #E8E8E8",
"I@	c #FCFCFC",
"J@	c #A7A7A7",
"K@	c #040404",
"L@	c #240703",
"M@	c #161206",
"N@	c #323232",
"O@	c #D8D8D8",
"P@	c #CBCBCB",
"Q@	c #000000",
"R@	c #494949",
"S@	c #CECECE",
"T@	c #EAEAEA",
"U@	c #EFEFEF",
"V@	c #7C7C7C",
"W@	c #363636",
"X@	c #CACACA",
"Y@	c #F2F2F2",
"Z@	c #F3F3F3",
"`@	c #D4D4D4",
" #	c #212121",
".#	c #463A10",
"+#	c #AE9826",
"@#	c #221D0B",
"##	c #141414",
"$#	c #020100",
"%#	c #2A240A",
"&#	c #080602",
"*#	c #090909",
"=#	c #0E0E0E",
"-#	c #0C0C0C",
";#	c #303030",
">#	c #434343",
",#	c #383838",
"'#	c #ACACAC",
")#	c #1C1C1C",
"!#	c #060100",
"~#	c #443B10",
"{#	c #D9BE31",
"]#	c #C49F27",
"^#	c #B89524",
"/#	c #BCA329",
"(#	c #B29827",
"_#	c #594A15",
":#	c #0A0804",
"<#	c #090602",
"[#	c #040000",
"}#	c #030000",
"|#	c #070100",
"1#	c #070201",
"2#	c #040301",
"3#	c #28210A",
"4#	c #2F2A0B",
"5#	c #131313",
"6#	c #090908",
"7#	c #0A0502",
"8#	c #0D0A04",
"9#	c #957C20",
"0#	c #DFC231",
"a#	c #D5BC30",
"b#	c #73631A",
"c#	c #141006",
"d#	c #0B0904",
"e#	c #0B0803",
"f#	c #151206",
"g#	c #AC9325",
"h#	c #5A4E14",
"i#	c #5D5215",
"j#	c #110F05",
"k#	c #181507",
"l#	c #645516",
"m#	c #1B1607",
"n#	c #0A0904",
"o#	c #1E1A08",
"p#	c #504713",
"q#	c #0D0B04",
"                                                                ",
"                                                                ",
"                                                                ",
"                          . + @ # $ % & * =                     ",
"                        - ; > , ' ) ! ~ { ] ^                   ",
"                      / ( _ : < [ ' } ' , | 1 2                 ",
"                    3 4 5 6 7 8 9 0 a b c d e f                 ",
"                  g h i j k l m n o p q r s t u v               ",
"                  w x y z A B C D E F G H I J K L M             ",
"                    N O P Q R S T U V W X Y Z `  .              ",
"                      ..+.@.#.$.%.&.*.=.-.;.>.,.'.              ",
"                      ).!.~.{.].^./.(._.:.<.[.}.  |.1.          ",
"                        2.3.4.5.6.7.8.9.0.a.b.c.d.e.f.g.h.      ",
"                          i.j.k.l.m.n.o.p.q.r.s.t.u.v.w.x.      ",
"  y.y.y.y.y.y.y.z.A.y.B.C.D.E.F.G.H.I.J.K.L.M.N.O.P.Q.R.S.T.U.  ",
"  V.V.V.V.V.V.V.W.X.W.Y.Z.`. +.+++@+#+$+%+&+*+=+-+;+>+,+'+)+!+  ",
"  V.V.V.V.V.~+{+]+^+/+(+_+:+<+[+}+|+1+2+3+4+5+6+7+8+9+0+a+b+c+  ",
"  d+d+d+d+d+e+f+g+h+i+j+k+l+m+n+o+p+q+: r+s+t+u+v+w+x+y+z+A+B+  ",
"  C+C+C+C+C+D+E+F+G+H+I+J+K+G+L+M+N+O+P+Q+R+S+T+U+V+W+X+Y+Z+`+  ",
"   @ @ @.@+@@@#@G+G+$@%@G+&@*@=@-@;@>@,@'@)@!@~@{@]@^@ @ @/@.@  ",
"            (@#@G+G+_@:@G+<@[@}@|@1@2@3@4@5@6@G+K+7@8@          ",
"            9@#@G+G+0@a@G+b@c@d@e@f@&@g@h@i@j@G+G+k@l@          ",
"            m@#@G+G+n@b@G+o@p@q@r@s@G+t@u@v@w@G+x@y@z@          ",
"            A@#@G+G+H+B@C@&@D@E@F@G@H@G+I@D@&@G+J@K@            ",
"          L@M@N@O@P@q Q@R@S@T@U@V@Q@W@X@Y@&@Z@G+`@ #            ",
"          .#+#@###h@$#%#&#*#v@j@=#Q@j+-#;#>#,#<@'#)#!#          ",
"          ~#{#]#^#/#(#_#:#<#[#[#}#|#  1#2#3#4#5#6#|@7#          ",
"          8#9#0#a#b#c#d#                e#f#g#h#i#j#            ",
"            k#l#m#d#                      n#o#p#q#              ",
"                                                                ",
"                                                                ",
"                                                                "};
