/* XPM */
static char * icq16_xpm[] = {
"16 16 122 2",
"  	c None",
". 	c #292608",
"+ 	c #4E4A11",
"@ 	c #413C0D",
"# 	c #736C1A",
"$ 	c #D1C12E",
"% 	c #F1E237",
"& 	c #FDED3A",
"* 	c #D3C42E",
"= 	c #2E2A08",
"- 	c #7E6C20",
"; 	c #ECD73A",
"> 	c #948842",
", 	c #938B41",
"' 	c #A49A37",
") 	c #9F9654",
"! 	c #988822",
"~ 	c #6F591D",
"{ 	c #E1AB41",
"] 	c #AD7C2B",
"^ 	c #D6BC58",
"/ 	c #907C2E",
"( 	c #C5A757",
"_ 	c #D7B43D",
": 	c #5E4317",
"< 	c #4D0002",
"[ 	c #A37A2A",
"} 	c #E4902C",
"| 	c #E46D64",
"1 	c #E27250",
"2 	c #F0B233",
"3 	c #79551F",
"4 	c #592D01",
"5 	c #463A0F",
"6 	c #B69A2F",
"7 	c #968325",
"8 	c #544315",
"9 	c #311D06",
"0 	c #7C6613",
"a 	c #796415",
"b 	c #793905",
"c 	c #E68100",
"d 	c #E58100",
"e 	c #DF7D00",
"f 	c #BB6800",
"g 	c #604D13",
"h 	c #E4C530",
"i 	c #BAA227",
"j 	c #726218",
"k 	c #756619",
"l 	c #50430F",
"m 	c #EDD02F",
"n 	c #F2D42E",
"o 	c #675511",
"p 	c #E66100",
"q 	c #824108",
"r 	c #66543C",
"s 	c #281A0A",
"t 	c #332C1B",
"u 	c #73642E",
"v 	c #E7C033",
"w 	c #E5CC32",
"x 	c #BDA728",
"y 	c #F4D335",
"z 	c #CEAD2E",
"A 	c #C6A32C",
"B 	c #68410C",
"C 	c #E50000",
"D 	c #E20000",
"E 	c #642525",
"F 	c #FEFFFE",
"G 	c #525252",
"H 	c #EEEEEE",
"I 	c #C5C5C4",
"J 	c #4D472E",
"K 	c #A88929",
"L 	c #EBC036",
"M 	c #A48B3B",
"N 	c #434037",
"O 	c #710200",
"P 	c #D70000",
"Q 	c #502626",
"R 	c #FFFFFF",
"S 	c #9A9A9A",
"T 	c #E1E1E1",
"U 	c #29230B",
"V 	c #55544E",
"W 	c #B7B5B0",
"X 	c #0B0903",
"Y 	c #9C9C9C",
"Z 	c #A1A1A1",
"` 	c #6A0000",
" .	c #302423",
"..	c #666666",
"+.	c #F5F5F5",
"@.	c #979694",
"#.	c #5D5D5C",
"$.	c #F7F7F7",
"%.	c #A0A0A0",
"&.	c #E7E7E7",
"*.	c #707070",
"=.	c #463E1A",
"-.	c #6E6E6E",
";.	c #1A1912",
">.	c #4A4A49",
",.	c #8B8B8B",
"'.	c #232322",
").	c #434343",
"!.	c #999999",
"~.	c #BFBFBF",
"{.	c #6F6F6F",
"].	c #261F09",
"^.	c #C4A72A",
"/.	c #AF9626",
"(.	c #4F4212",
"_.	c #0B0703",
":.	c #141105",
"<.	c #524816",
"[.	c #1F1B09",
"}.	c #342C0C",
"|.	c #130F06",
"1.	c #2B250B",
"                                ",
"              . + @             ",
"            # $ % & * =         ",
"          - ; > , ' ) !         ",
"          ~ { ] ^ / ( _ :       ",
"          < [ } | 1 2 3         ",
"            4 5 6 7 8 9 0 a b   ",
"  c c d e f g h i j k l m n o   ",
"  p p q r s t u v w x y z A B   ",
"  C D E F G H I J K L M N O P   ",
"      Q R S T U V W X Y Z `     ",
"       .R ..+.@.#.$.%.&.*.      ",
"      =.-.;.>.,.'.).!.~.{.      ",
"    ].^./.(._.      :.<.[.      ",
"      }.|.            1.        ",
"                                "};
