/* XPM */
static char * kview_xpm[] = {
"32 32 211 2",
"  	c None",
". 	c #B0604F",
"+ 	c #AF604F",
"@ 	c #B06F4F",
"# 	c #B06F50",
"$ 	c #B07050",
"% 	c #C07F5F",
"& 	c #BF7F5F",
"* 	c #BF7050",
"= 	c #C0805F",
"- 	c #D08F6F",
"; 	c #B0806F",
"> 	c #2F5F5F",
", 	c #7F9F3F",
"' 	c #D09F7F",
") 	c #FFB090",
"! 	c #FFBF90",
"~ 	c #FFBF9F",
"{ 	c #BF9F7F",
"] 	c #9F5F40",
"^ 	c #AF6F4F",
"/ 	c #A0604F",
"( 	c #9F604F",
"_ 	c #9F5F4F",
": 	c #507F20",
"< 	c #EFA080",
"[ 	c #4F902F",
"} 	c #FFC0A0",
"| 	c #FFC09F",
"1 	c #905040",
"2 	c #905F4F",
"3 	c #00FF00",
"4 	c #BFE070",
"5 	c #AF7F5F",
"6 	c #50CF4F",
"7 	c #DFDF9F",
"8 	c #905F3F",
"9 	c #AF6050",
"0 	c #BF705F",
"a 	c #AF6F50",
"b 	c #9F6050",
"c 	c #407020",
"d 	c #408020",
"e 	c #508F30",
"f 	c #A0D05F",
"g 	c #A05F40",
"h 	c #C07050",
"i 	c #CF805F",
"j 	c #DF8F6F",
"k 	c #CF8F6F",
"l 	c #C08F70",
"m 	c #9F705F",
"n 	c #008000",
"o 	c #A07060",
"p 	c #6FC040",
"q 	c #CF8060",
"r 	c #D08F60",
"s 	c #E09F6F",
"t 	c #E09F70",
"u 	c #E09F7F",
"v 	c #E0A080",
"w 	c #A07F6F",
"x 	c #906F5F",
"y 	c #906F50",
"z 	c #CF7F5F",
"A 	c #D0805F",
"B 	c #DF906F",
"C 	c #E0A07F",
"D 	c #4F8F2F",
"E 	c #508F3F",
"F 	c #BF6F50",
"G 	c #D08060",
"H 	c #E0906F",
"I 	c #D09070",
"J 	c #9FCF60",
"K 	c #A0705F",
"L 	c #B07F6F",
"M 	c #C06F50",
"N 	c #C0705F",
"O 	c #A07050",
"P 	c #C08F6F",
"Q 	c #6FBF3F",
"R 	c #906050",
"S 	c #9F6F5F",
"T 	c #D07F60",
"U 	c #8F604F",
"V 	c #9F6F50",
"W 	c #BF6F5F",
"X 	c #C07F60",
"Y 	c #B07F5F",
"Z 	c #A0BF4F",
"` 	c #A06F5F",
" .	c #B0705F",
"..	c #BF7F60",
"+.	c #CF8F70",
"@.	c #A0AF7F",
"#.	c #AF705F",
"$.	c #90604F",
"%.	c #A06F50",
"&.	c #B07F60",
"*.	c #BF8F70",
"=.	c #DF8F70",
"-.	c #DF9070",
";.	c #DF907F",
">.	c #C0806F",
",.	c #CF806F",
"'.	c #8F5F4F",
").	c #805F4F",
"!.	c #7F5040",
"~.	c #7F504F",
"{.	c #8F6050",
"].	c #9F7060",
"^.	c #AF7F60",
"/.	c #8F5040",
"(.	c #7F4F40",
"_.	c #704F40",
":.	c #6F403F",
"<.	c #6F3F30",
"[.	c #6F3F40",
"}.	c #704F4F",
"|.	c #805F50",
"1.	c #AF7F6F",
"2.	c #BF7F6F",
"3.	c #BF806F",
"4.	c #6F5040",
"5.	c #3F5F10",
"6.	c #306010",
"7.	c #605F3F",
"8.	c #AF7060",
"9.	c #D0806F",
"0.	c #70403F",
"a.	c #703F3F",
"b.	c #A07F7F",
"c.	c #CFAFAF",
"d.	c #509040",
"e.	c #207000",
"f.	c #2F6F00",
"g.	c #4F701F",
"h.	c #4F5F2F",
"i.	c #80504F",
"j.	c #B07060",
"k.	c #905F50",
"l.	c #B0807F",
"m.	c #CFAFA0",
"n.	c #EFCFC0",
"o.	c #EFD0BF",
"p.	c #40B030",
"q.	c #50A02F",
"r.	c #4F9F2F",
"s.	c #7F4F3F",
"t.	c #CF8F7F",
"u.	c #EFDFC0",
"v.	c #4FAF30",
"w.	c #60A050",
"x.	c #60B030",
"y.	c #B09F9F",
"z.	c #705050",
"A.	c #A0605F",
"B.	c #E0AF90",
"C.	c #F0DFC0",
"D.	c #90DF70",
"E.	c #4FA02F",
"F.	c #3F6F1F",
"G.	c #DFDFB0",
"H.	c #FFFFEF",
"I.	c #BFAFAF",
"J.	c #8F6060",
"K.	c #AF6F5F",
"L.	c #8F4F40",
"M.	c #A05F4F",
"N.	c #DFA08F",
"O.	c #D0EFC0",
"P.	c #5FAF30",
"Q.	c #5FB030",
"R.	c #A0D07F",
"S.	c #FFFFF0",
"T.	c #FFEFE0",
"U.	c #8F605F",
"V.	c #C08060",
"W.	c #E0E0B0",
"X.	c #50B030",
"Y.	c #FFFFFF",
"Z.	c #FFEFDF",
"`.	c #E08F6F",
" +	c #BF907F",
".+	c #CFF0B0",
"++	c #FFD0BF",
"@+	c #F0BFA0",
"#+	c #BF7060",
"$+	c #E09070",
"%+	c #AF6F6F",
"&+	c #CFB090",
"*+	c #DFC0AF",
"=+	c #E0BFA0",
"-+	c #B06F60",
";+	c #EF9F70",
">+	c #A05F50",
",+	c #F09F7F",
"'+	c #F09F70",
")+	c #EFA07F",
"!+	c #F0A07F",
"~+	c #F0A080",
"{+	c #E09F80",
"]+	c #D0907F",
"^+	c #DF9F7F",
"/+	c #FFA07F",
"(+	c #FFA080",
"_+	c #FFAF8F",
":+	c #F0AF8F",
"<+	c #EF9F80",
"[+	c #F0A08F",
". + @ @ @ # $ $ % & * & = - ; > > > , ' ) ! ~ ~ { > > > ~ ~ ]   ",
"^ + + / ( / ( _ ( _ _ / / : > > > > > > < ) { [ > > > > } | ]   ",
"+ ] 1 1 ] 2 2 _ 2 2 ( ( : > > 3 3 3 3 3 4 5 > > > 3 3 3 6 7 ]   ",
"] 1 8 / 9 + ^ $ & 0 a b c : 6 3 3 3 3 3 6 d e f 6 3 3 3 3 6 ]   ",
"g + @ # h % % i j j - k l m 3 3 n n 3 3 6 o ; 6 p 4 , 3 3 6 ]   ",
"# # * % i q r s s t u u v , n n n 3 6 3 p w o x y d n > 3 4 ]   ",
"^ @ h % z A r r B s t C v D n 3 3 3 3 6 m o E > > > > 3 p ' ]   ",
"^ F h z z G r j H H t u C C I 3 3 3 3 J y > > > 6 3 3 p K L ]   ",
"F M h N z i i G j j O > P t k e 3 3 3 p > > Q 3 3 p , R S K ]   ",
"F M M F M N z T G j > > > > > > > 6 3 > > 3 3 3 3 > c U R V ]   ",
"@ @ F F F N N z T G : > 3 3 > > p 3 6 > > 3 3 > > > > , R R ]   ",
"+ 9 + 9 a # W N % X Y > 3 3 3 3 3 6 m > 3 3 3 3 3 3 3 Z ` K ]   ",
"/ / / / / a a  . . .....f 3 3 6 f +.+.I f 3 3 3 3 3 6 @.Y #.]   ",
"( ( ( ( ( $.$.$.( %.` ` ` ` O 5 Y &.*.k +.=.k -.-.;.;.I k >.]   ",
"_ 2 U $.R R R U U R R K K o L L L #.&.L ..>.,.k - -.-.-.-.B ]   ",
"2 2 '.'.).!.~.~.~.!.~.).{.x ].w ].K ; L ^.O Y >.>.k B -.-.-.]   ",
"/.!.(._._._._.:.:.<.:.[.}._.}.).|.{.].^.1.; ` #.2.3.,.- -.-.]   ",
"/._.:.<.:.:.:.<.<.[.4.5.6.6.6.6.5.7.4.|.{.S ^.8.8.3.>.,.9.- ]   ",
"%./.0.0.a.<.[.}.b.c.d.e.f.d d d g.g.f.h.}.i.R o ^.8.3.>.,.- ]   ",
"..j.i.<.a.k.l.m.n.o.p.q.r.4 f.@.@.4 , r.7.}.).x ^.^.^.>.>.,.]   ",
"q # 2 s.0.1 t.o.u.n.6 v.q.4 f.f.f.4 w.x.@.y.z.|.` &.^.&.X q ]   ",
"9.% a 2 (.(.A.B.o.C.D.p.E.r.F.@.@.q.p.Q G.H.I.J.R 8.Y  .>.>.]   ",
"- 9.& K.b i.L.M.N.C.O.p x.x.P.q.P.Q.v.R.H.S.T.m.U.$.#. ...V.]   ",
"j j q &  .O R k._ l o.W.p X.X.X.Q.Q R.H.Y.S.Z.C.l.2 b #.& V.]   ",
"H `.B - = q q 2.8.A.%. +7 4 f Z J .+S.Y.Y.S.Z.++@+#+_ K.X ,.]   ",
"H $+H H j j - - V.j.j.^.%+o { &+*+o.u.u.o.o.=+B.=+#+-+K.,.-.]   ",
"$+;+;+;+;+$+$+t -.-.I I +.*.; l.w ^.j.5 K ` V b K.K.-+>+X ;.]   ",
";+,+'+,+,+;+)+,+!+!+~+{+{+{+]+{+^++.+.t.2.3.L 8.j.>.>.=.^+C ]   ",
";+'+'+!+,+'+'+/+/+(+_+_+_+_+_+_+:+<+~+~+~+~+{+^+;.;.u ~+~+~+]   ",
"'+/+!+!+!+!+!+(+(+_+_+_+_+_+_+_+_+[+[+[+[+~+~+{+{+~+~+:+~+~+]   ",
"] ] ] ] ] ] ] ] ] ] ] ] ] ] ] ] ] ] ] ] ] ] ] ] ] ] ] ] ] ] 1   ",
"                                                                "};
