/* XPM */
static char * menubar_xpm[] = {
"23 400 65 1",
" 	c None",
".	c #000000",
"+	c #202420",
"@	c #9C9D9C",
"#	c #E6E2E6",
"$	c #FFFAFF",
"%	c #EEEEEE",
"&	c #ACAAAC",
"*	c #FFFFFF",
"=	c #393839",
"-	c #313431",
";	c #F6F2F6",
">	c #C5C2C5",
",	c #080C08",
"'	c #F6F6F6",
")	c #7B7D7B",
"!	c #414441",
"~	c #737573",
"{	c #080808",
"]	c #393C39",
"^	c #9C999C",
"/	c #8B898B",
"(	c #CDCECD",
"_	c #000400",
":	c #101010",
"<	c #ACAEAC",
"[	c #4A4C4A",
"}	c #6A696A",
"|	c #8B8D8B",
"1	c #202020",
"2	c #D5D2D5",
"3	c #DEDEDE",
"4	c #181C18",
"5	c #949594",
"6	c #7B797B",
"7	c #292C29",
"8	c #EEEAEE",
"9	c #E6E6E6",
"0	c #414041",
"a	c #CDCACD",
"b	c #292829",
"c	c #838183",
"d	c #BDBABD",
"e	c #525052",
"f	c #5A595A",
"g	c #5A5D5A",
"h	c #949194",
"i	c #C5C6C5",
"j	c #313031",
"k	c #525552",
"l	c #A4A1A4",
"m	c #B4B2B4",
"n	c #A4A5A4",
"o	c #BDBEBD",
"p	c #737173",
"q	c #626162",
"r	c #6A6D6A",
"s	c #101410",
"t	c #B4B6B4",
"u	c #181818",
"v	c #838583",
"w	c #4A484A",
"x	c #626562",
"y	c #DEDADE",
"z	c #D5D6D5",
".......................",
".......................",
".......................",
".......................",
".......................",
".......................",
".......................",
".......................",
".......................",
".......................",
".......................",
".......................",
".......................",
".......................",
".......................",
".......................",
".......................",
".......................",
".......................",
".......................",
".......................",
".......................",
".......................",
".......................",
".......................",
".......................",
".......................",
".......................",
".......................",
".......................",
".......................",
".......................",
".......................",
".......................",
".......................",
".......................",
".......................",
".......................",
".......................",
".......................",
".......................",
".......................",
".......................",
".......................",
".......................",
".......................",
".......................",
".......................",
".......................",
".......................",
".......................",
".......................",
".......................",
".......................",
".......................",
".......................",
".......................",
".......................",
".......................",
".......................",
".......................",
".......................",
".......................",
".......................",
".......................",
".......................",
".......................",
".......................",
".......................",
".......................",
".......................",
".......................",
".......................",
".......................",
".......................",
".......................",
".......................",
".......................",
".......................",
".......................",
".......................",
".......................",
".......................",
".......................",
".......................",
".......................",
".......................",
".......................",
".......................",
".......................",
".......................",
".......................",
".......................",
".......................",
".......................",
".......................",
".......................",
".......................",
".......................",
".......................",
".......................",
".......................",
".......................",
".......................",
".......................",
".......................",
".......................",
".......................",
".......................",
".......................",
".......................",
".......................",
".......................",
".......................",
".......................",
".......................",
".......................",
".......................",
".......................",
".......................",
".......................",
".......................",
".......................",
".......................",
".......................",
".......................",
".......................",
".......................",
".......................",
".......................",
".......................",
".......................",
".......................",
".......................",
".......................",
".......................",
".......................",
".......................",
".......................",
".......................",
".......................",
".......................",
".......................",
".......................",
".......................",
".......................",
".......................",
".......................",
".......................",
".......................",
".......................",
".......................",
".......................",
".......................",
".......................",
".......................",
".......................",
".......................",
".......................",
".......................",
".......................",
".......................",
".......................",
".......................",
".......................",
".......................",
".......................",
".......................",
".......................",
".......................",
".......................",
".......................",
".......................",
".......................",
".......................",
".......................",
".......................",
".......................",
".......................",
".......................",
".......................",
".......................",
".......................",
".......................",
".......................",
".......................",
".......................",
".......................",
".......................",
".......................",
".......................",
".......................",
".......................",
".......................",
".......................",
".......................",
".......................",
".......................",
".......................",
".......................",
".......................",
".......................",
".......................",
"....+@#$%&+......****=.",
"...-;*****;-.....****=.",
"...>*******#,....****=.",
"...'***;$***)....****=.",
"...****!~***#....****=.",
"...****={;***]...****=.",
"...****=.^***/...****=.",
"...****=.!***(...****=.",
"...****=._;***:..****=.",
"...****=..<***[..****=.",
"...****=..}***|..****=.",
"...****=..1***2..****=.",
"...****=...3***4.****=.",
"...****=...5***6{****=.",
"...****=...[***$3****7.",
"...****=..._#*******8_.",
"...****=....]'*****$[..",
"...****=.....+@9*8&7...",
".......................",
".......................",
".......................",
".......................",
".......................",
".......................",
".....4^#*******#^4.....",
"....0;***********;0....",
"...1;*************;1...",
"...<****8aaaaa8****<...",
"..b****@_....._@****+..",
"..c***9{.......{9***)..",
"..d***/........./***d..",
"..9***e.........e***9..",
"..'***].........]***'..",
"..$***].........0***$..",
"..8***f.........g***8..",
"..a***5.........^***a..",
"..h***%,.......:;***h..",
"..=****&{.....{<****]..",
"...i****%aaaaa%****i...",
"...j$*************$j...",
"....e'***********$k....",
".....+l9*******9lb.....",
".......................",
".......................",
".......................",
".......................",
".......................",
".......................",
".......................",
".......................",
"........****=..........",
"........****=..........",
"........****=..........",
"........****=..........",
"........****=..........",
"........****=..........",
"........****=..........",
"........****=..........",
"........****=..........",
"........****=..........",
"........****=..........",
"........****=..........",
"........****=..........",
"........****=..........",
"........****=..........",
"........****=..........",
"........****=..........",
"........****=..........",
".......................",
".......................",
".......................",
".......................",
".......................",
".......................",
".......................",
"....**********'af......",
"....*************/.....",
"....**************!....",
"....aaaaaaaaa(****m....",
"..............6***8....",
"..............0***$....",
"............._@***9....",
"....._~2'*********n....",
"...._o***********$j....",
"....p***********$q.....",
"....(*******(aoh7......",
"....'*******#r{........",
"....**********%cs......",
"....****t'******'^+....",
"....****=sc%*******....",
"....****=..{r3*****....",
"....****=.....k(***....",
"....****=.......0d*....",
"..................7....",
".......................",
".......................",
".......................",
".......................",
".......................",
"......fi'**********1...",
"...../*************1...",
"....0**************1...",
"....m****2aaaaaaaaau...",
"....8***v..............",
"....$***0..............",
"....8***)..............",
"....m****2aaaaaaaaau...",
"....w**************1...",
"....7**************1...",
"....n**************1...",
"....9***h..............",
"....$***]..............",
"....%***6..............",
"....t****2aaaaaaaaau...",
"....!**************1...",
".....h*************1...",
"......q('**********1...",
".......................",
".......................",
".......................",
".......................",
".......................",
".......................",
"......qa'**********1...",
".....h*************1...",
"....w**************1...",
"....t****2aaaaaaaaau...",
"....%***)..............",
"....$***0..............",
"....9***@{.............",
"....n**********'ag.....",
"....j$************|....",
".....q*************0...",
"......7hoaaaaa(****<...",
"...............6***8...",
"...............0***$...",
"...............c***8...",
"....saaaaaaaaa(****m...",
"....4**************!...",
"....4*************5....",
"....4**********'(x.....",
".......................",
".......................",
".......................",
".......................",
".......................",
".......................",
".........[d%$3^4.......",
"........}******8s......",
"........#*******)......",
".......0****9***y......",
".......^***i=****-.....",
"......_%***p.#***|.....",
"......w****4.|***#.....",
"......@***a..=****-....",
"....._%***~...#***/....",
".....!****1...|***3....",
".....^***(....=****7...",
".....8***).....#***)...",
"....]****b.....|***2...",
"....|***z......=****1..",
"....3***c.......#***r..",
"...b****7.......|***o..",
"...6***y........=***$:.",
"...i***v.........#***g.",
".......................",
".......................",
".......................",
".......................",
".......................",
"....****=..............",
"....****=..............",
"....****=..............",
"....****=..............",
"....****=..............",
"....****=..............",
"....****=..............",
"....****=..............",
"....****=..............",
"....****!..............",
"....%***r..............",
"....2***d..............",
"....^****=.............",
"....w****9=............",
".....2*****3aaaaaaa....",
".....7;************....",
"......-3***********....",
".......{qt9$*******....",
".......................",
".......................",
".......................",
".......................",
".......................",
".......................",
".......................",
".......................",
"......................."};
