/* XPM */
static char * mozilla16_xpm[] = {
"16 16 93 2",
"  	c None",
". 	c #190E0D",
"+ 	c #1A0604",
"@ 	c #1B0B09",
"# 	c #050100",
"$ 	c #3E0F09",
"% 	c #A82818",
"& 	c #902215",
"* 	c #BA2C1B",
"= 	c #69190F",
"- 	c #5F170E",
"; 	c #42100A",
"> 	c #0D0C0C",
", 	c #050505",
"' 	c #130403",
") 	c #C22E1C",
"! 	c #801E13",
"~ 	c #62180E",
"{ 	c #A22718",
"] 	c #771C11",
"^ 	c #762218",
"/ 	c #201413",
"( 	c #1E0907",
"_ 	c #070707",
": 	c #060404",
"< 	c #160603",
"[ 	c #D2321E",
"} 	c #DE3520",
"| 	c #8A2114",
"1 	c #1E0704",
"2 	c #9E2617",
"3 	c #9C2617",
"4 	c #691D14",
"5 	c #AF2A1A",
"6 	c #6A1A10",
"7 	c #32130F",
"8 	c #050404",
"9 	c #070303",
"0 	c #60170E",
"a 	c #E23621",
"b 	c #9C2516",
"c 	c #D4331F",
"d 	c #CC301E",
"e 	c #731B11",
"f 	c #A42718",
"g 	c #D93420",
"h 	c #721C11",
"i 	c #0C0808",
"j 	c #070201",
"k 	c #BD2D1C",
"l 	c #5E160E",
"m 	c #C52F1D",
"n 	c #060201",
"o 	c #641C13",
"p 	c #CF321E",
"q 	c #220E0C",
"r 	c #64180F",
"s 	c #64180E",
"t 	c #932316",
"u 	c #E03621",
"v 	c #731C11",
"w 	c #741C11",
"x 	c #331C1A",
"y 	c #382D2C",
"z 	c #5C2822",
"A 	c #79291F",
"B 	c #180A09",
"C 	c #080808",
"D 	c #0D0302",
"E 	c #CB301E",
"F 	c #D83420",
"G 	c #8C2214",
"H 	c #821F13",
"I 	c #54140C",
"J 	c #681910",
"K 	c #36120E",
"L 	c #1A1A1A",
"M 	c #141313",
"N 	c #C02E1C",
"O 	c #C42F1D",
"P 	c #200805",
"Q 	c #010000",
"R 	c #181818",
"S 	c #380E09",
"T 	c #D0321E",
"U 	c #300B07",
"V 	c #59150D",
"W 	c #B92C1B",
"X 	c #4A120B",
"Y 	c #070606",
"Z 	c #140403",
"` 	c #2B0B07",
" .	c #030100",
"                                ",
"                                ",
"          . + @                 ",
"      # $ % & * = - ; >         ",
"    , ' ) ! ~ { ] ^ / (         ",
"  _ : < [ } | 1 2 3 4 5 6 7     ",
"  8 9 0 a b [ c d e f a a g h i ",
"    j k a l m a 5 1 n o p a f q ",
"    , r a s t p u v w x y z A B ",
"    C D E F E G H ! I J | K L   ",
"    M + N a a O P Q             ",
"    R S E a T H U               ",
"        V W N X Y               ",
"          Z `  .                ",
"                                ",
"                                "};
