/* XPM */
static char *bitmap_free[] = {
/* width height ncolors chars_per_pixel */
"40 35 35 2",
/* colors */
"`` c #000000",
"`a c #A5A5A5",
"`b c #183184",
"`c c #7B737B",
"`d c #6B736B",
"`e c #5A635A",
"`f c #000818",
"`g c #DEDEDE",
"`h c #CECECE",
"`i c #E7EFF7",
"`j c #C6C6C6",
"`k c #29639C",
"`l c #292118",
"`m c #080829",
"`n c #002142",
"`o c #FF00FF",
"`p c #000010",
"`q c #8C8C8C",
"`r c #2900FF",
"`s c #848484",
"`t c #186BD6",
"`u c #181831",
"`v c #FFFFFF",
"`w c #000808",
"`x c #000008",
"`y c #00296B",
"`z c #F7F7F7",
"a` c #424A42",
"aa c #394239",
"ab c #E7E7E7",
"ac c #00295A",
"ad c #101010",
"ae c #BDBDBD",
"af c #080808",
"ag c #B5B5B5",
/* pixels */
"`o`ead`````````````````````````````````````````````````````````````````````l`s`o",
"a````m`n`n`n`n`n`n`n`n`n`n`n`n`n`n`n`n`n`n`n`n`n`n`n`n`n`n`n`n`n`n`n`n`n`n`p```s",
"`wac`r`r`r`r`r`r`r`r`r`r`r`r`r`r`r`r`r`r`r`r`r`r`r`r`r`r`r`r`r`r`r`r`r`r`r`r`m`l",
"```k`r`r`r`r`r`r`r`r`r`r`r`r`r`r`r`r`r`r`r`r`r`r`r`r`r`r`r`r`r`r`r`r`r`r`r`r`n``",
"```k`r`r`r`r`r`r`r`r`r`r`r`r`r`r`k`k`yac`n`u`m`m`m`nac`y`k`t`r`r`r`r`r`r`r`r`n``",
"```b`r`r`r`r`r`r`r`r`r`r`k`y`m`````````````````````````````````u`b`t`r`r`r`r`n``",
"```b`r`r`r`r`r`r`r`r`b`f`````````````````````````````````````````````m`k`r`r`m``",
"``ac`r`r`r`r`r`r`b`w`````````````````````````````````````````````````````p`k`p``",
"```n`r`r`r`r`t`m````````````````````````````````````````````````````````````````",
"```n`r`r`r`t`p```````````````````````````````````````````````````l`e`e```l``````",
"```m`r`r`r`f`````````````````````````````````````````````````````c`v`v``````````",
"```m`r`r`y````````aaa`a`ad`ea```afaa`e`e`l``````afa``e`ea``l````ae`vab``````````",
"```f`r`r`p`````````h`v`i`g`v`a`e`i`vab`z`z`s```l`g`vabab`v`za`af`z`vag``````````",
"```w`r`r`````````l`z`v`i`c`e`e`z`v`a`l`q`v`v`l`la``e`l`e`v`v`ea``v`v`d`l````````",
"`````r`r`w```````e`v`v`e`````s`v`vabababababa``a`g`z`zab`v`vaa`q`v`v`l``````````",
"`````t`rac```````a`v`zad`````d`v`va`ad`d`c`e`c`v`va`af`j`v`iaf`h`vab````````````",
"`````t`r`t`w````ab`v`j``````afae`v`v`z`v`h`la``z`v`z`h`z`vae`l`v`v`a````````````",
"`````t`r`r`k`x`l`l`l```````````la`a``l```````la`aaaf`l`l`lad`l`lad``````````````",
"`````k`r`r`r`k`p````````````````````````````````````````````````````````````````",
"`````k`r`r`r`r`t`n``````````````````````````````````````````````````````````````",
"`````k`r`r`r`r`r`r`t`n`x````````````````````````````````````````````````ac`m````",
"`````b`r`r`r`r`r`r`r`r`t`k`n`w```````````````````````````````````````m`k`r`n````",
"`````y`r`r`r`r`r`r`r`r`r`r`r`r`t`k`y`n`m`p`````````````````````````b`r`r`r`m````",
"````ac`r`r`r`r`r`r`r`r`r`r`r`r`r`r`r`r`r`r`r`r`r`u`````````````n`t`r`r`r`r`m````",
"`````n`r`r`r`r`r`r`r`r`r`r`r`r`r`r`r`r`r`r`r`r`t`w`````````n`t`r`r`r`r`r`r`w````",
"`````n`r`r`r`r`r`r`r`r`r`r`r`r`r`r`r`r`r`r`r`r`n```````m`k`r`r`r`r`r`r`r`r``````",
"`````m`r`r`r`r`r`r`r`r`r`r`r`r`r`r`r`r`r`r`r`k`````m`k`r`r`r`r`r`r`r`r`r`r``````",
"`````m`r`r`r`r`r`r`r`r`r`r`r`r`r`r`r`r`r`r`r`m`f`k`r`r`r`r`r`r`r`r`r`r`r`t``````",
"`````p`r`r`r`r`r`r`r`r`r`r`r`r`r`r`r`r`r`r`f`f`k`r`r`r`r`r`r`r`r`r`r`r`r`t``````",
"```````y`t`r`r`r`r`r`r`r`r`r`r`r`r`r`r`r`r`r`r`r`r`r`r`r`r`r`r`r`r`r`r`t`n``````",
"````````````````````````````````````````````````````````````````````````````````",
"````````````````````````````````````````````````````````````````````````````````",
"``````````````````````````````````````````````````````````````````````````````ad",
"a`````````````````````````````````````````````````````````````````````````````a`",
"`oaa``````````````````````````````````````````````````````````````````````afa``o"
};
