/* XPM */
static char * ses_xpm[] = {
"16 16 8 1",
" 	c None",
".	c #FFFFFF",
"+	c #000000",
"@	c #848200",
"#	c #848284",
"$	c #FFFF00",
"%	c #F7F7F7",
"&	c #C6C3C6",
".......++.......",
"......@#+#......",
".....@$+%%......",
"....@$##%.#...#.",
"...@$.+&..#..#..",
".@@$.$+&..#.#...",
"@.&.$.++..#.....",
"@$&$.$+&+.#.....",
"@$&.$.+#+.#.####",
"+@#$.$++..#.....",
".++@$.+&..#.....",
"...+@$+&..#.#...",
"....+@##..#..#..",
".....+@+&&#...#.",
"......+@+#......",
".......++......."};
