/* XPM */
static char * soffice_xpm[] = {
"32 32 106 2",
"  	c None",
". 	c #000000",
"+ 	c #3081BE",
"@ 	c #C1C1C1",
"# 	c #949494",
"$ 	c #153751",
"% 	c #F1F1F1",
"& 	c #3998E0",
"* 	c #BEE3F9",
"= 	c #54595C",
"- 	c #091016",
"; 	c #FFFFFF",
"> 	c #84BCDE",
", 	c #59ABE5",
"' 	c #333334",
") 	c #225B85",
"! 	c #D2ECFB",
"~ 	c #0E2537",
"{ 	c #D9E3E9",
"] 	c #FEFEFE",
"^ 	c #2E424E",
"/ 	c #5E879F",
"( 	c #75A6C4",
"_ 	c #92D0F5",
": 	c #7F7F7F",
"< 	c #61BAFA",
"[ 	c #4E6F82",
"} 	c #9FB2BD",
"| 	c #255374",
"1 	c #3FA6F5",
"2 	c #1D2124",
"3 	c #474B4D",
"4 	c #0A1A26",
"5 	c #E5E5E5",
"6 	c #435F70",
"7 	c #040608",
"8 	c #82C9F7",
"9 	c #C4DBE9",
"0 	c #24292B",
"a 	c #51B3FC",
"b 	c #345264",
"c 	c #161A1C",
"d 	c #3B4246",
"e 	c #6691AC",
"f 	c #ECECEC",
"g 	c #1A4667",
"h 	c #131414",
"i 	c #A3A3A3",
"j 	c #507B97",
"k 	c #4CA8ED",
"l 	c #47555D",
"m 	c #E2E6E8",
"n 	c #E6F4FD",
"o 	c #686868",
"p 	c #9AB8CA",
"q 	c #41ACFD",
"r 	c #8BC6E9",
"s 	c #2C2C2C",
"t 	c #3286C5",
"u 	c #7EB4D3",
"v 	c #CCCCCC",
"w 	c #98D3F5",
"x 	c #8D9DA8",
"y 	c #1F1F1F",
"z 	c #3C9EE9",
"A 	c #424F57",
"B 	c #172B3A",
"C 	c #10161B",
"D 	c #1B262D",
"E 	c #282F34",
"F 	c #A1C1D4",
"G 	c #256391",
"H 	c #6C9AB6",
"I 	c #0A0C0D",
"J 	c #131D22",
"K 	c #264962",
"L 	c #07121B",
"M 	c #5D5D5D",
"N 	c #486779",
"O 	c #4A4E51",
"P 	c #1D2931",
"Q 	c #C3CDD3",
"R 	c #3B5462",
"S 	c #5CB1EE",
"T 	c #1F5279",
"U 	c #8ECAED",
"V 	c #102331",
"W 	c #597F96",
"X 	c #0B1D2A",
"Y 	c #348ACB",
"Z 	c #88CCF7",
"` 	c #414141",
" .	c #081621",
"..	c #202020",
"+.	c #163B57",
"@.	c #3DA2EF",
"#.	c #314653",
"$.	c #4D565B",
"%.	c #4C4C4C",
"&.	c #20547C",
"*.	c #3FA8F8",
"=.	c #C1E4F8",
"-.	c #08131D",
";.	c #0F273A",
">.	c #E9F6FD",
",.	c #4C5052",
"                                                                ",
"  ] ] ] ] ] ] ] ] ] ] ] ] ] ] ] ] ] ] ] ] ] ] ] ] ] ] ] ] ]     ",
"  ] ] ] ] ] ] ] ] ] ] ] ] ] ] ] ] ] ] ] ] ] ] ] ] ] ] ] ] ]     ",
"  ] ] ] ] ] ] ] ] ] ] ] ] ] ] ] ] ] ] ] ] ] ] ] ] ] ] ] ] ]     ",
"  ] ] ] ] ] ] ] ] ] ] ] ] ] ] ] ] ] ] ] ] ] ] ] @ M ' s ' %     ",
"  ] ] ] ] ] ] ] ] ] ] ] ] ] ] ] ] ] ] ] ] ] % %.h . s o 5 ]     ",
"  ] ] ] ] ] ] ] ] ] ] ] ] ] ] ] ] ] ] ] ] 5 ' . h o % ] ] ]     ",
"  ] ] ] ] ] ] ] ] ] ] ] ] ] ] ] ] ] ] 5 v ' . c i ] ] ] ] ]     ",
"  ] ] ] ] ] ] ] ] ] ] ] ] ] ] ] # ` ....7 . 7 : ] ] ] ] ] ]     ",
"  * * * * * * * * * * * * * F 0 . . . c I . E * * * * * * *     ",
"  _ _ _ _ _ _ _ _ _ _ _ _ u C 7 P R H ( ( N e _ _ _ _ _ _ w     ",
"  a a a a a a a a a a a a X V | k a a a a a a a a a a a a a     ",
"  q q q q q q q q q q q G  .t q q q q Y &.+.$ + q q q q q q     ",
"  _ _ _ _ _ _ _ _ _ _ _ / > _ _ _ [ D I . 2 6 r _ _ _ _ _ w     ",
"  < < < < < < < < < < < < < < , B 7 . - K S < < < < < < < <     ",
"  q q q q q q q q q q q q q z X . . 4 + q q q q q q q q q q     ",
"  q q q q q q q q q q q q 1 ~ . . 4 & q q q q q q q q q q q     ",
"  q q q q q q q q q q q q g . . -.Y q q q q q q q q q q q q     ",
"  q q q q q q q q q @.+ &.- . . &.q q q q q q q q q q q q q     ",
"  q q q q q q 1 ) ;.-.. . . . X 1 q q q q q q q q q q q q q     ",
"  8 8 8 8 8 j J . . . . . . . b 8 8 8 8 8 8 8 8 8 8 8 8 8 Z     ",
"  >.>.>.>.= 7 . . c ' ,.%.O s Q >.>.>.>.>.>.>.>.>.>.>.>.>.>.    ",
"  * * * $.. . 2 A p * * * * * * * * * * * * * * * * * * * *     ",
"  ! ! x 7 I d } ! ! ! ! ! ! ! ! ! ! ! ! ! ! ! ! ! ! ! ! ! !     ",
"  ! ! c ..$.9 ! ! ! ! ! ! ! ! ! ! ! ! ! ! ! ! ! ! ! ! ! ! !     ",
"  _ W J R U _ _ _ _ _ _ _ _ _ _ _ _ _ _ _ _ _ _ _ _ _ _ _ w     ",
"  _ #.^ U _ _ _ _ _ _ _ _ _ _ _ _ _ _ _ _ _ _ _ _ _ _ _ _ w     ",
"  _ / r _ _ _ _ _ _ _ _ _ _ _ _ _ _ _ _ _ _ _ _ _ _ _ _ _ w     ",
"  _ _ _ _ _ _ _ _ _ _ _ _ _ _ _ _ _ _ _ _ _ _ _ _ _ _ _ _ w     ",
"  _ _ _ _ _ _ _ _ _ _ _ _ _ _ _ _ _ _ _ _ _ _ _ _ _ _ _ _ w     ",
"                                                                ",
"                                                                "};
