/* XPM */
static char * txt_xpm[] = {
"32 32 5 1",
" 	c None",
".	c #000000",
"+	c #FFFFFF",
"@	c #808080",
"#	c #C0C0C0",
"    ..+..+..+..+..+..+..+.      ",
"   @+@@+@@+@@+@@+@@+@@+@@+@.    ",
"  @+.++.++.++.++.++.++.++@.#.   ",
"  @+.++.++.++.++.++.++.++@.#.   ",
"  @++++++++++++++++++++++#.#.   ",
"  @++++++++++++++++++++++#.#.   ",
"  @++++++++++++++++++++++#.#.   ",
"  @++......+++++++.+...++#.#.   ",
"  @++++++++++++++++++++++#.#.   ",
"  @++......++++++++++++++#.#.   ",
"  @++++++++++++++++++++++#.#.   ",
"  @++++++++++++++++++++++#.#.   ",
"  @++++++++++++++++++++++#.#.   ",
"  @++......++++++++++++++#.#.   ",
"  @++++++++++++++++++++++#.#.   ",
"  @++++++++++++++++++++++#.#.   ",
"  @++..................++#.#.   ",
"  @++++++++++++++++++++++#.#.   ",
"  @++..................++#.#.   ",
"  @++++++++++++++++++++++#.#.   ",
"  @++..................++#.#.   ",
"  @++++++++++++++++++++++#.#.   ",
"  @++..................++#.#.   ",
"  @++++++++++++++++++++++#.#.   ",
"  @++++++++++++++++++++++#.#.   ",
"  @++......++++++++++++++#.#.   ",
"  @++++++++++++++++++++++#.#.   ",
"  @++......++++++++++++++#.#.   ",
"  @++++++++++++++++++++++#.#.   ",
"  @++++++++++++++++++++++#.#.   ",
"   @#####################.#.    ",
"    .......................     "};
