/* XPM */
static char * xbill16_xpm[] = {
"16 16 106 2",
"  	c None",
". 	c #AA9A75",
"+ 	c #A08D61",
"@ 	c #A89979",
"# 	c #CCB686",
"$ 	c #E8CA88",
"% 	c #E4C06F",
"& 	c #BD9947",
"* 	c #9F7A26",
"= 	c #CFB67F",
"- 	c #E5C378",
"; 	c #E0B85F",
"> 	c #DCAE46",
", 	c #D7A22E",
"' 	c #CB9417",
") 	c #A77F26",
"! 	c #7D5A0D",
"~ 	c #A78C51",
"{ 	c #E2BC68",
"] 	c #DEB14E",
"^ 	c #D8A636",
"/ 	c #CC961E",
"( 	c #C68D0E",
"_ 	c #D4A234",
": 	c #D49E26",
"< 	c #C38A0B",
"[ 	c #AB8A40",
"} 	c #AD9C76",
"| 	c #B09D73",
"1 	c #B48416",
"2 	c #BCB6A9",
"3 	c #BFBBB2",
"4 	c #B78E34",
"5 	c #D1940D",
"6 	c #D0940C",
"7 	c #2D2003",
"8 	c #E6E8EA",
"9 	c #F4F7F9",
"0 	c #898270",
"a 	c #F5F8FA",
"b 	c #988C75",
"c 	c #AB8A45",
"d 	c #5E4305",
"e 	c #9A9184",
"f 	c #BFB3A4",
"g 	c #94A6B8",
"h 	c #A0B5CA",
"i 	c #83817B",
"j 	c #A4BAD0",
"k 	c #A8BED5",
"l 	c #656563",
"m 	c #7C746A",
"n 	c #9F927D",
"o 	c #766F65",
"p 	c #A49F8D",
"q 	c #8F8973",
"r 	c #D7C5A6",
"s 	c #9D9A93",
"t 	c #808180",
"u 	c #847849",
"v 	c #B9AA88",
"w 	c #DCC8A8",
"x 	c #C6BEA3",
"y 	c #D1C188",
"z 	c #B9AA8A",
"A 	c #D4C8B3",
"B 	c #90835C",
"C 	c #BBA864",
"D 	c #A39258",
"E 	c #3B3627",
"F 	c #D4C48A",
"G 	c #AE9C5E",
"H 	c #AE9D61",
"I 	c #AF9E5E",
"J 	c #BFAC66",
"K 	c #6B6039",
"L 	c #C9B981",
"M 	c #B09F60",
"N 	c #B6A66C",
"O 	c #DCCA88",
"P 	c #B3A060",
"Q 	c #272314",
"R 	c #C9BB87",
"S 	c #B2A061",
"T 	c #DECC89",
"U 	c #D7C586",
"V 	c #A49458",
"W 	c #2D2918",
"X 	c #645E45",
"Y 	c #AB9E6F",
"Z 	c #AB9A5B",
"` 	c #AC9B5D",
" .	c #867847",
"..	c #515151",
"+.	c #3C3A32",
"@.	c #E4D18F",
"#.	c #A09056",
"$.	c #A39358",
"%.	c #B4A261",
"&.	c #1B190F",
"*.	c #090909",
"=.	c #14120B",
"-.	c #19160D",
";.	c #333333",
">.	c #272727",
",.	c #000000",
"            . +                 ",
"        @ # $ % & *             ",
"        = - ; > , ' ) !         ",
"      ~ { ] ^ / ( _ : <         ",
"      [ } | 1 2 3 4 5 6 7       ",
"        8 9 0 a a b c d         ",
"    e f g h i j k l m n o       ",
"        p q r s t u v w         ",
"        x y z A B C D E         ",
"          F G H I J K           ",
"          L M N O P Q           ",
"          R S T U V W           ",
"          X Y Z `  .            ",
"        ..+.@.#.$.%.&.          ",
"          *.=.-.;.>.,.          ",
"                                "};
