/* XPM */
static char * xine_xpm[] = {
"32 32 543 2",
"  	c None",
". 	c #3F3F3F",
"+ 	c #424242",
"@ 	c #434343",
"# 	c #424040",
"$ 	c #403D3D",
"% 	c #555555",
"& 	c #5B5B5B",
"* 	c #5D5D5D",
"= 	c #8B8B8B",
"- 	c #B6B6B6",
"; 	c #BDBDBD",
"> 	c #B9B9B9",
", 	c #B9B3B3",
"' 	c #B6A5A5",
") 	c #A18C8C",
"! 	c #4D4646",
"~ 	c #4B4343",
"{ 	c #443D3D",
"] 	c #616161",
"^ 	c #888888",
"/ 	c #BEBEBE",
"( 	c #CACACA",
"_ 	c #D0D0D0",
": 	c #D1D1D1",
"< 	c #CDCDCD",
"[ 	c #C9C9C9",
"} 	c #C4C4C4",
"| 	c #C9C0C0",
"1 	c #D4C0C0",
"2 	c #DEBDBD",
"3 	c #D9B1B1",
"4 	c #D2A3A3",
"5 	c #9B7A79",
"6 	c #544C4A",
"7 	c #636363",
"8 	c #6D6D6D",
"9 	c #9F9F9F",
"0 	c #D6D6D6",
"a 	c #D7D7D7",
"b 	c #DCDCDC",
"c 	c #D8D8D8",
"d 	c #D3D3D3",
"e 	c #CECECE",
"f 	c #C5C5C5",
"g 	c #D6BFBF",
"h 	c #E3BEBE",
"i 	c #EFBDBD",
"j 	c #F5BAB9",
"k 	c #E8B8B1",
"l 	c #B39C91",
"m 	c #5C5B57",
"n 	c #565656",
"o 	c #7B7B7B",
"p 	c #BBBBBB",
"q 	c #EAEAEA",
"r 	c #EBEBEB",
"s 	c #E3E3E3",
"t 	c #DDDDDD",
"u 	c #D9D9D9",
"v 	c #D5D5D5",
"w 	c #CBC0C0",
"x 	c #D9BEBE",
"y 	c #E6BEBE",
"z 	c #F3BDBD",
"A 	c #FBBEBB",
"B 	c #F2C9BC",
"C 	c #E2D0B9",
"D 	c #BABBA4",
"E 	c #7B7F78",
"F 	c #575757",
"G 	c #696969",
"H 	c #BCBCBC",
"I 	c #F3F3F3",
"J 	c #F8F8F8",
"K 	c #F1F1F1",
"L 	c #E9E9E9",
"M 	c #E1E1E1",
"N 	c #DBDBDB",
"O 	c #DCBFBF",
"P 	c #EABEBE",
"Q 	c #F7BEBD",
"R 	c #F8C2BB",
"S 	c #EAD0BC",
"T 	c #DFDDBC",
"U 	c #D1E2B9",
"V 	c #AEC5A4",
"W 	c #5D665C",
"X 	c #5C5C5C",
"Y 	c #A1A1A1",
"Z 	c #FCFCFC",
"` 	c #EFEFEF",
" .	c #E6E6E6",
"..	c #DEDEDE",
"+.	c #D2D2D2",
"@.	c #CCCCCC",
"#.	c #CDC1C1",
"$.	c #E0BEBE",
"%.	c #F0BDBD",
"&.	c #EFCBBB",
"*.	c #E2DABC",
"=.	c #D7E6BC",
"-.	c #CCF0BC",
";.	c #BFF2B8",
">.	c #81A880",
",.	c #313F31",
"'.	c #505050",
").	c #848484",
"!.	c #ECECEC",
"~.	c #F7F7F7",
"{.	c #FBFBFB",
"].	c #F6F6F6",
"^.	c #EDEDED",
"/.	c #E2E2E2",
"(.	c #D4D4D4",
"_.	c #CFC1C1",
":.	c #E4BEBE",
"<.	c #F6BDBC",
"[.	c #F5C4BC",
"}.	c #E6D6BC",
"|.	c #D8E4BC",
"1.	c #CDF0BC",
"2.	c #C3F8BB",
"3.	c #BEFABC",
"4.	c #B5E9B5",
"5.	c #769176",
"6.	c #282F28",
"7.	c #3D3D3D",
"8.	c #535353",
"9.	c #B4B4B4",
"0.	c #E4E4E4",
"a.	c #F5F5F5",
"b.	c #C3C3C3",
"c.	c #AEAEAE",
"d.	c #BAAAAA",
"e.	c #FABEBB",
"f.	c #EACFBC",
"g.	c #DAE2BC",
"h.	c #CDEFBC",
"i.	c #C3F9BB",
"j.	c #BDF8BB",
"k.	c #BDF1BD",
"l.	c #BBE5BB",
"m.	c #ABCAAB",
"n.	c #535C53",
"o.	c #353535",
"p.	c #9B9B9B",
"q.	c #C6C6C6",
"r.	c #DFDFDF",
"s.	c #FAFAFA",
"t.	c #C7C7C7",
"u.	c #635D5D",
"v.	c #D1A7A7",
"w.	c #D8B2A8",
"x.	c #DEDDBD",
"y.	c #C1F9BB",
"z.	c #BDF5BC",
"A.	c #BDEDBD",
"B.	c #BEE4BE",
"C.	c #95AB95",
"D.	c #6A756A",
"E.	c #4C504C",
"F.	c #969696",
"G.	c #545454",
"H.	c #6B6B6B",
"I.	c #393939",
"J.	c #868686",
"K.	c #DADADA",
"L.	c #B5B5B5",
"M.	c #656565",
"N.	c #3E3E3E",
"O.	c #0A0A0A",
"P.	c #080808",
"Q.	c #121212",
"R.	c #3F3333",
"S.	c #97928B",
"T.	c #B6D3A8",
"U.	c #BFF9BC",
"V.	c #BEE6BE",
"W.	c #9BB39B",
"X.	c #677167",
"Y.	c #525652",
"Z.	c #8F8F8F",
"`.	c #3A3A3A",
" +	c #948A53",
".+	c #3B3B3B",
"++	c #BABABA",
"@+	c #E0E0E0",
"#+	c #676767",
"$+	c #767676",
"%+	c #B3B3B3",
"&+	c #020202",
"*+	c #2D322D",
"=+	c #A2CDA0",
"-+	c #BEEABE",
";+	c #A3BEA3",
">+	c #606860",
",+	c #535753",
"'+	c #858585",
")+	c #808080",
"!+	c #4F4F4F",
"~+	c #6E6137",
"{+	c #907F40",
"]+	c #C0AC58",
"^+	c #C2C2C2",
"/+	c #7D7D7D",
"(+	c #6F6F6F",
"_+	c #626262",
":+	c #090A09",
"<+	c #515951",
"[+	c #596059",
"}+	c #797979",
"|+	c #9A9A9A",
"1+	c #474747",
"2+	c #414141",
"3+	c #4B472F",
"4+	c #393728",
"5+	c #312E24",
"6+	c #867236",
"7+	c #AA9343",
"8+	c #BFBFBF",
"9+	c #4A4A4A",
"0+	c #070707",
"a+	c #AAAAAA",
"b+	c #E5E5E5",
"c+	c #3C3C3C",
"d+	c #6A6A6A",
"e+	c #404040",
"f+	c #554D33",
"g+	c #6C6133",
"h+	c #54512C",
"i+	c #53502B",
"j+	c #29281D",
"k+	c #685B2D",
"l+	c #8D7937",
"m+	c #B8B8B8",
"n+	c #494949",
"o+	c #4D4D4D",
"p+	c #585858",
"q+	c #676141",
"r+	c #C6B259",
"s+	c #BBA44F",
"t+	c #A99144",
"u+	c #8B7839",
"v+	c #645E2F",
"w+	c #242317",
"x+	c #100F0C",
"y+	c #60572A",
"z+	c #C8C8C8",
"A+	c #181818",
"B+	c #3D3D3C",
"C+	c #3F3E38",
"D+	c #5F583F",
"E+	c #D5C063",
"F+	c #DBCB6A",
"G+	c #DBCB69",
"H+	c #D6C363",
"I+	c #CDB75A",
"J+	c #BEA54F",
"K+	c #A78E42",
"L+	c #877538",
"M+	c #211D10",
"N+	c #424225",
"O+	c #B0B0B0",
"P+	c #C4C5C4",
"Q+	c #C3C5C3",
"R+	c #C1C7C1",
"S+	c #A4AFA4",
"T+	c #383C38",
"U+	c #323232",
"V+	c #4E4C41",
"W+	c #424037",
"X+	c #B0994B",
"Y+	c #BBA44D",
"Z+	c #C1AA53",
"`+	c #CDB65D",
" @	c #D6C465",
".@	c #DBCC6A",
"+@	c #DAC968",
"@@	c #D4C161",
"#@	c #CBB357",
"$@	c #BAA04C",
"%@	c #645C41",
"&@	c #3A3938",
"*@	c #383838",
"=@	c #C1C2C1",
"-@	c #C2C4C2",
";@	c #C0C6C0",
">@	c #C0CCC0",
",@	c #B5C5B5",
"'@	c #A9BEA9",
")@	c #6D776D",
"!@	c #585647",
"~@	c #585644",
"{@	c #E0D574",
"]@	c #4A4939",
"^@	c #433F2F",
"/@	c #C8B156",
"(@	c #BFA74F",
"_@	c #BCA54E",
":@	c #C5AE55",
"<@	c #CEB95E",
"[@	c #D8C667",
"}@	c #D9C866",
"|@	c #D3BE5F",
"1@	c #C8B055",
"2@	c #484434",
"3@	c #3E3F3E",
"4@	c #AEB3AE",
"5@	c #C0CBC0",
"6@	c #C0D0C0",
"7@	c #B5C8B5",
"8@	c #A2B6A2",
"9@	c #758175",
"0@	c #5A5A5A",
"a@	c #A0A0A0",
"b@	c #6C6C6C",
"c@	c #555142",
"d@	c #5B5641",
"e@	c #D8CA72",
"f@	c #EEE27D",
"g@	c #F4EB82",
"h@	c #D6CE73",
"i@	c #373528",
"j@	c #B5A758",
"k@	c #D1BC5E",
"l@	c #C7AF54",
"m@	c #BDA64E",
"n@	c #BDA64F",
"o@	c #C7AF57",
"p@	c #D1BB60",
"q@	c #DAC868",
"r@	c #DBCA69",
"s@	c #D7C665",
"t@	c #69623E",
"u@	c #3C3E3C",
"v@	c #9EAD9E",
"w@	c #B3C7B3",
"x@	c #9AAD9A",
"y@	c #7B897B",
"z@	c #606060",
"A@	c #898989",
"B@	c #787878",
"C@	c #4D493E",
"D@	c #534D3B",
"E@	c #988643",
"F@	c #BBA650",
"G@	c #CBB85E",
"H@	c #DBCA6C",
"I@	c #E8DB78",
"J@	c #DDD275",
"K@	c #4B4830",
"L@	c #434028",
"M@	c #E4D873",
"N@	c #DACA69",
"O@	c #CEBA5D",
"P@	c #C4AD53",
"Q@	c #C0A951",
"R@	c #C9B259",
"S@	c #D2BE62",
"T@	c #B0A459",
"U@	c #A19551",
"V@	c #3B3D3B",
"W@	c #778477",
"X@	c #6E6E6E",
"Y@	c #757575",
"Z@	c #838383",
"`@	c #46463E",
" #	c #464638",
".#	c #625A33",
"+#	c #7E6E33",
"@#	c #8F7A37",
"##	c #9E883E",
"$#	c #AE9746",
"%#	c #BEA953",
"&#	c #D0BC62",
"*#	c #DECF6F",
"=#	c #C1B565",
"-#	c #312F1F",
";#	c #C5BE70",
">#	c #EBE07A",
",#	c #E2D571",
"'#	c #D8C666",
")#	c #CDB75B",
"!#	c #C3AB52",
"~#	c #988744",
"{#	c #887A41",
"]#	c #343023",
"^#	c #515151",
"/#	c #7E7E7E",
"(#	c #646464",
"_#	c #8A8A8A",
":#	c #595545",
"<#	c #5D5744",
"[#	c #424235",
"}#	c #56532F",
"|#	c #5A572D",
"1#	c #605A2D",
"2#	c #706531",
"3#	c #817034",
"4#	c #937D38",
"5#	c #A18B3F",
"6#	c #B29B4A",
"7#	c #C2AE56",
"8#	c #BBAA58",
"9#	c #514B2F",
"0#	c #726F51",
"a#	c #F1E680",
"b#	c #EFE57E",
"c#	c #EADE79",
"d#	c #B5A95C",
"e#	c #857841",
"f#	c #3E3926",
"g#	c #282828",
"h#	c #484848",
"i#	c #919191",
"j#	c #585649",
"k#	c #8B8456",
"l#	c #A79A58",
"m#	c #A99953",
"n#	c #544F3B",
"o#	c #6A5F37",
"p#	c #7C6F35",
"q#	c #655F30",
"r#	c #57552C",
"s#	c #625C2E",
"t#	c #746731",
"u#	c #857234",
"v#	c #96803A",
"w#	c #A58F41",
"x#	c #B5A04C",
"y#	c #A1914E",
"z#	c #504E3F",
"A#	c #B1A762",
"B#	c #C5BB6B",
"C#	c #8F8A53",
"D#	c #504E35",
"E#	c #262626",
"F#	c #060606",
"G#	c #4E4C44",
"H#	c #817548",
"I#	c #9D8F53",
"J#	c #D7C466",
"K#	c #DAC969",
"L#	c #D8C766",
"M#	c #787043",
"N#	c #49422C",
"O#	c #937F3E",
"P#	c #9A853F",
"Q#	c #756934",
"R#	c #635C2F",
"S#	c #57542C",
"T#	c #655E2F",
"U#	c #786A32",
"V#	c #897635",
"W#	c #99833B",
"X#	c #99833F",
"Y#	c #5A5234",
"Z#	c #444232",
"`#	c #544F35",
" $	c #484844",
".$	c #9B9259",
"+$	c #9D8F52",
"@$	c #BFA74E",
"#$	c #BFA850",
"$$	c #C4AE55",
"%$	c #D0BB60",
"&$	c #D8C566",
"*$	c #B3A75B",
"=$	c #4A472F",
"-$	c #8D7F43",
";$	c #C3AB53",
">$	c #B09848",
",$	c #937F3D",
"'$	c #726733",
")$	c #5E5A2E",
"!$	c #58552C",
"~$	c #6A612F",
"{$	c #736531",
"]$	c #564C2E",
"^$	c #47412A",
"/$	c #686868",
"($	c #B9B36E",
"_$	c #DACA68",
":$	c #CFBC5E",
"<$	c #C5AE54",
"[$	c #BEA64F",
"}$	c #BFA851",
"|$	c #C7B058",
"1$	c #D3BE62",
"2$	c #39351F",
"3$	c #AE9E51",
"4$	c #CEB85C",
"5$	c #AA9446",
"6$	c #8C7B3B",
"7$	c #6C6131",
"8$	c #3B3929",
"9$	c #373426",
"0$	c #313131",
"a$	c #0C0C0C",
"b$	c #F0E780",
"c$	c #ECE27B",
"d$	c #E3D571",
"e$	c #D7C766",
"f$	c #CDB85B",
"g$	c #A6934A",
"h$	c #544E38",
"i$	c #A99D59",
"j$	c #D5C363",
"k$	c #CBB659",
"l$	c #544C33",
"m$	c #3F3A2A",
"n$	c #0D0D0D",
"o$	c #E0D172",
"p$	c #ECDF7C",
"q$	c #F1E780",
"r$	c #EAE079",
"s$	c #E0D26F",
"t$	c #D6C464",
"u$	c #CBB559",
"v$	c #C2AA51",
"w$	c #6A6243",
"x$	c #535141",
"y$	c #BAAB5D",
"z$	c #6C6541",
"A$	c #504B35",
"B$	c #262625",
"C$	c #C1C1C1",
"D$	c #1F1F1F",
"E$	c #0F0F0F",
"F$	c #C5B158",
"G$	c #D6C467",
"H$	c #E4D573",
"I$	c #F2E780",
"J$	c #E9DD78",
"K$	c #DED06D",
"L$	c #D3C162",
"M$	c #C9B257",
"N$	c #B19C4D",
"O$	c #534D37",
"P$	c #423F32",
"Q$	c #2B2A27",
"R$	c #101010",
"                                                                ",
"                    . + @ + + + # $                             ",
"              % & * = - ; > - , ' ) ! ~ {                       ",
"            ] ^ / ( _ : < [ } | 1 2 3 4 5 6                     ",
"        7 8 9 0 a b c d e ( f | g h i j k l m n                 ",
"      7 o p q r s t u v _ ( f w x y z A B C D E F               ",
"      G H I J K L M N 0 : ( f w O P Q R S T U V W               ",
"    X Y q J Z J `  ...c +.@.f #.$.%.A &.*.=.-.;.>.,.            ",
"  '.).0 !.K ~.{.].^./.N (.< f _.:.<.[.}.|.1.2.3.4.5.6.    7.    ",
"  8.9.N 0.L ` ~.{.a.L ..b.- c.d.P e.f.g.h.i.j.k.l.m.n.o.7.p.    ",
"  % q.t r./. .^.a.s.r.t.o + 7.u.v.w.x.h.y.z.A.B.C.D.E.F.G.H.    ",
"I.J.v K.N t r.s L ..L.M.N.O.P.Q.R.S.T.U.k.V.W.X.Y.Z.G X `. +    ",
".+++a a c u N t @+( #+$+$+%+b.#+&+*+=+-+;+>+,+'+)+!+. ~+{+]+    ",
".+^+(.(.v 0 0 c t./+. (+H     < _+:+<+[+Y.}+|+1+2+3+4+5+6+7+    ",
".+8+_ : : : +.d ; 9+0+a+        b+c+@ d+- 2+e+f+g+h+i+j+k+l+    ",
".+H < < < < < < m+n+P.L.      @ o+p+d 7.7.q+r+s+t+u+v+w+x+y+    ",
".+> ( ( [ [ z+z+%+H.A+F 8+* o+@ L B+C+D+E+F+G+H+I+J+K+L+M+N+    ",
"`.O+t.q.q.f P+Q+R+S+T+U+G.1+v n+V+W+X+Y+Z+`+ @.@+@@@#@$@%@&@    ",
"*@^ =@Q+-@;@>@,@'@)@p+o+> X !@~@{@]@^@/@(@_@:@<@[@F+}@|@1@2@    ",
"  3@4@5@6@7@8@9@0@% a@b@c@d@e@f@g@h@i@j@k@l@m@n@o@p@q@r@s@t@    ",
"  u@v@w@x@y@0@z@A@B@C@D@E@F@G@H@I@J@K@L@M@N@O@P@m@Q@R@S@T@U@    ",
"  V@9@W@F X@Y@Z@`@ #.#+#@###$#%#&#*#=#-#;#>#,#'#)#!#~#{#]#0@    ",
"    ^#/#(#_#:#<#[#}#|#1#2#3#4#5#6#7#8#9#0#a#b#c#d#e#f#X g#)+    ",
"h#i#% Z.j#k#l#m#n#o#p#q#r#s#t#u#v#w#x#y#z#A#B#C#D#0@.+#+E#F#    ",
"h#i#G#H#I#J#K#L#M#N#O#P#Q#R#S#T#U#V#W#X#Y#Z#`#% '.^#U+P.        ",
" $.$+$@$#$$$%$&$*$=$-$;$>$,$'$)$!$~${$]$^$o+/$. `.O.            ",
"($M@_$:$<$[$}$|$1$.#2$3$4$}$5$6$7$8$9$+ Z@0$. a$                ",
"a#b$c$d$e$f$!#[$Q@g$h$i$N@j$k$l$m$o.Y E#2+n$                    ",
"o$p$q$q$r$s$t$u$v$m@w$x$y$z$A$B$C$D$. E$                        ",
"F$G$H$f@I$q$J$K$L$M$N$O$P$Q$} E#.+R$                            ",
"                                                                ",
"                                                                "};
