/* XPM */
static char * xine16_xpm[] = {
"16 16 117 2",
"  	c None",
". 	c #585858",
"+ 	c #7F7F7F",
"@ 	c #757575",
"# 	c #6C6C6C",
"$ 	c #808080",
"% 	c #D2D2D2",
"& 	c #CDCDCD",
"* 	c #B5B5B5",
"= 	c #B2A6A6",
"- 	c #DCB3B3",
"; 	c #000000",
"> 	c #EDEDED",
", 	c #E4E4E4",
"' 	c #DADADA",
") 	c #D1D1D1",
"! 	c #C6C6C6",
"~ 	c #D3BCBC",
"{ 	c #EFBABA",
"] 	c #FEBCB5",
"^ 	c #E2D2B5",
"/ 	c #EEEEEE",
"( 	c #FCFCFC",
"_ 	c #EFEFEF",
": 	c #DFDFDF",
"< 	c #D4D4D4",
"[ 	c #C7C7C7",
"} 	c #D7BCBC",
"| 	c #F9B6B6",
"1 	c #EFCDB8",
"2 	c #D6EBB8",
"3 	c #BCF6B3",
"4 	c #3F3F00",
"5 	c #E6E6E6",
"6 	c #F0F0F0",
"7 	c #FBFBFB",
"8 	c #EAEAEA",
"9 	c #B4B4B4",
"0 	c #D4B3B3",
"a 	c #F9BEB6",
"b 	c #D9E7B8",
"c 	c #BDFDB4",
"d 	c #B7F6B7",
"e 	c #D5D5D5",
"f 	c #DCDCDC",
"g 	c #E0E0E0",
"h 	c #EBEBEB",
"i 	c #B1B299",
"j 	c #BBFBB6",
"k 	c #FFFFFF",
"l 	c #D6D6D6",
"m 	c #D8D8D8",
"n 	c #D0D0D0",
"o 	c #A0A0A0",
"p 	c #D1BB4E",
"q 	c #7B7B7B",
"r 	c #CCCCCC",
"s 	c #CBCBCB",
"t 	c #B6B6B6",
"u 	c #A98F2B",
"v 	c #D9C556",
"w 	c #F1E66C",
"x 	c #727272",
"y 	c #C3C3C3",
"z 	c #C3C4C3",
"A 	c #C1CAC1",
"B 	c #B4CDB4",
"C 	c #FDFDFB",
"D 	c #131006",
"E 	c #191609",
"F 	c #745D12",
"G 	c #BACABA",
"H 	c #BCDBBC",
"I 	c #060502",
"J 	c #27210C",
"K 	c #DAC955",
"L 	c #F4EA6F",
"M 	c #E1D05D",
"N 	c #B39A34",
"O 	c #050402",
"P 	c #D8C854",
"Q 	c #BDA23A",
"R 	c #B59730",
"S 	c #D4C14F",
"T 	c #F0E66C",
"U 	c #EADA65",
"V 	c #BDA53D",
"W 	c #D7C653",
"X 	c #C5A940",
"Y 	c #B0942D",
"Z 	c #CDB847",
"` 	c #EBDF66",
" .	c #ECDE68",
"..	c #020201",
"+.	c #141107",
"@.	c #C8B146",
"#.	c #1F1A0B",
"$.	c #D5C24F",
"%.	c #CBB146",
"&.	c #AA902B",
"*.	c #554A1F",
"=.	c #0B0A04",
"-.	c #020100",
";.	c #C6AD3F",
">.	c #E5D860",
",.	c #EEE26A",
"'.	c #151308",
").	c #120F06",
"!.	c #1E1909",
"~.	c #EAE5D1",
"{.	c #AB912D",
"].	c #C0A439",
"^.	c #E0D15B",
"/.	c #CFB948",
"(.	c #B59A34",
"_.	c #BA9B32",
":.	c #3A3115",
"            . + @ # .           ",
"        $ $ % & * = - ; ;       ",
"      $ > , ' ) ! ~ { ] ^ ;     ",
"    $ / ( _ : < [ } | 1 2 3 4   ",
"    $ 5 6 7 8 & 9 0 a b c d ; ; ",
"  . e f g h [ . ; 4 i j ; ; k ; ",
"  $ < l m n 4 o k 4 ; ; k ; ; p ",
"  q r s s t ; k ; ; k ; ; u v w ",
"  x y z A B ; ; C D E u ; F u v ",
"  . G H ; ; k I J K L M N ; F u ",
"    ; ; k ; O P Q R S T U V ; F ",
"; ; k ; ; F ; F W X Y Z `  .; ; ",
"k ..+.@.X u F #.F $.%.&.*.=.k ; ",
"-.;.>.,.p X u F '.F ).!.~.I ;   ",
"; {.].^.w v X u ; ; k ; ;       ",
"/.; (._.K L :.; k ; ;           "};
