/* XPM */
static char * xmms_xpm[] = {
"32 32 8 1",
" 	c None",
".	c #000000",
"+	c #B0B0B0",
"@	c #FF5000",
"#	c #FFFFFF",
"$	c #F0F0F0",
"%	c #FFFFB0",
"&	c #FFAF00",
"               .            ..  ",
"              .+.         ..@.  ",
"             .#$+.       .%@&.  ",
"            .#$$$+.    ..%@&&.  ",
"           .#$$$$$+. ..&%@&&.   ",
"          .#$$$$$$$+.&%@@&&.    ",
"         .#$$$$$$$..&%@&&&.     ",
"        .#$$$$$$$.&&%@&&&.      ",
"       .#$$$$$$..&&%@&&&.       ",
"      .#$$$$$$.&&&%@&&&..       ",
"     .#$$$$$..&&&%@&&&.$+.      ",
"    .#$$$$..&&&&&&&&&&&....     ",
"   .#$$$..&&&&&&&&&&&&&&@.+.    ",
"  .#$$$.&&&&%%%%%&&&&&@@&.$+.   ",
" .#$$$$.&&&@@@@%&&&&&@&&&.$$+.  ",
".#$$$$$.&&&&&&%&&&&@@&&&&.$$$+. ",
" .#$$$$.&&&&&%&&&&@&&&&&.$$$$$+.",
"  .#$$$.....%&&&@@&&&&..$$$$$+. ",
"   .#$$$$$.%&&&@&&&&&.$$$$$$+.  ",
"    .#$$$.%&&@@&&&&..$$$$$$+.   ",
"     .#$.%&@@&&&&&.$$$$$$$+.    ",
"      ..%&@&&&&&..$$$$$$$+.     ",
"      .%@@&&&&&.$$$$$$$$+.      ",
"     .%@&&&&&..$$$$$$$$+.       ",
"    .%@&&&&..$$$$$$$$$+.        ",
"   .%@&&&&.#$$$$$$$$$+.         ",
"  .@@&&&.. .#$$$$$$$+.          ",
"  .&&&&.    .#$$$$$+.           ",
"  .&&..      .#$$$+.            ",
"  .&.         .#$+.             ",
"  ..           .#.              ",
"                .               "};
