/* XPM */
static char * xwc_xpm[] = {
"16 16 134 2",
"  	c None",
". 	c #C4C3BF",
"+ 	c #E8E8DC",
"@ 	c #C8CBB0",
"# 	c #D6D8C0",
"$ 	c #FFFFF8",
"% 	c #FEFEFC",
"& 	c #FEFEFE",
"* 	c #FFFFFF",
"= 	c #C2C2BA",
"- 	c #C3C3AB",
"; 	c #E5E7B5",
"> 	c #DEDFA6",
", 	c #D0D1A9",
"' 	c #C6C6AE",
") 	c #C3C3BB",
"! 	c #EAEAEA",
"~ 	c #C8C8C8",
"{ 	c #FDFDFD",
"] 	c #C1C1B5",
"^ 	c #CBCBA5",
"/ 	c #D7D985",
"( 	c #DADB73",
"_ 	c #DBDA7D",
": 	c #C9C885",
"< 	c #8A8974",
"[ 	c #FFFFFD",
"} 	c #A0A09E",
"| 	c #C8C8A2",
"1 	c #DBDC74",
"2 	c #DADA76",
"3 	c #C8C87E",
"4 	c #8A8A72",
"5 	c #F4F4F2",
"6 	c #AAAAA8",
"7 	c #C1C0BB",
"8 	c #A6A590",
"9 	c #A5A476",
"0 	c #A7A66D",
"a 	c #A7A66E",
"b 	c #9E9C73",
"c 	c #868779",
"d 	c #E3E3E1",
"e 	c #E7E7E5",
"f 	c #D0D0C6",
"g 	c #B9B8A4",
"h 	c #B9B99F",
"i 	c #D7D6D1",
"j 	c #FFFFFB",
"k 	c #C3C3C1",
"l 	c #FFFEF9",
"m 	c #FEFEF6",
"n 	c #F1F1E9",
"o 	c #FFFFFA",
"p 	c #FFFFF6",
"q 	c #C3C3C3",
"r 	c #F7F7F7",
"s 	c #EEEEEE",
"t 	c #E1E1E1",
"u 	c #F3F3F3",
"v 	c #F1EFE2",
"w 	c #BDBDA5",
"x 	c #BBBA9B",
"y 	c #E2E3C4",
"z 	c #F1F3DE",
"A 	c #F6F6EC",
"B 	c #FEFFFA",
"C 	c #CCCCCC",
"D 	c #DBDBDB",
"E 	c #C0C0C0",
"F 	c #D1CFB6",
"G 	c #EAE9BB",
"H 	c #EBECA8",
"I 	c #D9DA94",
"J 	c #D2D29E",
"K 	c #808161",
"L 	c #FDFDF3",
"M 	c #D1D1D1",
"N 	c #ADADAD",
"O 	c #6A6A6A",
"P 	c #CACACA",
"Q 	c #EBEBEB",
"R 	c #E3E3D9",
"S 	c #D1D0B2",
"T 	c #DDDDA7",
"U 	c #D6D885",
"V 	c #D8DB84",
"W 	c #D6D696",
"X 	c #696A40",
"Y 	c #FDFEF0",
"Z 	c #CECECE",
"` 	c #E7E7E7",
" .	c #C4C4C4",
"..	c #C9C9C9",
"+.	c #D2D2B8",
"@.	c #DCDEAD",
"#.	c #D6D88F",
"$.	c #D7D88A",
"%.	c #D7D79B",
"&.	c #6A6B43",
"*.	c #F0F0F0",
"=.	c #D4D4D4",
"-.	c #E8E8E8",
";.	c #C6C7B5",
">.	c #6C6D4B",
",.	c #6C6C3A",
"'.	c #6C6C36",
").	c #6A6B3F",
"!.	c #414223",
"~.	c #FFFFF4",
"{.	c #FFFFF1",
"].	c #FFFFEE",
"^.	c #FFFFF3",
"/.	c #FFFFF5",
"(.	c #FCFCFC",
"_.	c #EEEEE2",
":.	c #E9EADA",
"<.	c #FFFFF2",
"[.	c #E3E3E3",
"}.	c #D0D0D0",
"|.	c #D6D6D6",
"1.	c #DFDEC9",
"2.	c #C5C5A3",
"3.	c #C7C99A",
"4.	c #CACB9F",
"5.	c #D2D2B6",
"6.	c #D8D9C9",
"7.	c #FEFFF9",
"8.	c #D3D2B3",
"9.	c #EAEAB6",
"0.	c #E6E69E",
"a.	c #E5E79E",
"b.	c #E4E4B0",
"c.	c #6D6E4F",
". + @ # $ % & * * * * & & & & & ",
"= - ; > , ' ) * * ! ~ { & & & & ",
"] ^ / ( _ : < * [ } * & & * & & ",
"] | / 1 2 3 4 * 5 6 * & & & & & ",
"7 8 9 0 a b c * d e * & & & & & ",
". f g h h g i [ j j j % & & & & ",
"k j l m n o [ [ $ p p $ % & & & ",
"q * r s t u * o v w x y z A B & ",
"q * C D E q * p F G H I J K L * ",
"q * M N O P Q R S T U V W X Y & ",
"q * Z `  ...* $ +.@.#.$.%.&.Y & ",
"q * *.t =.-.* o ;.>.,.'.).!.L * ",
"q * & { *.* * [ o ~.{.].^./.B & ",
"q * & (.-.* * [ $ _.:.<./.o % & ",
"q * [.}...|.[ $ 1.2.3.4.5.6.7.{ ",
"q * M r  .M % ~.8.9.0.a.b.c.L & "};
