/* XPM */
static char *folder32[] = {
/* width height num_colors chars_per_pixel */
"    32    32       22            1",
/* colors */
". c #000000",
"# c #00007f",
"a c #000090",
"b c #0000ff",
"c c #007f00",
"d c #00ff00",
"e c #00ffff",
"f c #7f0000",
"g c #7f007f",
"h c None",
"i c #808080",
"j c #909000",
"k c #bfbfbf",
"l c #cf902f",
"m c #cfcf60",
"n c #e0e0d0",
"o c #ff0000",
"p c #ffcf2f",
"q c #ffcf90",
"r c #fff0ef",
"s c #ffff00",
"t c #ffff90",
/* pixels */
"hhhhhhhhhhhhhhhhhhhhhhhhhhhhhhhh",
"hhhhhhhhhhhhhhhhhhhhhhhhhhhhhhhh",
"hhhhhhhhhhhhhhhhhhhhhhhhhhhhhhhh",
"hhhhhhhhhhhhhhhhhhhhhhhhhhhhhhhh",
"hhhhhhhhhhhhhhhhh.jjjjjjjjhhhhhh",
"hhhhhhhhhhhhhhhh.jtttttttrjhhhhh",
"hhhhhhhhjjjjjjjjjmmmmmmmmmmjhhhh",
"hhhhhhh.mrrrrrrrrrrrrrrrrrrjhhhh",
"hhhhhhh.mqtqtqtqtqtqtqttttrjhhhh",
"hhhhhhh.mmmmmmmmmmmmmmmqttrjhhhh",
"hhhh.iiiiiiiiiiiiiiiiiiiitrjhhhh",
"hhhh.#r#r#r#a#a#a#a##apaitrjhhhh",
"hhhh.aaaaa#a#aa#aa#aaalaiqrjhhhh",
"hhhh.kkkkkkkkkkkkkkkkkkkitrjhhhh",
"hhhh.knnnnnnnnnnnnnnnnnkiqrjhhhh",
"hhhh.knrrrrrrrrrrrrrrrnkitrjhhhh",
"hhhh.knrrrrrrrrrrrrrrrnkiqrjhhhh",
"hhhh.knrrcrrrrrbrrforrnkitrjhhhh",
"hhhh.knrccrrrbberrfsornkitrjhhhh",
"hhhh.knrbdcrrkbbrrfofrnkiqrjhhhh",
"hhhh.knrcccrrggkgrrfkrnkijjjhhhh",
"hhhh.knrrrrrrrrrrrrrrrnki..hhhhh",
"hhhh.knriiirriiirriiirnkihhhhhhh",
"hhhh.knrrrrrrrrrrrrrrrnkihhhhhhh",
"hhhh.knnnnnnnnnnnnnnnnnkihhhhhhh",
"hhhh.kkkkkkkkkkkkkkkkkkkihhhhhhh",
"hhhh....................ihhhhhhh",
"hhhhhhhhhhhhhhhhhhhhhhhhhhhhhhhh",
"hhhhhhhhhhhhhhhhhhhhhhhhhhhhhhhh",
"hhhhhhhhhhhhhhhhhhhhhhhhhhhhhhhh",
"hhhhhhhhhhhhhhhhhhhhhhhhhhhhhhhh",
"hhhhhhhhhhhhhhhhhhhhhhhhhhhhhhhh"
};
