/* XPM */
static char *icon32[] = {
/* width height num_colors chars_per_pixel */
"    32    32        6            1",
/* colors */
". c None",
"# c #808080",
"a c #000000",
"b c #c0c0c0",
"c c #000080",
"d c #ffffff",
/* pixels */
"................................",
"a###############################",
"a#bbbbbbbbbbbbbbbbbbbbbbbbbbbbb#",
"a#ccccccccccccccccccccccccccccb#",
"a#abbabbabbcccccccccccccccccccb#",
"a#abbabbabbcccccccccccccccccccb#",
"a#aaaaaaaaacccccccccccccccccccb#",
"a#bbbbbbbbbbbbbbbbbbbbbbbbbbbbb#",
"a#b###########################b#",
"a#bdddddddddddddddddddddddddd#b#",
"a#bdddddddddddddddddddddddddd#b#",
"a#bdddddddddddddddddddddddddd#b#",
"a#bdddddddddddddddddddddddddd#b#",
"a#bdddddddddddddddddddddddddd#b#",
"a#bdddddddddddddddddddddddddd#b#",
"a#bdddddddddddddddddddddddddd#b#",
"a#bdddddddddddddddddddddddddd#b#",
"a#bdddddddddddddddddddddddddd#b#",
"a#bdddddddddddddddddddddddddd#b#",
"a#bdddddddddddddddddddddddddd#b#",
"a#bdddddddddddddddddddddddddd#b#",
"a#bdddddddddddddddddddddddddd#b#",
"a#bdddddddddddddddddddddddddd#b#",
"a#bdddddddddddddddddddddddddd#b#",
"a#bdddddddddddddddddddddddddd#b#",
"a#bdddddddddddddddddddddddddd#b#",
"a#bdddddddddddddddddddddddddd#b#",
"a#bbbbbbbbbbbbbbbbbbbbbbbbbbbbb#",
"a###############################",
"aaaaaaaaaaaaaaaaaaaaaaaaaaaaaaaa",
"................................",
"................................"
};
