/* XPM */
static char * logo32[] = {
"16 16 138 2",
"  	c None",
". 	c #EDEFFF",
"+ 	c #E0E2FE",
"@ 	c #727390",
"# 	c #323450",
"$ 	c #242542",
"% 	c #272945",
"& 	c #282A46",
"* 	c #181A36",
"= 	c #131532",
"- 	c #181A37",
"; 	c #1C1E3B",
"> 	c #1E203D",
", 	c #2A2F49",
"' 	c #6C708B",
") 	c #DAD9FA",
"! 	c #EAECFF",
"~ 	c #DDDFFB",
"{ 	c #363B54",
"] 	c #1D1E3B",
"^ 	c #1C1D3A",
"/ 	c #1F213D",
"( 	c #252743",
"_ 	c #272946",
": 	c #1E203E",
"< 	c #1D1F3D",
"[ 	c #363B56",
"} 	c #DADCFA",
"| 	c #6F708D",
"1 	c #1A1B38",
"2 	c #1D1F3B",
"3 	c #1C1E3A",
"4 	c #20223E",
"5 	c #252744",
"6 	c #282A47",
"7 	c #171936",
"8 	c #141633",
"9 	c #191B39",
"0 	c #1C1E3C",
"a 	c #727392",
"b 	c #272C45",
"c 	c #1A1C38",
"d 	c #6C6D8A",
"e 	c #C4C4E3",
"f 	c #C3C2E2",
"g 	c #C7C6E6",
"h 	c #CCCBEB",
"i 	c #CFCEEE",
"j 	c #CDCCEC",
"k 	c #BDBCDC",
"l 	c #BBBADA",
"m 	c #6F708F",
"n 	c #1F203E",
"o 	c #2B304A",
"p 	c #1B1C39",
"q 	c #C8CAE6",
"r 	c #C1C4E1",
"s 	c #1B1C3A",
"t 	c #1F213F",
"u 	c #C2C4E2",
"v 	c #151735",
"w 	c #1B1D3B",
"x 	c #C9CBE7",
"y 	c #D1D3F1",
"z 	c #161836",
"A 	c #1A1C39",
"B 	c #1D1F3C",
"C 	c #C9CCE8",
"D 	c #D7D9F7",
"E 	c #242644",
"F 	c #212340",
"G 	c #191B38",
"H 	c #CACDE9",
"I 	c #D3D6F4",
"J 	c #2B2D4B",
"K 	c #232543",
"L 	c #151736",
"M 	c #242643",
"N 	c #222441",
"O 	c #C6C9E5",
"P 	c #D4D3F4",
"Q 	c #A9ACC8",
"R 	c #A9ADCA",
"S 	c #A8ACC9",
"T 	c #BBBEDB",
"U 	c #282A48",
"V 	c #2B2D4C",
"W 	c #222443",
"X 	c #272C46",
"Y 	c #232542",
"Z 	c #6A6E89",
"` 	c #C0BFDF",
" .	c #C3C3E3",
"..	c #C2C2E2",
"+.	c #C1C1E1",
"@.	c #ACB0CC",
"#.	c #1B203B",
"$.	c #232544",
"%.	c #282A49",
"&.	c #393E5A",
"*.	c #222442",
"=.	c #1A1C3A",
"-.	c #1E1F3D",
";.	c #1F2140",
">.	c #1E203F",
",.	c #7E7F9F",
"'.	c #E0DEFF",
").	c #343653",
"!.	c #252745",
"~.	c #1C1D3B",
"{.	c #1C1E3D",
"].	c #383A59",
"^.	c #E2E4FF",
"/.	c #E8EAFF",
"(.	c #DFDEFF",
"_.	c #6B6F8A",
":.	c #252B45",
"<.	c #222341",
"[.	c #272947",
"}.	c #9698B7",
"|.	c #E4E6FF",
"1.	c #E7E9FF",
"2.	c #E7E8FF",
"3.	c #EFF1FF",
"4.	c #F5F7FF",
"5.	c #EBEDFF",
"6.	c #585979",
"7.	c #1C1E3E",
"8.	c #333554",
"9.	c #E4E3FF",
"0.	c #E3E5FF",
"a.	c #ECEEFF",
"b.	c #E6E8FF",
"c.	c #EEF0FF",
"d.	c #F6F8FF",
"e.	c #D0CFF1",
"f.	c #1D233F",
"g.	c #7B7F9D",
". + @ # $ % & * = - ; > , ' ) ! ",
"~ { ] ^ / ( & _ - = - ; : < [ } ",
"| 1 ^ 2 3 4 5 6 _ 7 8 9 0 : < a ",
"b 1 c d e f g h i j k l m 0 n o ",
"p c c q                 r s : t ",
"2 3 c q                 u v w : ",
"c 2 ; x                 y z z 0 ",
"* A B C                 D E v z ",
"F G G H                 I J K L ",
"M N G O         P Q R S T U V W ",
"X Y Y Z `  ...+.@.#.: t J $.%.&.",
"Z A *.E =.9 -.< 0 w 0 : ;.>.$.,.",
"'.).9 *.!.~.=.: : 0 w {.>.;.].^.",
"/.(._.:.<.[.0 =.: : {.{.{.>.}.! ",
"|.1.. ! 2.3.4.! 1.5.5.6.{.7.8.9.",
"0.|.1.a.! b.c.d.5.1.5.e.f.7.7.g."};
